<?xml version="1.0" standalone="no"?>
<!DOCTYPE svg PUBLIC "-//W3C//DTD SVG 1.1//EN" "http://www.w3.org/Graphics/SVG/1.1/DTD/svg11.dtd" >
<svg>
<metadata>
Created by FontForge 20090622 at Mon Aug 22 10:14:53 2016
 By deploy user
</metadata>
<defs>
<font id="AvantGarde-Demi" horiz-adv-x="0" >
  <font-face 
    font-family="AvantGarde-Demi"
    font-weight="400"
    font-stretch="normal"
    units-per-em="2048"
    panose-1="2 2 5 0 0 0 0 0 0 0"
    ascent="1638"
    descent="-410"
    x-height="1135"
    cap-height="1513"
    bbox="-1178 -514 2556 2339"
    underline-thickness="90"
    underline-position="-47"
    unicode-range="U+0020-U+F02A"
  />
<missing-glyph horiz-adv-x="1536" 
d="M256 0v1280h1024v-1280h-1024zM1247 33v1214h-958v-1214h958z" />
    <glyph glyph-name=".notdef" horiz-adv-x="1536" 
d="M256 0v1280h1024v-1280h-1024zM1247 33v1214h-958v-1214h958z" />
    <glyph glyph-name=".null" 
 />
    <glyph glyph-name="nonmarkingreturn" 
 />
    <glyph glyph-name="space" unicode=" " horiz-adv-x="573" 
 />
    <glyph glyph-name="space" unicode="&#x2031;" horiz-adv-x="573" 
 />
    <glyph glyph-name="space" unicode="&#x2025;" horiz-adv-x="573" 
 />
    <glyph glyph-name="space" unicode="&#x2024;" horiz-adv-x="573" 
 />
    <glyph glyph-name="space" unicode="&#x2023;" horiz-adv-x="573" 
 />
    <glyph glyph-name="space" unicode="&#x201f;" horiz-adv-x="573" 
 />
    <glyph glyph-name="space" unicode="&#x201b;" horiz-adv-x="573" 
 />
    <glyph glyph-name="space" unicode="&#x2017;" horiz-adv-x="573" 
 />
    <glyph glyph-name="space" unicode="&#x2016;" horiz-adv-x="573" 
 />
    <glyph glyph-name="space" unicode="&#x2015;" horiz-adv-x="573" 
 />
    <glyph glyph-name="exclam" unicode="!" horiz-adv-x="573" 
d="M147 385l273 1325h217v-197h-217v-1128h-273zM420 197l272 456h217v-196h-217v-260h-272z" />
    <glyph glyph-name="quotedbl" unicode="&#x22;" horiz-adv-x="737" 
d="M152 1051v462h153v-462h-153zM426 1051v462h154v-462h-154z" />
    <glyph glyph-name="numbersign" unicode="#" horiz-adv-x="1147" 
d="M1024 678v-201h-209l-65 -477h-183l64 477h-174l-66 -477h-180l63 477h-204v201h233l27 188h-203v201h227l62 449h178l-59 -449h176l59 449h184l-61 -449h184v-201h-211l-24 -188h182zM684 866h-176l-25 -188h174z" />
    <glyph glyph-name="dollar" unicode="$" horiz-adv-x="1147" 
d="M123 510h268q1 -73 53.5 -124.5t124.5 -51.5q75 0 125.5 52.5t50.5 125.5q0 61 -51 119q-20 24 -50.5 37t-78.5 26q-121 36 -203.5 85t-132 130t-49.5 201q0 163 103 270q85 98 170 103v268h256v-268q71 -28 128 -79.5t89.5 -121t38.5 -147.5h-256q-11 55 -48.5 88.5
t-91.5 33.5q-34 0 -65 -19.5t-49.5 -50.5t-18.5 -65q0 -55 27.5 -88.5t66.5 -51.5t101 -38q90 -29 142.5 -50t98.5 -60t77.5 -90.5t47 -111t15.5 -122.5q0 -85 -25 -155t-82 -136q-91 -98 -196 -121v-272h-256v272q-88 15 -165 72.5t-122 142t-45 172.5z" />
    <glyph glyph-name="percent" unicode="%" horiz-adv-x="1761" 
d="M412 1542q76 0 141.5 -27.5t117 -79t79.5 -118t28 -143.5q0 -76 -28 -142t-79 -118t-119 -80.5t-140 -28.5q-102 0 -186 49.5t-133.5 134t-49.5 185.5q0 77 29 144t79.5 117.5t117 78.5t143.5 28zM412 1315q-60 0 -101 -41t-41 -100q0 -55 42.5 -98.5t97.5 -43.5
q57 0 99 42t42 100q0 39 -19 71.5t-51 51t-69 18.5zM1341 700q101 0 186 -49t134 -133t49 -186t-49 -186.5t-133.5 -133.5t-186.5 -49q-101 0 -185 49.5t-133.5 134t-49.5 185.5q0 102 49 186t134 133t185 49zM1341 473q-40 0 -72 -17t-50.5 -48t-18.5 -68q0 -39 18.5 -73.5
t51 -55.5t71.5 -21q37 0 70 21t52.5 56t19.5 73q0 37 -19 68t-51.5 48t-71.5 17zM457 0l626 1513h209l-626 -1513h-209z" />
    <glyph glyph-name="percent" unicode="&#x202f;" horiz-adv-x="1761" 
d="M412 1542q76 0 141.5 -27.5t117 -79t79.5 -118t28 -143.5q0 -76 -28 -142t-79 -118t-119 -80.5t-140 -28.5q-102 0 -186 49.5t-133.5 134t-49.5 185.5q0 77 29 144t79.5 117.5t117 78.5t143.5 28zM412 1315q-60 0 -101 -41t-41 -100q0 -55 42.5 -98.5t97.5 -43.5
q57 0 99 42t42 100q0 39 -19 71.5t-51 51t-69 18.5zM1341 700q101 0 186 -49t134 -133t49 -186t-49 -186.5t-133.5 -133.5t-186.5 -49q-101 0 -185 49.5t-133.5 134t-49.5 185.5q0 102 49 186t134 133t185 49zM1341 473q-40 0 -72 -17t-50.5 -48t-18.5 -68q0 -39 18.5 -73.5
t51 -55.5t71.5 -21q37 0 70 21t52.5 56t19.5 73q0 37 -19 68t-51.5 48t-71.5 17zM457 0l626 1513h209l-626 -1513h-209z" />
    <glyph glyph-name="percent" unicode="&#x202e;" horiz-adv-x="1761" 
d="M412 1542q76 0 141.5 -27.5t117 -79t79.5 -118t28 -143.5q0 -76 -28 -142t-79 -118t-119 -80.5t-140 -28.5q-102 0 -186 49.5t-133.5 134t-49.5 185.5q0 77 29 144t79.5 117.5t117 78.5t143.5 28zM412 1315q-60 0 -101 -41t-41 -100q0 -55 42.5 -98.5t97.5 -43.5
q57 0 99 42t42 100q0 39 -19 71.5t-51 51t-69 18.5zM1341 700q101 0 186 -49t134 -133t49 -186t-49 -186.5t-133.5 -133.5t-186.5 -49q-101 0 -185 49.5t-133.5 134t-49.5 185.5q0 102 49 186t134 133t185 49zM1341 473q-40 0 -72 -17t-50.5 -48t-18.5 -68q0 -39 18.5 -73.5
t51 -55.5t71.5 -21q37 0 70 21t52.5 56t19.5 73q0 37 -19 68t-51.5 48t-71.5 17zM457 0l626 1513h209l-626 -1513h-209z" />
    <glyph glyph-name="percent" unicode="&#x202d;" horiz-adv-x="1761" 
d="M412 1542q76 0 141.5 -27.5t117 -79t79.5 -118t28 -143.5q0 -76 -28 -142t-79 -118t-119 -80.5t-140 -28.5q-102 0 -186 49.5t-133.5 134t-49.5 185.5q0 77 29 144t79.5 117.5t117 78.5t143.5 28zM412 1315q-60 0 -101 -41t-41 -100q0 -55 42.5 -98.5t97.5 -43.5
q57 0 99 42t42 100q0 39 -19 71.5t-51 51t-69 18.5zM1341 700q101 0 186 -49t134 -133t49 -186t-49 -186.5t-133.5 -133.5t-186.5 -49q-101 0 -185 49.5t-133.5 134t-49.5 185.5q0 102 49 186t134 133t185 49zM1341 473q-40 0 -72 -17t-50.5 -48t-18.5 -68q0 -39 18.5 -73.5
t51 -55.5t71.5 -21q37 0 70 21t52.5 56t19.5 73q0 37 -19 68t-51.5 48t-71.5 17zM457 0l626 1513h209l-626 -1513h-209z" />
    <glyph glyph-name="percent" unicode="&#x202c;" horiz-adv-x="1761" 
d="M412 1542q76 0 141.5 -27.5t117 -79t79.5 -118t28 -143.5q0 -76 -28 -142t-79 -118t-119 -80.5t-140 -28.5q-102 0 -186 49.5t-133.5 134t-49.5 185.5q0 77 29 144t79.5 117.5t117 78.5t143.5 28zM412 1315q-60 0 -101 -41t-41 -100q0 -55 42.5 -98.5t97.5 -43.5
q57 0 99 42t42 100q0 39 -19 71.5t-51 51t-69 18.5zM1341 700q101 0 186 -49t134 -133t49 -186t-49 -186.5t-133.5 -133.5t-186.5 -49q-101 0 -185 49.5t-133.5 134t-49.5 185.5q0 102 49 186t134 133t185 49zM1341 473q-40 0 -72 -17t-50.5 -48t-18.5 -68q0 -39 18.5 -73.5
t51 -55.5t71.5 -21q37 0 70 21t52.5 56t19.5 73q0 37 -19 68t-51.5 48t-71.5 17zM457 0l626 1513h209l-626 -1513h-209z" />
    <glyph glyph-name="percent" unicode="&#x202b;" horiz-adv-x="1761" 
d="M412 1542q76 0 141.5 -27.5t117 -79t79.5 -118t28 -143.5q0 -76 -28 -142t-79 -118t-119 -80.5t-140 -28.5q-102 0 -186 49.5t-133.5 134t-49.5 185.5q0 77 29 144t79.5 117.5t117 78.5t143.5 28zM412 1315q-60 0 -101 -41t-41 -100q0 -55 42.5 -98.5t97.5 -43.5
q57 0 99 42t42 100q0 39 -19 71.5t-51 51t-69 18.5zM1341 700q101 0 186 -49t134 -133t49 -186t-49 -186.5t-133.5 -133.5t-186.5 -49q-101 0 -185 49.5t-133.5 134t-49.5 185.5q0 102 49 186t134 133t185 49zM1341 473q-40 0 -72 -17t-50.5 -48t-18.5 -68q0 -39 18.5 -73.5
t51 -55.5t71.5 -21q37 0 70 21t52.5 56t19.5 73q0 37 -19 68t-51.5 48t-71.5 17zM457 0l626 1513h209l-626 -1513h-209z" />
    <glyph glyph-name="percent" unicode="&#x202a;" horiz-adv-x="1761" 
d="M412 1542q76 0 141.5 -27.5t117 -79t79.5 -118t28 -143.5q0 -76 -28 -142t-79 -118t-119 -80.5t-140 -28.5q-102 0 -186 49.5t-133.5 134t-49.5 185.5q0 77 29 144t79.5 117.5t117 78.5t143.5 28zM412 1315q-60 0 -101 -41t-41 -100q0 -55 42.5 -98.5t97.5 -43.5
q57 0 99 42t42 100q0 39 -19 71.5t-51 51t-69 18.5zM1341 700q101 0 186 -49t134 -133t49 -186t-49 -186.5t-133.5 -133.5t-186.5 -49q-101 0 -185 49.5t-133.5 134t-49.5 185.5q0 102 49 186t134 133t185 49zM1341 473q-40 0 -72 -17t-50.5 -48t-18.5 -68q0 -39 18.5 -73.5
t51 -55.5t71.5 -21q37 0 70 21t52.5 56t19.5 73q0 37 -19 68t-51.5 48t-71.5 17zM457 0l626 1513h209l-626 -1513h-209z" />
    <glyph glyph-name="percent" unicode="&#x2029;" horiz-adv-x="1761" 
d="M412 1542q76 0 141.5 -27.5t117 -79t79.5 -118t28 -143.5q0 -76 -28 -142t-79 -118t-119 -80.5t-140 -28.5q-102 0 -186 49.5t-133.5 134t-49.5 185.5q0 77 29 144t79.5 117.5t117 78.5t143.5 28zM412 1315q-60 0 -101 -41t-41 -100q0 -55 42.5 -98.5t97.5 -43.5
q57 0 99 42t42 100q0 39 -19 71.5t-51 51t-69 18.5zM1341 700q101 0 186 -49t134 -133t49 -186t-49 -186.5t-133.5 -133.5t-186.5 -49q-101 0 -185 49.5t-133.5 134t-49.5 185.5q0 102 49 186t134 133t185 49zM1341 473q-40 0 -72 -17t-50.5 -48t-18.5 -68q0 -39 18.5 -73.5
t51 -55.5t71.5 -21q37 0 70 21t52.5 56t19.5 73q0 37 -19 68t-51.5 48t-71.5 17zM457 0l626 1513h209l-626 -1513h-209z" />
    <glyph glyph-name="percent" unicode="&#x2028;" horiz-adv-x="1761" 
d="M412 1542q76 0 141.5 -27.5t117 -79t79.5 -118t28 -143.5q0 -76 -28 -142t-79 -118t-119 -80.5t-140 -28.5q-102 0 -186 49.5t-133.5 134t-49.5 185.5q0 77 29 144t79.5 117.5t117 78.5t143.5 28zM412 1315q-60 0 -101 -41t-41 -100q0 -55 42.5 -98.5t97.5 -43.5
q57 0 99 42t42 100q0 39 -19 71.5t-51 51t-69 18.5zM1341 700q101 0 186 -49t134 -133t49 -186t-49 -186.5t-133.5 -133.5t-186.5 -49q-101 0 -185 49.5t-133.5 134t-49.5 185.5q0 102 49 186t134 133t185 49zM1341 473q-40 0 -72 -17t-50.5 -48t-18.5 -68q0 -39 18.5 -73.5
t51 -55.5t71.5 -21q37 0 70 21t52.5 56t19.5 73q0 37 -19 68t-51.5 48t-71.5 17zM457 0l626 1513h209l-626 -1513h-209z" />
    <glyph glyph-name="percent" unicode="&#x2027;" horiz-adv-x="1761" 
d="M412 1542q76 0 141.5 -27.5t117 -79t79.5 -118t28 -143.5q0 -76 -28 -142t-79 -118t-119 -80.5t-140 -28.5q-102 0 -186 49.5t-133.5 134t-49.5 185.5q0 77 29 144t79.5 117.5t117 78.5t143.5 28zM412 1315q-60 0 -101 -41t-41 -100q0 -55 42.5 -98.5t97.5 -43.5
q57 0 99 42t42 100q0 39 -19 71.5t-51 51t-69 18.5zM1341 700q101 0 186 -49t134 -133t49 -186t-49 -186.5t-133.5 -133.5t-186.5 -49q-101 0 -185 49.5t-133.5 134t-49.5 185.5q0 102 49 186t134 133t185 49zM1341 473q-40 0 -72 -17t-50.5 -48t-18.5 -68q0 -39 18.5 -73.5
t51 -55.5t71.5 -21q37 0 70 21t52.5 56t19.5 73q0 37 -19 68t-51.5 48t-71.5 17zM457 0l626 1513h209l-626 -1513h-209z" />
    <glyph glyph-name="ampersand" unicode="&#x26;" horiz-adv-x="1393" 
d="M1051 893h301l-260 -457l268 -291l-199 -174l-207 217q-162 -225 -379 -225q-98 0 -190 35.5t-163 101t-110.5 153t-39.5 187.5q0 80 19.5 143t56.5 116.5t90.5 98t117.5 79.5q-37 39 -66.5 82t-45 91t-15.5 101q0 108 49.5 198t138.5 141.5t197 51.5q77 0 148.5 -28
t124 -77t83.5 -118.5t31 -149.5q0 -245 -237 -372l139 -156zM592 985q74 36 112.5 71.5t38.5 98.5q-1 58 -36 90.5t-95 32.5q-54 0 -88.5 -33.5t-34.5 -87.5q0 -23 9 -47t28.5 -50t37.5 -44.5t28 -30.5zM764 395l-236 264q-81 -34 -132.5 -91t-51.5 -140q0 -87 60 -143
t147 -56q128 0 213 166z" />
    <glyph glyph-name="quotesingle" unicode="'" horiz-adv-x="451" 
d="M152 1051v462h155v-462h-155z" />
    <glyph glyph-name="parenleft" unicode="(" horiz-adv-x="778" 
d="M715 25v-287q-78 13 -149.5 60t-128 108.5t-111.5 142.5q-174 266 -174 578q0 296 157 544q77 124 181.5 217t224.5 123v-284q-138 -106 -210.5 -265.5t-72.5 -338.5q0 -112 32.5 -226t96.5 -210t154 -162z" />
    <glyph glyph-name="parenright" unicode=")" horiz-adv-x="778" 
d="M76 1227v284q65 -16 122.5 -49t110 -80.5t94 -99t78.5 -111.5q51 -80 86.5 -170.5t53.5 -184t18 -189.5q0 -309 -168 -568q-49 -76 -109 -141.5t-134 -114.5t-152 -65v287q91 66 154 162t95.5 210t32.5 226q0 182 -72 340t-210 264z" />
    <glyph glyph-name="asterisk" unicode="*" horiz-adv-x="901" 
d="M365 934l-127 61l110 187l-205 -15v142l205 -13l-110 183l124 61l93 -184l94 186l117 -72l-111 -174l205 15v-144l-209 13l115 -172l-115 -74l-96 188z" />
    <glyph glyph-name="asterisk" horiz-adv-x="901" 
d="M365 934l-127 61l110 187l-205 -15v142l205 -13l-110 183l124 61l93 -184l94 186l117 -72l-111 -174l205 15v-144l-209 13l115 -172l-115 -74l-96 188z" />
    <glyph glyph-name="plus" unicode="+" horiz-adv-x="1229" 
d="M502 776v391h237v-391h398v-237h-398v-406h-237v406h-398v237h398z" />
    <glyph glyph-name="comma" unicode="," horiz-adv-x="573" 
d="M147 0l273 469h217v-197h-217v-262q0 -58 -4.5 -91t-20.5 -66t-49 -66q-74 -74 -196 -74v137q118 19 118 115v35h-121z" />
    <glyph glyph-name="hyphen" unicode="-" horiz-adv-x="860" 
d="M152 530v242h567v-242h-567z" />
    <glyph glyph-name="period" unicode="." horiz-adv-x="573" 
d="M147 0l273 469h217v-197h-217v-272h-273z" />
    <glyph glyph-name="slash" unicode="/" horiz-adv-x="942" 
d="M53 -262l662 1775h192l-661 -1775h-193z" />
    <glyph glyph-name="zero" unicode="0" horiz-adv-x="1147" 
d="M1075 1010v-514q0 -114 -27 -204.5t-92 -162.5q-69 -77 -170 -121.5t-206 -44.5q-227 0 -379 148q-55 51 -86 113t-42.5 133.5t-11.5 150.5v502q0 233 117 366q48 54 110 90.5t133.5 56t145.5 19.5q106 0 202 -37t167 -108q76 -74 107.5 -171.5t31.5 -215.5zM334 1006
v-490q0 -144 53 -207q34 -37 82 -58.5t96 -21.5q54 0 103.5 22.5t81.5 61.5q53 65 53 199v504q0 114 -63 187t-175 73q-51 0 -99 -22t-81 -62q-29 -39 -40 -84t-11 -102z" />
    <glyph glyph-name="one" unicode="1" horiz-adv-x="1147" 
d="M504 0v1255h-191v258h463v-1513h-272z" />
    <glyph glyph-name="two" unicode="2" horiz-adv-x="1147" 
d="M86 0v258l522 485q90 84 137.5 152.5t47.5 159.5q0 95 -61 158t-157 63q-112 0 -172.5 -79t-60.5 -206h-272v56q0 132 65.5 246.5t178.5 181.5t245 67q108 0 200.5 -37.5t160 -103.5t106.5 -160t39 -199q0 -171 -119 -325l-190 -201l-289 -258h598v-258h-979z" />
    <glyph glyph-name="three" unicode="3" horiz-adv-x="1147" 
d="M444 725v258h19q98 0 157.5 34t59.5 124q0 63 -41 99t-102 36q-56 0 -89.5 -37t-33.5 -92h-273q0 105 54 196.5t146 145t196 53.5q83 0 158.5 -31t132.5 -85.5t90.5 -129t33.5 -157.5q0 -85 -32 -155.5t-99 -115.5q78 -28 132.5 -89.5t81 -142.5t26.5 -171
q0 -144 -71 -259t-191.5 -179t-263.5 -64q-132 0 -247 65.5t-183.5 176t-73.5 244.5h274q3 -62 37 -112t89 -79t120 -29q100 0 168.5 70t68.5 168q0 68 -27 122t-79 87q-44 30 -93.5 39.5t-117.5 9.5h-27z" />
    <glyph glyph-name="four" unicode="4" horiz-adv-x="1147" 
d="M0 449l696 1064h230v-1030h159v-258h-159v-225h-273v225h-653v224zM653 483v570l-362 -570h362z" />
    <glyph glyph-name="five" unicode="5" horiz-adv-x="1147" 
d="M920 1513v-258h-482l-47 -278q92 43 189 43q105 0 194.5 -43t154 -115.5t100.5 -168t36 -199.5q0 -142 -70 -264.5t-191 -194.5t-261 -72q-129 0 -247.5 66t-192.5 179t-78 241h272q8 -61 40 -111t83 -79.5t112 -29.5q75 0 134.5 35t92 97t32.5 137q0 68 -35 127t-94 94
t-127 35q-57 0 -108.5 -26.5t-90.5 -74.5l-244 68l144 792h684z" />
    <glyph glyph-name="six" unicode="6" horiz-adv-x="1147" 
d="M586 1513h321l-338 -514l76 7q89 0 170.5 -39t142.5 -105q134 -141 134 -360q0 -144 -69 -268t-189.5 -197.5t-264.5 -73.5q-113 0 -208 41t-167 115.5t-111.5 174.5t-39.5 210q0 183 111 350zM565 754q-69 0 -126 -33.5t-90.5 -91.5t-33.5 -131t32 -134.5t90.5 -98
t129.5 -36.5q69 0 127 34.5t91.5 93.5t33.5 128q0 72 -34 134t-92.5 98.5t-127.5 36.5z" />
    <glyph glyph-name="seven" unicode="7" horiz-adv-x="1147" 
d="M174 0l565 1255h-606v258h891v-258l-547 -1255h-303z" />
    <glyph glyph-name="eight" unicode="8" horiz-adv-x="1147" 
d="M287 842q-69 69 -96 128t-27 150q0 115 51 212t143.5 153.5t206.5 56.5q87 0 161.5 -31.5t131 -89.5t87 -134t30.5 -161q0 -89 -28.5 -156.5t-94.5 -127.5q71 -36 121 -94.5t74 -134t24 -160.5q0 -100 -39.5 -188.5t-110.5 -157.5t-162 -106.5t-190 -37.5
q-105 0 -197.5 38t-163 108.5t-108 162.5t-37.5 197q0 78 27.5 154t77.5 133t119 86zM571 1276q-67 0 -113 -45.5t-48 -110.5q2 -67 49 -113t112 -46t111.5 46.5t46.5 112.5q0 65 -45.5 110.5t-112.5 45.5zM567 694q-63 0 -115.5 -30.5t-84 -85t-31.5 -121.5q0 -94 68 -161
t163 -67q96 0 164 67t68 161q0 65 -31.5 120t-84.5 86t-116 31z" />
    <glyph glyph-name="nine" unicode="9" horiz-adv-x="1147" 
d="M227 0l334 508h-51q-136 0 -242 65.5t-164.5 178.5t-58.5 245q0 113 37.5 212t107.5 174t166 117t209 42q69 0 139 -19t132.5 -55.5t109.5 -85.5q144 -151 144 -383q0 -110 -33 -193t-109 -200l-401 -606h-320zM561 1276q-101 0 -172.5 -76.5t-71.5 -177.5q0 -75 32 -135
t89.5 -94.5t130.5 -34.5q68 0 126 36t90 95.5t32 130.5q0 72 -34 130t-92.5 92t-129.5 34z" />
    <glyph glyph-name="colon" unicode=":" horiz-adv-x="573" 
d="M147 0v197h218v-197h-218zM147 680v197h218v-197h-218z" />
    <glyph glyph-name="semicolon" unicode=";" horiz-adv-x="573" 
d="M147 0l273 469h217v-197h-217v-262q0 -58 -4.5 -91t-20.5 -66t-49 -66q-74 -74 -196 -74v137q118 19 118 115v35h-121zM420 952v197h217v-197h-217z" />
    <glyph glyph-name="less" unicode="&#x3c;" horiz-adv-x="1229" 
d="M1143 313v-227l-1043 461v203l1043 464v-227l-742 -342z" />
    <glyph glyph-name="equal" unicode="=" horiz-adv-x="1229" 
d="M1137 969v-236h-1033v236h1033zM1137 569v-235h-1033v235h1033z" />
    <glyph glyph-name="greater" unicode="&#x3e;" horiz-adv-x="1229" 
d="M98 313l742 332l-742 342v227l1043 -464v-203l-1043 -461v227z" />
    <glyph glyph-name="question" unicode="?" horiz-adv-x="1147" 
d="M338 1069h-272q11 184 96 293q64 83 169 131.5t210 48.5q82 0 165.5 -35t143.5 -94q72 -70 107.5 -160.5t35.5 -191.5q0 -106 -55.5 -189.5t-151.5 -166.5q-69 -59 -99 -113t-30 -137v-70h-272v59q0 132 51 240q29 63 63.5 101t98.5 92q63 51 93 92.5t30 103.5
q0 92 -51.5 144.5t-141.5 52.5q-62 0 -102.5 -25.5t-61.5 -71t-26 -104.5zM385 0l272 457h217v-197h-217v-260h-272z" />
    <glyph glyph-name="at" unicode="@" horiz-adv-x="1516" 
d="M1243 291h195q-59 -80 -124.5 -138.5t-145 -101.5t-170.5 -65.5t-183 -22.5q-220 0 -406.5 102t-294.5 283t-108 404q0 218 105.5 400t289.5 286t402 104q139 0 264.5 -43.5t226.5 -132.5q232 -194 232 -465q0 -263 -162 -428q-65 -66 -171 -122t-189 -56q-53 0 -87 28
t-34 80q-90 -98 -213 -98q-105 0 -182 48.5t-117.5 133t-40.5 187.5q0 123 53.5 234t151 178t221.5 67q167 0 256 -123l20 107h197l-103 -609q-6 -36 -6 -45q0 -12 10.5 -21t22.5 -9q33 0 74 29t69 65q25 36 44 84.5t29.5 100.5t10.5 102q0 128 -42.5 232.5t-119 175
t-185.5 109t-236 38.5q-182 0 -327.5 -82.5t-226.5 -228t-81 -326.5q0 -143 51 -261.5t142.5 -202t212.5 -127.5t263 -44q218 0 412 174zM580 707q0 -76 42.5 -129.5t116.5 -53.5q94 0 153.5 69t59.5 163q0 76 -47 127t-123 51q-56 0 -102.5 -33.5t-73 -85.5t-26.5 -108z
" />
    <glyph glyph-name="A" unicode="A" horiz-adv-x="1516" 
d="M14 0l631 1513h219l637 -1513h-309l-164 391h-536l-168 -391h-310zM594 664h324l-162 458z" />
    <glyph glyph-name="B" unicode="B" horiz-adv-x="1188" 
d="M139 0v1513h275h67q108 0 186 -10t150 -47q61 -31 109.5 -84t76 -120.5t27.5 -135.5q0 -92 -43.5 -171.5t-122.5 -117.5q123 -39 190.5 -137t67.5 -229q0 -109 -47 -201.5t-137 -159.5q-81 -59 -179.5 -77.5t-240.5 -22.5h-379zM420 272h117q75 0 129 10.5t102 43.5
q74 49 74 147q0 54 -25.5 91.5t-75.5 64.5q-44 21 -87.5 25.5t-110.5 4.5h-123v-387zM420 932h53q137 0 191 22q40 19 63 57t23 83q0 44 -25.5 80t-69.5 53q-32 16 -98 16q-29 0 -47 -0.5t-39 -1.5h-51v-309z" />
    <glyph glyph-name="C" unicode="C" horiz-adv-x="1597" 
d="M1223 412h325q-55 -133 -165 -236t-250 -158t-287 -55q-158 0 -302 62.5t-252 172.5t-169.5 255t-61.5 305q0 209 106 390.5t285 287.5t386 106q153 0 295.5 -56t253.5 -160.5t169 -244.5h-319q-71 87 -177.5 138t-219.5 51q-137 0 -251 -71.5t-180.5 -191t-66.5 -259.5
q0 -133 68.5 -251.5t184.5 -189.5t247 -71q215 0 381 176z" />
    <glyph glyph-name="D" unicode="D" horiz-adv-x="1434" 
d="M139 0v1513h318q91 0 179 -8t164.5 -25.5t152.5 -53t139 -89.5q122 -102 191 -262.5t69 -324.5q0 -79 -17.5 -160t-51.5 -157t-81.5 -141t-109.5 -118q-123 -105 -273.5 -139.5t-355.5 -34.5h-324zM420 272h35q90 0 161.5 6t142 29.5t130.5 67.5q87 66 134.5 164.5
t47.5 210.5q0 78 -23 153.5t-68.5 139t-109.5 108.5q-86 59 -186 74.5t-244 15.5h-20v-969z" />
    <glyph glyph-name="E" unicode="E" horiz-adv-x="1065" 
d="M139 0v1513h813v-272h-532v-348h510v-272h-510v-349h532v-272h-813z" />
    <glyph glyph-name="F" unicode="F" horiz-adv-x="983" 
d="M139 0v1513h770v-272h-489v-348h467v-272h-467v-621h-281z" />
    <glyph glyph-name="G" unicode="G" horiz-adv-x="1720" 
d="M1599 1069h-335q-45 63 -108.5 107.5t-138 69t-151.5 24.5q-200 0 -350 -131q-51 -45 -90.5 -107.5t-61.5 -134t-22 -139.5q0 -95 39.5 -190t105.5 -162q79 -82 180.5 -126t211.5 -44q133 0 257 75.5t185 196.5h-633v264h987v-33q0 -216 -110 -394t-296 -280t-399 -102
q-162 0 -308.5 59.5t-259.5 166.5t-177 250.5t-64 308.5t63.5 309.5t175.5 253.5t259.5 170t306.5 61q155 0 302.5 -58t261 -165.5t169.5 -249.5z" />
    <glyph glyph-name="H" unicode="H" horiz-adv-x="1393" 
d="M139 0v1513h281v-606h541v606h280v-1513h-280v635h-541v-635h-281z" />
    <glyph glyph-name="I" unicode="I" horiz-adv-x="573" 
d="M139 0v1513h281v-1513h-281z" />
    <glyph glyph-name="J" unicode="J" horiz-adv-x="983" 
d="M567 1513h281v-1067q0 -74 -4.5 -118.5t-20.5 -93t-49 -97.5q-54 -81 -142.5 -127.5t-191.5 -46.5q-110 0 -206.5 48.5t-154.5 136t-61 200.5h281q11 -49 44.5 -76.5t84.5 -27.5q80 0 109.5 48.5t29.5 135.5v1085z" />
    <glyph glyph-name="K" unicode="K" horiz-adv-x="1270" 
d="M139 0v1513h281v-655l471 655h336l-572 -743l572 -770h-336l-471 664v-664h-281z" />
    <glyph glyph-name="L" unicode="L" horiz-adv-x="901" 
d="M139 0v1513h281v-1241h463v-272h-744z" />
    <glyph glyph-name="M" unicode="M" horiz-adv-x="1843" 
d="M139 0v1513h383l406 -1157l411 1157h381v-1513h-280v1135l-391 -1135h-238l-391 1135v-1135h-281z" />
    <glyph glyph-name="N" unicode="N" horiz-adv-x="1516" 
d="M139 0v1513h316l630 -1105v1105h281v-1513h-311l-635 1102v-1102h-281z" />
    <glyph glyph-name="O" unicode="O" horiz-adv-x="1720" 
d="M850 1542q213 0 394.5 -105.5t287.5 -289t106 -397.5q0 -215 -106.5 -396t-287.5 -286t-394 -105q-156 0 -301.5 60.5t-255.5 170t-171 254t-61 302.5q0 214 106 397.5t288 289t395 105.5zM850 1270q-140 0 -256 -69t-184 -187.5t-68 -257.5q0 -101 40 -196.5
t111.5 -168.5t163.5 -114t193 -41q136 0 252.5 71t186 191.5t69.5 257.5q0 139 -68 257.5t-184 187.5t-256 69z" />
    <glyph glyph-name="P" unicode="P" horiz-adv-x="1147" 
d="M420 0h-281v1513h357h53q83 0 136 -4.5t110.5 -22t109.5 -52.5q94 -63 147.5 -165t53.5 -216q0 -74 -20 -145t-62 -134t-98 -108q-49 -39 -112.5 -60t-129 -27t-145.5 -6h-64h-55v-573zM420 846h51q150 0 217 16q63 22 100 72t37 115q0 67 -40.5 115t-104.5 65
q-62 12 -209 12h-51v-395z" />
    <glyph glyph-name="Q" unicode="Q" horiz-adv-x="1720" 
d="M1696 215v-252q-76 0 -149 13.5t-131 38t-113 63.5q-88 -56 -205 -85.5t-230 -29.5q-162 0 -307.5 59t-259 167t-177 251t-63.5 308q0 338 224 559q112 112 262 173.5t311 61.5q163 0 310.5 -59.5t260 -167t176.5 -254t64 -313.5q0 -144 -42.5 -263t-137.5 -229
q74 -41 162 -41h45zM1067 285q-268 198 -492 198q-79 0 -139 -24q57 -78 127 -127t152 -72.5t180 -23.5q41 0 71.5 9.5t100.5 39.5zM342 766l4 -82q90 27 213 27q119 0 225 -27.5t213 -85.5q174 -90 269 -180q41 43 68.5 94t41 109.5t13.5 121.5q0 140 -69.5 262
t-189.5 193.5t-262 71.5q-106 0 -202 -41.5t-174 -120.5q-66 -66 -108 -158t-42 -184z" />
    <glyph glyph-name="R" unicode="R" horiz-adv-x="1188" 
d="M139 0v1513h439q136 -2 226 -21.5t167 -84.5q54 -45 93.5 -104.5t61 -128t21.5 -140.5q0 -83 -34.5 -175t-90.5 -154q-100 -108 -268 -146l409 -559h-346l-393 580h-4v-580h-281zM420 793h153q157 0 224 63q69 66 69 164q0 50 -21 96t-61 74q-41 32 -87.5 41.5
t-121.5 9.5h-155v-448z" />
    <glyph glyph-name="S" unicode="S" horiz-adv-x="1065" 
d="M29 426h293q0 -87 61 -138.5t149 -51.5q52 0 97.5 24.5t72.5 68t27 97.5q0 110 -70 163.5t-194 92.5q-101 34 -157 61.5t-105 77.5q-56 58 -87.5 134.5t-31.5 156.5q0 119 60.5 218.5t163.5 155.5t222 56q88 0 167.5 -32.5t142 -92t98 -139t35.5 -166.5h-289
q-3 70 -52.5 114t-117.5 44t-108.5 -45.5t-40.5 -114.5q0 -75 51.5 -115t138.5 -69q109 -36 173 -63.5t122 -76.5q160 -127 160 -344q0 -99 -38.5 -187.5t-106.5 -153.5t-158 -101.5t-189 -36.5q-127 0 -240.5 61t-181 167t-67.5 235z" />
    <glyph glyph-name="T" unicode="T" horiz-adv-x="860" 
d="M293 0v1241h-279v272h842v-272h-283v-1241h-280z" />
    <glyph glyph-name="U" unicode="U" horiz-adv-x="1311" 
d="M139 1513h281v-944q0 -70 4.5 -113.5t24.5 -90.5q30 -59 83 -94t117 -35q57 0 110 30t81 76t34.5 97t6.5 130v944h280v-944q0 -133 -21 -229.5t-89 -179.5q-51 -61 -115 -104.5t-138 -68t-149 -24.5q-103 0 -209 51.5t-178 132.5q-50 57 -78 125.5t-36.5 135.5t-8.5 161
v944z" />
    <glyph glyph-name="V" unicode="V" horiz-adv-x="1434" 
d="M604 0l-588 1513h295l408 -1151l407 1151h295l-585 -1513h-232z" />
    <glyph glyph-name="W" unicode="W" horiz-adv-x="1843" 
d="M455 0l-441 1513h287l264 -1058l260 1058h205l256 -1058l266 1058h287l-440 -1513h-223l-246 1001l-252 -1001h-223z" />
    <glyph glyph-name="X" unicode="X" horiz-adv-x="1393" 
d="M10 0l522 754l-522 759h328l358 -520l361 520h327l-524 -759l524 -754h-327l-361 516l-358 -516h-328z" />
    <glyph glyph-name="Y" unicode="Y" horiz-adv-x="1270" 
d="M504 0v559l-498 954h309l330 -696l330 696h307l-498 -954v-559h-280z" />
    <glyph glyph-name="Z" unicode="Z" horiz-adv-x="1024" 
d="M37 240l575 1001h-542v272h874v-253l-571 -988h610v-272h-946v240z" />
    <glyph glyph-name="bracketleft" unicode="[" horiz-adv-x="655" 
d="M598 1513v-292q-72 -23 -109 -84.5t-47 -133.5t-10 -163v-465q0 -126 33.5 -218t132.5 -126v-291q-94 4 -181 64t-151 149q-68 96 -91 209.5t-23 259.5v473q0 131 24.5 229t95.5 187q66 84 151 140t175 62z" />
    <glyph glyph-name="backslash" unicode="\" horiz-adv-x="1311" 
d="M817 0l-645 1513h213l645 -1513h-213z" />
    <glyph glyph-name="bracketright" unicode="]" horiz-adv-x="655" 
d="M522 895v-473q0 -90 -8.5 -172t-33.5 -156t-72 -141q-64 -89 -150 -149t-182 -64v291q99 33 132.5 125.5t33.5 218.5v465q0 91 -10 163t-47 133.5t-109 84.5v292q63 -4 122.5 -33t111 -73.5t91.5 -95.5q49 -62 76 -127.5t36 -134t9 -154.5z" />
    <glyph glyph-name="asciicircum" unicode="^" horiz-adv-x="1229" 
d="M342 645l-213 96l369 772h245l369 -772l-213 -96l-278 572z" />
    <glyph glyph-name="underscore" unicode="_" horiz-adv-x="1024" 
d="M1024 -283h-1024v185h1024v-185z" />
    <glyph glyph-name="grave" unicode="`" horiz-adv-x="860" 
d="M152 1511l116 209l455 -276l-109 -189z" />
    <glyph glyph-name="a" unicode="a" horiz-adv-x="1352" 
d="M1260 1135v-1135h-250v154h-4q-62 -87 -169.5 -139t-215.5 -52q-127 0 -234 50t-184 141q-142 170 -142 413q0 76 14.5 148.5t46 135t85.5 124.5q86 100 191.5 148t230.5 48q117 0 215.5 -50t165.5 -146v160h250zM1001 569q0 72 -24 133.5t-67 106.5t-104 70.5t-132 25.5
q-149 0 -244.5 -98.5t-95.5 -249.5q0 -138 99 -233t237 -95q96 0 172 44.5t117.5 122t41.5 173.5z" />
    <glyph glyph-name="b" unicode="b" horiz-adv-x="1352" 
d="M111 0v1513h272v-497h4q54 78 149 116.5t201 38.5q120 0 227 -48.5t183.5 -132.5t118 -194t41.5 -229q0 -104 -39.5 -219t-106.5 -194q-41 -49 -86 -82.5t-97.5 -57.5t-112.5 -37.5t-120 -13.5q-257 0 -380 191h-5v-154h-249zM709 905q-139 0 -240.5 -92.5t-101.5 -230.5
q0 -99 43 -180t120.5 -127t178.5 -46q95 0 169 44t115 122t41 170q0 95 -41 172.5t-115.5 122.5t-168.5 45z" />
    <glyph glyph-name="c" unicode="c" horiz-adv-x="1311" 
d="M924 369h307q-38 -121 -122.5 -212.5t-200.5 -142.5t-240 -51q-115 0 -228 46t-194 124q-92 89 -138.5 203t-46.5 239q0 123 47 231t131 191t194.5 128.5t232.5 45.5q125 0 242 -52t203 -146t120 -215h-307q-88 147 -262 147q-96 0 -170.5 -43.5t-116 -120.5t-41.5 -170
q0 -97 43.5 -175.5t122.5 -122.5t176 -44q49 0 96 17t86.5 48.5t65.5 74.5z" />
    <glyph glyph-name="d" unicode="d" horiz-adv-x="1352" 
d="M1255 1513v-1513h-249v154h-5q-38 -61 -97.5 -104t-131 -65t-147.5 -22q-120 0 -226 51t-184 140q-71 81 -112.5 190t-41.5 219q0 242 154 416q51 57 119 101t144 67.5t155 23.5q64 0 128.5 -17t121 -51.5t100.5 -84.5v495h272zM1001 569q0 71 -26.5 132t-72 106
t-108.5 71.5t-132 26.5q-63 0 -122 -25.5t-106 -72t-73.5 -107.5t-26.5 -125q0 -92 43 -172t119 -127t170 -47q91 0 168.5 46t122 124t44.5 170z" />
    <glyph glyph-name="e" unicode="e" horiz-adv-x="1311" 
d="M1231 446h-881q32 -99 114.5 -158t184.5 -59q76 0 145.5 26.5t108.5 72.5h301q-34 -100 -117.5 -184t-197 -132.5t-230.5 -48.5q-163 0 -300 80t-217.5 218t-80.5 298q0 166 79.5 306.5t218 223t305.5 82.5q120 0 226 -47.5t185.5 -130t124.5 -191.5t45 -227
q0 -29 -14 -129zM346 688h625q-22 66 -69 115.5t-108.5 75.5t-131.5 26q-105 0 -195 -60.5t-121 -156.5z" />
    <glyph glyph-name="f" unicode="f" horiz-adv-x="573" 
d="M117 0v893h-97v242h97q3 84 28 155.5t73 128.5t117.5 90t151.5 33l74 -4v-270q-64 0 -97.5 -8t-52 -36t-22.5 -89h158v-242h-158v-893h-272z" />
    <glyph glyph-name="g" unicode="g" horiz-adv-x="1352" 
d="M1001 1135h250v-963q0 -139 -35 -241t-124 -197q-88 -91 -207 -143t-244 -52q-120 0 -234 46t-201 131.5t-128 197.5h309q45 -48 116.5 -78.5t137.5 -30.5q70 0 137.5 24.5t116.5 70.5q55 51 74.5 104.5t34.5 149.5l-5 4q-150 -195 -362 -195q-71 0 -144.5 22.5
t-142.5 63.5t-119 92q-53 56 -92.5 129.5t-58.5 151.5t-19 162q0 109 40 211.5t112 183.5q81 90 193.5 141t236.5 51q117 0 211.5 -48.5t142.5 -143.5h4v156zM995 563q0 73 -26.5 136.5t-71.5 108.5t-107.5 71t-134.5 26q-134 0 -231 -100q-46 -48 -68 -106t-22 -126
q0 -97 44 -175.5t122.5 -123.5t175.5 -45q67 0 126.5 28t102.5 75t66.5 107t23.5 124z" />
    <glyph glyph-name="h" unicode="h" horiz-adv-x="1229" 
d="M111 0v1513h272v-464q45 60 125.5 91t165.5 31q92 0 183 -41t151 -110q48 -55 72 -119t30 -126t6 -161v-614h-272v555q0 105 -15.5 179t-66.5 122.5t-150 48.5q-121 0 -186 -98q-28 -47 -35.5 -108.5t-7.5 -147.5v-551h-272z" />
    <glyph glyph-name="i" unicode="i" horiz-adv-x="492" 
d="M111 0v1135h272v-1135h-272zM139 1266v196h217v-196h-217z" />
    <glyph glyph-name="j" unicode="j" horiz-adv-x="532" 
d="M147 1135h273v-1065q0 -102 -23 -183t-84 -149q-48 -55 -123 -86t-155 -31v264q72 3 92 46t20 147v1057zM172 1266v196h217v-196h-217z" />
    <glyph glyph-name="k" unicode="k" horiz-adv-x="1188" 
d="M111 0v1513h272v-913l365 535h321l-410 -555l478 -580h-365l-389 530v-530h-272z" />
    <glyph glyph-name="l" unicode="l" horiz-adv-x="492" 
d="M111 0v1513h272v-1513h-272z" />
    <glyph glyph-name="m" unicode="m" horiz-adv-x="1925" 
d="M111 0v1135h249v-105h5q34 72 117.5 106.5t176.5 34.5q91 0 171.5 -37t132.5 -104q12 -12 26 -35q11 21 29 35q58 69 146.5 105t185.5 36q223 0 346 -141q49 -51 74.5 -113.5t33.5 -127t8 -152.5v-637h-272v604q0 73 -7.5 126.5t-33.5 90.5q-18 27 -44.5 45.5t-58.5 28.5
t-67 10q-60 0 -109 -25t-79 -73q-28 -49 -35.5 -113t-7.5 -153v-541h-273v604q0 73 -7.5 121t-35.5 88q-28 44 -75.5 68t-102.5 24q-101 0 -149.5 -54t-60 -126.5t-11.5 -183.5v-541h-272z" />
    <glyph glyph-name="n" unicode="n" horiz-adv-x="1229" 
d="M111 0v1135h251v-105h5q49 68 133 104.5t176 36.5q91 0 177 -37.5t146 -103.5q20 -18 29 -33q60 -83 75 -174t15 -235v-588h-272v535q0 94 -8.5 161t-38.5 115q-27 43 -77 68.5t-104 25.5q-55 0 -108.5 -27t-81.5 -73q-31 -54 -38 -123.5t-7 -167.5v-514h-272z" />
    <glyph glyph-name="o" unicode="o" horiz-adv-x="1311" 
d="M674 1171q124 0 232.5 -47.5t190.5 -131.5t126.5 -193.5t44.5 -233.5q0 -123 -46 -232t-131.5 -194t-196 -130.5t-232.5 -45.5q-161 0 -299.5 81.5t-220 220.5t-81.5 300q0 127 47.5 237.5t131.5 193t195 129t239 46.5zM662 905q-61 0 -125.5 -28t-108.5 -76
q-94 -95 -94 -236q0 -89 43.5 -167.5t119 -123.5t165.5 -45q95 0 171 44.5t119 122.5t43 169t-44 170t-121 124.5t-168 45.5z" />
    <glyph glyph-name="p" unicode="p" horiz-adv-x="1352" 
d="M111 -379v1514h249v-148h5q124 184 364 184q128 0 227.5 -43.5t184.5 -140.5q48 -49 85 -118.5t54.5 -146.5t17.5 -155q0 -119 -41 -228t-119 -194.5t-183.5 -133.5t-225.5 -48q-217 0 -342 160h-4v-502h-272zM700 905q-94 0 -170 -45t-119.5 -123t-43.5 -170
q0 -157 106 -252q46 -40 104 -63t113 -23q94 0 171.5 45.5t121 123.5t43.5 171q0 87 -42.5 165t-117.5 124.5t-166 46.5z" />
    <glyph glyph-name="q" unicode="q" horiz-adv-x="1352" 
d="M1001 1135h250v-1514h-272v502h-4q-123 -160 -342 -160q-163 0 -293.5 85t-204.5 227t-74 303q0 236 166 409q47 53 114 96.5t141 65.5t149 22q117 0 213.5 -45t152.5 -139h4v148zM670 905q-69 0 -132 -25.5t-108.5 -70.5t-70.5 -105.5t-25 -132.5q0 -98 43 -176
t119.5 -122t173.5 -44q90 0 164 46.5t116.5 124t42.5 167.5q0 86 -43 165t-118.5 126t-161.5 47z" />
    <glyph glyph-name="r" unicode="r" horiz-adv-x="655" 
d="M111 0v1135h247v-103h4q46 74 103.5 106.5t140.5 32.5h21v-264q-98 0 -166 -53q-36 -29 -53 -65.5t-21 -75.5t-4 -101v-612h-272z" />
    <glyph glyph-name="s" unicode="s" horiz-adv-x="901" 
d="M829 823h-266q-6 40 -34.5 61t-69.5 21q-46 0 -76.5 -25.5t-30.5 -70.5q0 -26 15 -44.5t37.5 -31t61 -23.5t40.5 -12q115 -34 187.5 -70t119.5 -102t47 -172q0 -160 -115 -272q-56 -53 -136 -86t-158 -33q-113 0 -206.5 49.5t-147 138.5t-58.5 205h278q13 -56 50 -91.5
t94 -35.5q52 0 89.5 29t37.5 80q0 34 -18 57.5t-48.5 40.5t-69.5 30l-57 19q-89 30 -123.5 45t-81.5 54q-110 92 -110 237q0 101 53 181.5t140.5 124.5t189.5 44q93 0 178 -46.5t136.5 -127t51.5 -174.5z" />
    <glyph glyph-name="t" unicode="t" horiz-adv-x="614" 
d="M152 0v893h-134v242h134v378h272v-378h164v-242h-164v-893h-272z" />
    <glyph glyph-name="u" unicode="u" horiz-adv-x="1229" 
d="M848 1135h272v-1135h-250v121h-4q-81 -158 -288 -158q-103 0 -196 39.5t-163 118.5q-48 51 -71.5 108t-30 119.5t-6.5 145.5v641h272v-557q0 -162 35 -232q28 -55 80 -86t114 -31q140 0 188 97.5t48 251.5v557z" />
    <glyph glyph-name="v" unicode="v" horiz-adv-x="1147" 
d="M461 0l-459 1135h303l264 -746l260 746h304l-459 -1135h-213z" />
    <glyph glyph-name="w" unicode="w" horiz-adv-x="1638" 
d="M430 0l-410 1135h289l211 -693l187 693h215l188 -693l209 693h289l-412 -1135h-168l-215 735l-215 -735h-168z" />
    <glyph glyph-name="x" unicode="x" horiz-adv-x="1147" 
d="M2 0l404 586l-353 549h316l198 -312l193 312h317l-350 -549l406 -586h-336l-230 367l-229 -367h-336z" />
    <glyph glyph-name="y" unicode="y" horiz-adv-x="1188" 
d="M219 -379l209 485l-416 1029h310l260 -727l272 727h309l-651 -1514h-293z" />
    <glyph glyph-name="z" unicode="z" horiz-adv-x="942" 
d="M41 0v242l504 651h-447v242h772v-242l-503 -651h538v-242h-864z" />
    <glyph glyph-name="braceleft" unicode="{" horiz-adv-x="696" 
d="M455 367v-392q0 -66 14.5 -111t50 -75t98.5 -49h-63q-73 0 -122.5 9.5t-102.5 43.5q-52 35 -69 88t-17 133v389q0 58 -7.5 91.5t-35.5 66.5q-49 54 -125 70q63 10 108 47q27 21 40.5 49t16.5 56.5t3 74.5v346q0 79 11 137.5t52 100.5q72 69 246 69h65q-90 -25 -126.5 -81
t-36.5 -152v-365q0 -124 -36.5 -190.5t-148.5 -91.5q107 -24 146 -85.5t39 -178.5z" />
    <glyph glyph-name="bar" unicode="|" horiz-adv-x="1229" 
d="M498 0v1513h243v-1513h-243z" />
    <glyph glyph-name="braceright" unicode="}" horiz-adv-x="696" 
d="M242 913v365q0 96 -36.5 152t-127.5 81h65q82 0 143 -13.5t103 -55.5t53 -98t11 -140v-346q0 -69 9.5 -107t51.5 -73q47 -38 107 -47q-76 -16 -123 -70q-31 -37 -38 -68.5t-7 -89.5v-389q0 -79 -16.5 -132.5t-69.5 -88.5q-53 -34 -102 -43.5t-122 -9.5h-65
q96 29 130 82.5t34 152.5v392q0 75 15 127t54.5 85.5t114.5 51.5q-112 25 -148 91.5t-36 190.5z" />
    <glyph glyph-name="asciitilde" unicode="~" horiz-adv-x="1229" 
d="M1006 862l131 -149q-48 -78 -84.5 -125.5t-88.5 -81t-122 -33.5q-45 0 -83.5 11.5t-105.5 37.5l-82 35l-54.5 23.5t-55.5 20t-47 7.5q-64 0 -95 -38.5t-83 -129.5l-132 152q36 67 78.5 123.5t100 93.5t127.5 37q63 0 110.5 -18t164 -67.5t155.5 -49.5q29 0 54 14t45 37.5
t35 48.5z" />
    <glyph glyph-name="Zcaron" horiz-adv-x="1024" 
d="M37 240l575 1001h-542v272h874v-253l-571 -988h610v-272h-946v240zM213 1845h223l84 -98l82 98h221l-223 -211h-160z" />
    <glyph glyph-name="ogonek" horiz-adv-x="696" 
d="M328 0h143l-8 -6l-62.5 -48.5t-42.5 -46.5t-18 -59q0 -42 29.5 -67t74.5 -25q34 0 80 23v-160q-64 -27 -141 -27q-61 0 -114 23t-85 67t-32 105q0 133 176 221z" />
    <glyph glyph-name="caron" horiz-adv-x="1106" 
d="M152 1552h297l112 -131l111 131h297l-299 -282h-215z" />
    <glyph glyph-name="quotesinglbase" unicode="&#x201a;" horiz-adv-x="573" 
d="M143 0l273 469h217v-197h-217v-262q0 -85 -12 -130.5t-62 -92.5q-74 -74 -195 -74v137q117 19 117 115v35h-121z" />
    <glyph glyph-name="florin" unicode="&#x192;" horiz-adv-x="1147" 
d="M748 1198h188l-39 -235h-190l-125 -721q-22 -137 -46 -227t-77 -156q-68 -84 -170.5 -125t-216.5 -41q-58 0 -107 14l41 234l68 -7q80 0 126 29.5t69.5 77t31 86t27.5 160.5l118 676h-192l39 235h196l3 21q15 81 25.5 125.5t34 94t58.5 89.5q134 155 342 155q41 0 60 -6
l-41 -239h-15q-65 0 -114 -39q-40 -32 -59.5 -73.5t-28.5 -96.5z" />
    <glyph glyph-name="quotedblbase" unicode="&#x201e;" horiz-adv-x="983" 
d="M143 0l273 469h217v-197h-217v-262q0 -85 -12 -130.5t-62 -92.5q-74 -74 -197 -74v137q119 19 119 115v35h-121zM840 197l272 469h217v-197h-217v-262q0 -81 -12 -128t-62 -95q-73 -74 -196 -74v137q119 18 119 115v35h-121z" />
    <glyph glyph-name="ellipsis" unicode="&#x2026;" horiz-adv-x="2048" 
d="M205 0v197h217v-197h-217zM887 -76v197h217v-197h-217zM1569 -152v197h217v-197h-217z" />
    <glyph glyph-name="dagger" unicode="&#x2020;" horiz-adv-x="1147" 
d="M705 1513v-380h329v-242h-329v-1153h-273v1153h-334v242h334v380h273z" />
    <glyph glyph-name="daggerdbl" unicode="&#x2021;" horiz-adv-x="1147" 
d="M700 1513v-301h334v-241h-334v-199h334v-242h-334v-792h-272v792h-330v242h330v199h-330v241h330v301h272z" />
    <glyph glyph-name="circumflex" unicode="&#x2c6;" horiz-adv-x="1106" 
d="M152 1270l303 282h215l299 -282h-297l-111 131l-112 -131h-297z" />
    <glyph glyph-name="perthousand" unicode="&#x2030;" horiz-adv-x="2621" 
d="M457 0l626 1513h209l-626 -1513h-209zM412 1542q76 0 141.5 -27.5t117 -79t79.5 -118t28 -143.5q0 -76 -28 -142t-79 -118t-119 -80.5t-140 -28.5q-102 0 -186 49.5t-133.5 134t-49.5 185.5q0 77 29 144t79.5 117.5t117 78.5t143.5 28zM412 1315q-60 0 -101 -41t-41 -100
q0 -55 42.5 -98.5t97.5 -43.5q57 0 99 42t42 100q0 39 -19 71.5t-51 51t-69 18.5zM1341 700q101 0 186 -49t134 -133t49 -186t-49 -186.5t-133.5 -133.5t-186.5 -49q-101 0 -185 49.5t-133.5 134t-49.5 185.5q0 102 49 186t134 133t185 49zM1341 473q-39 0 -71.5 -19
t-51 -51t-18.5 -71q0 -58 41 -100t100 -42q60 0 101 42t41 100q0 39 -18.5 71t-52 51t-71.5 19zM2187 700q101 0 186 -49t134 -133t49 -186t-49 -186.5t-133.5 -133.5t-186.5 -49q-99 0 -184 49.5t-134.5 134t-49.5 185.5q0 102 49.5 186t135 133t183.5 49zM2187 473
q-59 0 -100 -41t-41 -100q0 -58 42 -100t99 -42q61 0 101.5 41.5t40.5 100.5q0 39 -18.5 71t-51.5 51t-72 19z" />
    <glyph glyph-name="Scaron" unicode="&#x160;" horiz-adv-x="1065" 
d="M29 426h293q0 -87 61 -138.5t149 -51.5q52 0 97.5 24.5t72.5 68t27 97.5q0 110 -70 163.5t-194 92.5q-101 34 -157 61.5t-105 77.5q-56 58 -87.5 134.5t-31.5 156.5q0 119 60.5 218.5t163.5 155.5t222 56q88 0 167.5 -32.5t142 -92t98 -139t35.5 -166.5h-289
q-3 70 -52.5 114t-117.5 44t-108.5 -45.5t-40.5 -114.5q0 -75 51.5 -115t138.5 -69q109 -36 173 -63.5t122 -76.5q160 -127 160 -344q0 -99 -38.5 -187.5t-106.5 -153.5t-158 -101.5t-189 -36.5q-127 0 -240.5 61t-181 167t-67.5 235zM240 1849h223l84 -98l82 98h221
l-223 -211h-160z" />
    <glyph glyph-name="guilsinglleft" unicode="&#x2039;" horiz-adv-x="492" 
d="M358 279l-284 268v207l284 266v-252l-137 -117l137 -121v-251z" />
    <glyph glyph-name="OE" unicode="&#x152;" horiz-adv-x="2171" 
d="M2056 0h-727v168h-4q-72 -92 -213 -144.5t-270 -52.5q-156 0 -295.5 61t-246.5 172.5t-164.5 253t-57.5 298.5q0 160 58 303t163 252t245.5 170t299.5 61q86 0 178 -23t173 -68t130 -110h4v172h727v-272h-448v-348h426v-272h-426v-349h448v-272zM850 1264
q-110 0 -200 -40t-156 -111t-101 -164.5t-35 -200.5q0 -136 66 -250t180.5 -181t247.5 -67q134 0 246 68t176.5 183t64.5 249t-63.5 253.5t-175.5 190t-250 70.5z" />
    <glyph glyph-name="Lslash" horiz-adv-x="983" 
d="M225 0v537l-196 -154v276l196 154v700h281v-507l272 213v-277l-272 -211v-459h463v-272h-744z" />
    <glyph glyph-name="ordmasculine" horiz-adv-x="737" 
d="M377 1542q67 0 124 -24t98.5 -66t66 -99t24.5 -126q0 -64 -23 -120t-67 -100.5t-101.5 -69t-121.5 -24.5q-62 0 -118.5 24t-102 69.5t-69.5 102t-24 118.5q0 85 42.5 157.5t114.5 115t157 42.5zM377 1405q-47 0 -86 -24.5t-61.5 -65.5t-22.5 -88q0 -70 49.5 -122
t120.5 -52q75 0 124.5 49.5t49.5 124.5q0 49 -23 89.5t-63 64.5t-88 24zM63 647v129h629v-129h-629z" />
    <glyph glyph-name="fraction" horiz-adv-x="328" 
d="M-248 0l627 1513h194l-626 -1513h-195z" />
    <glyph glyph-name="breve" horiz-adv-x="983" 
d="M152 1548h202q18 -39 55 -60.5t80 -21.5q44 0 82 21.5t54 60.5h202q-10 -90 -56 -153.5t-118.5 -94t-163.5 -30.5q-139 0 -230 71.5t-107 206.5z" />
    <glyph glyph-name="quoteleft" unicode="&#x2018;" horiz-adv-x="573" 
d="M420 1255v-272h-273v262q0 81 13 129t61 94q38 38 88 56t107 18v-137q-117 -18 -117 -115v-35h121z" />
    <glyph glyph-name="quoteright" unicode="&#x2019;" horiz-adv-x="573" 
d="M147 1241l273 469h217v-197h-217v-264q0 -57 -4.5 -89.5t-20.5 -66.5t-49 -67q-75 -72 -196 -72v138q118 18 118 114v35h-121z" />
    <glyph glyph-name="quotedblleft" unicode="&#x201c;" horiz-adv-x="983" 
d="M416 1255v-272h-273v262q0 81 13.5 130t60.5 93q73 74 197 74v-137q-119 -17 -119 -115v-35h121zM840 1255v-272h-273v262q0 81 13 130t61 93q73 74 195 74v-137q-117 -17 -117 -115v-35h121z" />
    <glyph glyph-name="quotedblright" unicode="&#x201d;" horiz-adv-x="983" 
d="M143 1241l273 469h217v-197h-217v-264q0 -83 -12 -128.5t-62 -94.5q-75 -72 -197 -72v138q119 17 119 114v35h-121zM840 1438l272 469h217v-197h-217v-264q0 -57 -4.5 -90t-20 -66t-49.5 -67q-75 -72 -196 -72v137q119 18 119 115v35h-121z" />
    <glyph glyph-name="bullet" unicode="&#x2022;" horiz-adv-x="1229" 
d="M965 651q0 -93 -46.5 -173t-126.5 -126.5t-174 -46.5q-93 0 -172 46.5t-125.5 126.5t-46.5 173q0 95 46 173.5t126 124.5t172 46q93 0 174 -46.5t127 -124.5t46 -173z" />
    <glyph glyph-name="emdash" unicode="&#x2013;" horiz-adv-x="1024" 
d="M0 530v242h1024v-242h-1024z" />
    <glyph glyph-name="endash" unicode="&#x2014;" horiz-adv-x="2048" 
d="M0 530v242h2048v-242h-2048z" />
    <glyph glyph-name="tilde" unicode="&#x2dc;" horiz-adv-x="983" 
d="M252 1278l-100 180q79 76 204 76q55 0 129 -28.5t101 -28.5q77 0 141 57l102 -174q-50 -45 -95 -67.5t-101 -22.5q-31 0 -68 10t-65 19.5t-55.5 16.5t-57.5 7q-74 0 -135 -45z" />
    <glyph glyph-name="trademark" unicode="&#x2122;" horiz-adv-x="2048" 
d="M1903 1513v-827h-181v668l-243 -668h-107l-244 668v-668h-180v827h291l186 -489l187 489h291zM848 1513v-159h-252v-668h-199v668h-252v159h703z" />
    <glyph glyph-name="scaron" unicode="&#x161;" horiz-adv-x="901" 
d="M829 823h-266q-6 40 -34.5 61t-69.5 21q-46 0 -76.5 -25.5t-30.5 -70.5q0 -26 15 -44.5t37.5 -31t61 -23.5t40.5 -12q115 -34 187.5 -70t119.5 -102t47 -172q0 -160 -115 -272q-56 -53 -136 -86t-158 -33q-113 0 -206.5 49.5t-147 138.5t-58.5 205h278q13 -56 50 -91.5
t94 -35.5q52 0 89.5 29t37.5 80q0 34 -18 57.5t-48.5 40.5t-69.5 30l-57 19q-89 30 -123.5 45t-81.5 54q-110 92 -110 237q0 101 53 181.5t140.5 124.5t189.5 44q93 0 178 -46.5t136.5 -127t51.5 -174.5zM154 1489h223l84 -98l82 98h221l-223 -211h-160z" />
    <glyph glyph-name="guilsinglright" unicode="&#x203a;" horiz-adv-x="492" 
d="M150 279v251l139 121l-139 117v252l284 -266v-207z" />
    <glyph glyph-name="oe" unicode="&#x153;" horiz-adv-x="2212" 
d="M2132 446h-877q30 -97 115.5 -157t188.5 -60q62 0 134.5 30t121.5 69h290q-25 -73 -82 -141.5t-132.5 -118.5t-161 -77.5t-175.5 -27.5q-132 0 -255 63.5t-189 172.5q-67 -114 -189.5 -175t-261.5 -61q-121 0 -231.5 47t-192 128.5t-128 192.5t-46.5 232q0 164 79.5 304
t216.5 222t302 82q136 0 256 -61.5t195 -169.5q86 112 193 171.5t243 59.5q163 0 302 -79t218.5 -215.5t79.5 -301.5q0 -36 -12 -118zM662 905q-88 0 -164 -43.5t-120 -118.5t-44 -165q0 -152 88 -244q45 -48 107.5 -76.5t125.5 -28.5q91 0 168.5 45.5t121.5 122t44 168.5
q0 89 -43.5 168.5t-117.5 125.5t-166 46zM1247 688h606q-22 99 -104.5 158t-189.5 59q-75 0 -137.5 -24.5t-106.5 -73.5t-68 -119z" />
    <glyph glyph-name="dotlessi" horiz-adv-x="492" 
d="M111 0v1135h272v-1135h-272z" />
    <glyph glyph-name="dotlessi" unicode="&#x131;" horiz-adv-x="492" 
d="M111 0v1135h272v-1135h-272z" />
    <glyph glyph-name="zcaron" horiz-adv-x="942" 
d="M41 0v242l504 651h-447v242h772v-242l-503 -651h538v-242h-864zM184 1450h224l84 -98l81 98h222l-224 -211h-159z" />
    <glyph glyph-name="Ydieresis" horiz-adv-x="1270" 
d="M504 0v559l-498 954h309l330 -696l330 696h307l-498 -954v-559h-280zM340 1655v196h217v-196h-217zM793 1655v196h217v-196h-217z" />
    <glyph glyph-name="Ydieresis" unicode="&#x178;" horiz-adv-x="1270" 
d="M504 0v559l-498 954h309l330 -696l330 696h307l-498 -954v-559h-280zM340 1655v196h217v-196h-217zM793 1655v196h217v-196h-217z" />
    <glyph glyph-name="fl" unicode="&#xa0;" horiz-adv-x="1065" 
d="M113 0v893h-97v242h97q3 84 29 156t73.5 128.5t117.5 89.5t152 33l74 -4v-264q-95 0 -131.5 -25t-42.5 -114h160v-242h-160v-893h-272zM944 1513v-1513h-272v1513h272z" />
    <glyph glyph-name="exclamdown" unicode="&#xa1;" horiz-adv-x="573" 
d="M147 750h273v-1129h-273v1129zM147 1135h273v-261h-273v261z" />
    <glyph glyph-name="cent" unicode="&#xa2;" horiz-adv-x="1147" 
d="M702 80h-256v223q-104 18 -188 91.5t-131 179t-47 208.5q0 77 27.5 157t77 145t117 110t144.5 59v207h256v-207q66 -16 121.5 -47.5t100.5 -76.5t78.5 -105t44.5 -119h-287q-25 45 -80 70.5t-111 25.5q-62 0 -112 -30.5t-78.5 -82.5t-28.5 -114q0 -96 65 -158.5
t160 -62.5q53 0 92 20.5t81 59.5h299q-107 -272 -345 -330v-223z" />
    <glyph glyph-name="sterling" unicode="&#xa3;" horiz-adv-x="1147" 
d="M82 0v258h285q36 61 36 143q0 68 -29.5 123.5t-84.5 110.5h-289v256h115q-33 73 -33 160q0 129 66.5 243t179.5 181t243 67q207 0 357 -162q51 -54 88 -130.5t37 -141.5h-275q-12 71 -71.5 119.5t-133.5 48.5q-63 0 -113.5 -32t-78 -87.5t-27.5 -116.5q0 -84 56 -149h426
v-256h-222q62 -113 62 -250q0 -70 -21 -127l21 -2q59 0 105.5 26t73 72t26.5 107q0 24 -19 98h271q20 -36 20 -104q0 -63 -20 -129t-56 -122t-86 -95q-77 -64 -160.5 -86.5t-193.5 -22.5h-555z" />
    <glyph glyph-name="currency" unicode="&#xa4;" horiz-adv-x="1147" 
d="M55 465l90 90q-39 72 -57 131.5t-18 130.5q0 75 18.5 139.5t56.5 128.5l-90 89l162 163l90 -90q56 35 128.5 56.5t135.5 21.5q48 0 97 -9.5t95 -27t83 -41.5l90 90l158 -163l-90 -89q77 -122 77 -266q0 -72 -19 -140.5t-58 -123.5l90 -90l-158 -162l-90 90
q-134 -80 -264 -80q-151 0 -275 80l-90 -90zM575 567q71 0 128.5 35t90.5 93t33 124t-33 124t-90.5 93t-128.5 35q-70 0 -127.5 -35t-90.5 -93t-33 -124t33 -124t90.5 -93t127.5 -35z" />
    <glyph glyph-name="yen" unicode="&#xa5;" horiz-adv-x="1147" 
d="M426 0v381h-391v180h391l-115 217h-291v180h195l-287 555h308l329 -698l330 698h311l-288 -555h194v-180h-289l-116 -217h389v-180h-389v-381h-281z" />
    <glyph glyph-name="brokenbar" unicode="&#xa6;" horiz-adv-x="1229" 
d="M498 0v606h243v-606h-243zM498 907v606h243v-606h-243z" />
    <glyph glyph-name="section" unicode="&#xa7;" horiz-adv-x="1147" 
d="M1022 1188h-256q-6 70 -56.5 102.5t-125.5 32.5q-59 0 -99.5 -23t-40.5 -77q0 -35 25 -64.5t49.5 -45.5t75.5 -44l293 -147q44 -23 82 -52.5t61 -64.5q53 -82 53 -180q0 -84 -43 -160t-114 -127q55 -55 77.5 -113.5t22.5 -138.5q0 -89 -36 -158.5t-97.5 -117.5
t-140 -73.5t-164.5 -25.5q-126 0 -233.5 53.5t-171 152.5t-64.5 226h270q0 -89 58.5 -135.5t144.5 -46.5q66 0 122 33t56 92q0 61 -38.5 90.5t-127.5 75.5l-297 156q-74 39 -124 85t-75.5 107t-25.5 141q0 192 166 299q-60 91 -60 193q0 109 58.5 186.5t153 115.5t202.5 38
q89 0 164 -26t130.5 -76t87.5 -120.5t38 -162.5zM463 618l291 -149q39 24 61.5 59t22.5 74q0 49 -39 77.5t-105 59.5l-288 150q-33 -23 -60 -60.5t-27 -72.5q0 -45 34 -70t110 -68z" />
    <glyph glyph-name="dieresis" unicode="&#xa8;" horiz-adv-x="1024" 
d="M152 1270v196h217v-196h-217zM602 1276v197h217v-197h-217z" />
    <glyph glyph-name="copyright" unicode="&#xa9;" horiz-adv-x="1516" 
d="M766 -37q-214 0 -396.5 106t-288.5 288t-106 397q0 213 106 394.5t288.5 287.5t396.5 106q212 0 394 -106t288 -287.5t106 -394.5q0 -215 -106 -397.5t-288 -288t-394 -105.5zM766 111q171 0 319 86t235 234t87 323q0 174 -87 321.5t-235 233.5t-319 86
q-174 0 -322.5 -86t-234.5 -234t-86 -321q0 -174 86 -322.5t234.5 -234.5t322.5 -86zM989 610h178q-10 -92 -62 -161t-132.5 -106.5t-171.5 -37.5q-130 0 -229.5 59.5t-154.5 163t-55 232.5q0 130 52.5 233.5t150.5 162t230 58.5q146 0 247 -79.5t125 -219.5h-178
q-13 74 -66.5 115t-129.5 41q-120 0 -186 -90.5t-66 -214.5q0 -79 30.5 -152.5t90 -119t139.5 -45.5q46 0 88.5 20.5t69.5 57t30 83.5z" />
    <glyph glyph-name="ordfeminine" unicode="&#xaa;" horiz-adv-x="737" 
d="M700 1524v-611h-135v84h-4q-32 -49 -89.5 -75.5t-121.5 -26.5q-129 0 -211 95.5t-82 228.5q0 136 85.5 229.5t219.5 93.5q63 0 114.5 -27t84.5 -77h4v86h135zM387 1036q77 0 125.5 52.5t48.5 130.5t-49.5 130t-126.5 52q-81 0 -131.5 -53.5t-50.5 -135.5q0 -76 54 -126
t130 -50zM63 647v129h637v-129h-637z" />
    <glyph glyph-name="guillemotleft" unicode="&#xab;" horiz-adv-x="942" 
d="M795 279l-285 268v207l285 266v-252l-138 -117l138 -121v-251zM358 279l-284 268v207l284 266v-252l-137 -117l137 -121v-251z" />
    <glyph glyph-name="logicalnot" unicode="&#xac;" horiz-adv-x="1229" 
d="M895 373v354h-791v242h1033v-596h-242z" />
    <glyph glyph-name="minus" unicode="&#xad;" horiz-adv-x="1229" 
d="M104 532v238h1033v-238h-1033z" />
    <glyph glyph-name="registered" unicode="&#xae;" horiz-adv-x="1516" 
d="M766 -37q-214 0 -396.5 106t-288.5 288t-106 397q0 213 106 394.5t288.5 287.5t396.5 106q212 0 394 -106t288 -287.5t106 -394.5q0 -215 -106 -397.5t-288 -288t-394 -105.5zM766 111q172 0 320 86t234.5 234.5t86.5 322.5q0 173 -86.5 321t-234.5 234t-320 86
q-174 0 -322.5 -86t-234.5 -234t-86 -321q0 -174 86 -322.5t234.5 -234.5t322.5 -86zM950 684l207 -360h-192l-191 360h-168v-360h-166v852h412q79 0 134 -7.5t97 -33.5q101 -69 101 -222q0 -113 -58.5 -167t-175.5 -62zM606 811h252q78 0 118 26.5t40 100.5q0 75 -55.5 95
t-147.5 20h-207v-242z" />
    <glyph glyph-name="macron" unicode="&#xaf;" horiz-adv-x="860" 
d="M152 1270v225h567v-225h-567z" />
    <glyph glyph-name="ring" unicode="&#xb0;" horiz-adv-x="737" 
d="M362 1692q59 0 107 -28.5t76 -76.5t28 -106q0 -89 -62 -150t-149 -61q-86 0 -148 62t-62 149t62 149t148 62zM362 1405q33 0 54.5 22.5t21.5 53.5q0 30 -21.5 52.5t-54.5 22.5q-31 0 -53 -23t-22 -52t22.5 -52.5t52.5 -23.5z" />
    <glyph glyph-name="plusminus" unicode="&#xb1;" horiz-adv-x="1229" 
d="M502 887v280h237v-280h398v-238h-398v-293h-237v293h-398v238h398zM104 0v238h1033v-238h-1033z" />
    <glyph glyph-name="twosuperior" unicode="&#xb2;" horiz-adv-x="688" 
d="M31 606v156l340 291q57 49 87.5 90t30.5 96q0 58 -39.5 95.5t-101.5 37.5q-72 0 -111.5 -47.5t-39.5 -124.5h-177v35q0 80 42.5 148t116 108.5t159.5 40.5q93 0 168 -39t118.5 -109t43.5 -153q0 -99 -78 -195l-123 -121l-188 -153h389v-156h-637z" />
    <glyph glyph-name="threesuperior" unicode="&#xb3;" horiz-adv-x="688" 
d="M276 1042v156h13q63 0 102 20t39 74q0 25 -11.5 42.5t-32 27.5t-48.5 10q-36 0 -58 -21t-22 -55h-178q0 62 35 117.5t95 87t128 31.5q69 0 132 -32.5t100.5 -87.5t37.5 -122q0 -52 -21 -93t-65 -69q77 -24 116.5 -91t39.5 -150q0 -86 -46 -155t-125.5 -107.5
t-170.5 -38.5q-87 0 -160.5 38.5t-119 106t-48.5 146.5h178q3 -56 50 -94t110 -38q64 0 110 42t46 100q0 80 -70 127q-50 28 -137 28h-19z" />
    <glyph glyph-name="acute" unicode="&#xb4;" horiz-adv-x="860" 
d="M254 1255l-102 189l460 272l109 -213z" />
    <glyph glyph-name="mu" unicode="&#xb5;" horiz-adv-x="1180" 
d="M1120 0h-250v121h-4q-81 -158 -288 -158q-107 0 -195 39v-381h-272v1514h272v-557q0 -162 35 -232q28 -55 80 -86t114 -31q140 0 188 97.5t48 251.5v557h272v-1135z" />
    <glyph glyph-name="paragraph" unicode="&#xb6;" horiz-adv-x="1229" 
d="M700 1294v-1556h-204v938q-116 0 -212 56.5t-152 153t-56 208.5q0 192 143 317q78 66 151.5 83t198.5 17h510v-1773h-211v1556h-168z" />
    <glyph glyph-name="periodcentered" unicode="&#xb7;" horiz-adv-x="573" 
d="M147 514l273 469h217v-197h-217v-272h-273z" />
    <glyph glyph-name="periodcentered" unicode="&#x2219;" horiz-adv-x="573" 
d="M147 514l273 469h217v-197h-217v-272h-273z" />
    <glyph glyph-name="cedilla" unicode="&#xb8;" horiz-adv-x="696" 
d="M223 0h109l-41 -117q17 4 37 7.5t30 3.5q72 0 136 -60q59 -56 59 -147q0 -86 -59.5 -143.5t-145.5 -57.5q-72 0 -132.5 49t-63.5 119h102q6 -29 35.5 -47.5t62.5 -18.5q39 0 65.5 30.5t26.5 70.5q0 44 -28 73t-72 29q-61 0 -88 -55l-104 26z" />
    <glyph glyph-name="onesuperior" unicode="&#xb9;" horiz-adv-x="688" 
d="M315 606v752h-122v155h301v-907h-179z" />
    <glyph glyph-name="degree" unicode="&#xba;" horiz-adv-x="819" 
d="M717 1206q0 -83 -41.5 -153.5t-112.5 -112t-153 -41.5q-128 0 -218 90t-90 217q0 82 41 152.5t112.5 112.5t154.5 42q61 0 117.5 -23.5t99.5 -66.5t66.5 -99.5t23.5 -117.5zM594 1206q0 77 -54 131t-132 54q-76 0 -129.5 -54.5t-53.5 -130.5t54 -130t131 -54q74 0 129 54
t55 130z" />
    <glyph glyph-name="guillemotright" unicode="&#xbb;" horiz-adv-x="942" 
d="M150 279v251l139 121l-139 117v252l284 -266v-207zM586 279v251l139 121l-139 117v252l284 -266v-207z" />
    <glyph glyph-name="onequarter" unicode="&#xbc;" horiz-adv-x="1720" 
d="M461 0l626 1513h195l-627 -1513h-194zM315 606v752h-122v155h301v-907h-179zM1432 0v135h-424v133l452 639h148v-616h104v-156h-104v-135h-176zM1432 291v340l-236 -340h236z" />
    <glyph glyph-name="onehalf" unicode="&#xbd;" horiz-adv-x="1720" 
d="M420 0l627 1513h194l-627 -1513h-194zM315 606v752h-122v155h301v-907h-179zM1063 0v156l340 290q57 49 88 90.5t31 96.5q0 58 -39.5 95.5t-102.5 37.5q-72 0 -111.5 -47.5t-39.5 -124.5h-176v35q0 80 42 148t115.5 108.5t159.5 40.5q93 0 168 -39t118.5 -109t43.5 -153
q0 -100 -78 -195l-123 -121l-188 -153h389v-156h-637z" />
    <glyph glyph-name="threequarters" unicode="&#xbe;" horiz-adv-x="1720" 
d="M502 0l626 1513h195l-627 -1513h-194zM276 1042v156h13q63 0 102 20t39 74q0 25 -11.5 42.5t-32 27.5t-48.5 10q-36 0 -58 -21t-22 -55h-178q0 62 35 117.5t95 87t128 31.5q69 0 132 -32.5t100.5 -87.5t37.5 -122q0 -52 -21 -93t-65 -69q77 -24 116.5 -91t39.5 -150
q0 -86 -46 -155t-125.5 -107.5t-170.5 -38.5q-87 0 -160.5 38.5t-119 106t-48.5 146.5h178q3 -56 50 -94t110 -38q64 0 110 42t46 100q0 80 -70 127q-50 28 -137 28h-19zM1432 0v135h-424v133l452 639h148v-616h104v-156h-104v-135h-176zM1432 291v340l-236 -340h236z" />
    <glyph glyph-name="questiondown" unicode="&#xbf;" horiz-adv-x="1147" 
d="M477 750h273v-60q0 -131 -52 -239q-27 -61 -60.5 -98.5t-100.5 -94.5q-60 -47 -91.5 -91t-31.5 -108q0 -88 51 -141t141 -53q89 0 137 55t54 146h272q-15 -188 -98 -293q-64 -83 -168.5 -132t-208.5 -49q-53 0 -110 15.5t-108.5 45.5t-90.5 68q-144 138 -144 353
q0 70 27.5 133t71 114t108.5 109q68 60 98.5 113t30.5 137v70zM750 1135v-261h-273v261h273z" />
    <glyph glyph-name="Agrave" unicode="&#xc0;" horiz-adv-x="1516" 
d="M14 0l631 1513h219l637 -1513h-309l-164 391h-536l-168 -391h-310zM594 664h324l-162 458zM502 1806l86 158l340 -207l-80 -141z" />
    <glyph glyph-name="Aacute" unicode="&#xc1;" horiz-adv-x="1516" 
d="M14 0l631 1513h219l637 -1513h-309l-164 391h-536l-168 -391h-310zM594 664h324l-162 458zM637 1628l-74 141l344 203l80 -160z" />
    <glyph glyph-name="Acircumflex" unicode="&#xc2;" horiz-adv-x="1516" 
d="M14 0l631 1513h219l637 -1513h-309l-164 391h-536l-168 -391h-310zM594 664h324l-162 458zM457 1616l225 211h160l223 -211h-221l-82 98l-84 -98h-221z" />
    <glyph glyph-name="Atilde" unicode="&#xc3;" horiz-adv-x="1516" 
d="M14 0l631 1513h219l637 -1513h-309l-164 391h-536l-168 -391h-310zM594 664h324l-162 458zM584 1622l-76 135q58 55 151 55q40 0 96.5 -21.5t73.5 -21.5q55 0 105 41l76 -129q-72 -65 -146 -65q-30 0 -60.5 10l-61 19.5t-58.5 9.5q-54 0 -100 -33z" />
    <glyph glyph-name="Adieresis" unicode="&#xc4;" horiz-adv-x="1516" 
d="M14 0l631 1513h219l637 -1513h-309l-164 391h-536l-168 -391h-310zM594 664h324l-162 458zM416 1626v197h217v-197h-217zM868 1626v197h217v-197h-217z" />
    <glyph glyph-name="Aring" unicode="&#xc5;" horiz-adv-x="1516" 
d="M14 0l631 1513h219l637 -1513h-309l-164 391h-536l-168 -391h-310zM594 664h324l-162 458zM764 1954q36 0 65.5 -12.5t52.5 -35.5t35.5 -52.5t12.5 -65.5q0 -69 -48.5 -117.5t-117.5 -48.5q-68 0 -117 49t-49 117q0 69 48.5 117.5t117.5 48.5zM764 1724v2q25 0 42 16
t17 42q0 25 -17 42t-42 17t-42 -18t-17 -41t17.5 -41.5t41.5 -18.5z" />
    <glyph glyph-name="AE" unicode="&#xc6;" horiz-adv-x="1843" 
d="M35 0l999 1513h692v-272h-448v-348h426v-272h-426v-349h448v-272h-729v391h-401l-236 -391h-325zM762 664h235v389h-4z" />
    <glyph glyph-name="Ccedilla" unicode="&#xc7;" horiz-adv-x="1597" 
d="M1223 412h325q-55 -133 -165 -236t-250 -158t-287 -55q-158 0 -302 62.5t-252 172.5t-169.5 255t-61.5 305q0 209 106 390.5t285 287.5t386 106q153 0 295.5 -56t253.5 -160.5t169 -244.5h-319q-71 87 -177.5 138t-219.5 51q-137 0 -251 -71.5t-180.5 -191t-66.5 -259.5
q0 -133 68.5 -251.5t184.5 -189.5t247 -71q215 0 381 176zM668 -18l88 -2l-33 -93q12 2 24.5 4.5t24.5 2.5q55 0 105 -46q47 -44 47 -116q0 -67 -47.5 -113.5t-114.5 -46.5q-57 0 -106 39.5t-50 93.5h82q4 -23 29 -37t49 -14q31 0 51.5 25.5t20.5 54.5q0 18 -5 32t-17 26
t-25 17t-31 5q-46 0 -68 -41l-82 20z" />
    <glyph glyph-name="Egrave" unicode="&#xc8;" horiz-adv-x="1065" 
d="M139 0v1513h813v-272h-532v-348h510v-272h-510v-349h532v-272h-813zM330 1827l86 158l340 -207l-80 -142z" />
    <glyph glyph-name="Eacute" unicode="&#xc9;" horiz-adv-x="1065" 
d="M139 0v1513h813v-272h-532v-348h510v-272h-510v-349h532v-272h-813zM475 1618l-74 141l344 203l80 -160z" />
    <glyph glyph-name="Ecircumflex" unicode="&#xca;" horiz-adv-x="1065" 
d="M139 0v1513h813v-272h-532v-348h510v-272h-510v-349h532v-272h-813zM231 1616l226 211h159l224 -211h-222l-81 98l-84 -98h-222z" />
    <glyph glyph-name="Edieresis" unicode="&#xcb;" horiz-adv-x="1065" 
d="M139 0v1513h813v-272h-532v-348h510v-272h-510v-349h532v-272h-813zM211 1636v197h217v-197h-217zM664 1636v197h217v-197h-217z" />
    <glyph glyph-name="Igrave" unicode="&#xcc;" horiz-adv-x="573" 
d="M139 0v1513h281v-1513h-281zM53 1847l86 158l340 -207l-80 -141z" />
    <glyph glyph-name="Iacute" unicode="&#xcd;" horiz-adv-x="573" 
d="M139 0v1513h281v-1513h-281zM168 1638l-74 142l344 202l80 -159z" />
    <glyph glyph-name="Icircumflex" unicode="&#xce;" horiz-adv-x="573" 
d="M139 0v1513h281v-1513h-281zM-25 1647l226 211h159l224 -211h-222l-81 98l-84 -98h-222z" />
    <glyph glyph-name="Idieresis" unicode="&#xcf;" horiz-adv-x="573" 
d="M139 0v1513h281v-1513h-281zM-55 1657v196h217v-196h-217zM397 1657v196h217v-196h-217z" />
    <glyph glyph-name="Eth" unicode="&#xd0;" horiz-adv-x="1520" 
d="M549 0h-324v655h-196v217h196v641h318q91 0 179 -8t164.5 -25.5t152.5 -53t139 -89.5q122 -102 191 -262.5t69 -324.5q0 -79 -17.5 -160t-51.5 -157t-81.5 -141t-109.5 -118q-123 -105 -273.5 -139.5t-355.5 -34.5zM743 872v-217h-237v-383h35q90 0 161.5 6t142 29.5
t130.5 67.5q87 66 134.5 164.5t47.5 210.5q0 78 -23 153.5t-68.5 139t-109.5 108.5q-86 59 -186 74.5t-244 15.5h-20v-369h237z" />
    <glyph glyph-name="Ntilde" unicode="&#xd1;" horiz-adv-x="1516" 
d="M139 0v1513h316l630 -1105v1105h281v-1513h-311l-635 1102v-1102h-281zM608 1634l-76 135q59 56 152 56q40 0 96.5 -21.5t73.5 -21.5q58 0 104 41l76 -129q-35 -32 -70 -49t-75 -17q-30 0 -61 10l-61.5 19.5t-57.5 9.5q-55 0 -101 -33z" />
    <glyph glyph-name="Ograve" unicode="&#xd2;" horiz-adv-x="1720" 
d="M850 1542q213 0 394.5 -105.5t287.5 -289t106 -397.5q0 -215 -106.5 -396t-287.5 -286t-394 -105q-156 0 -301.5 60.5t-255.5 170t-171 254t-61 302.5q0 214 106 397.5t288 289t395 105.5zM850 1270q-140 0 -256 -69t-184 -187.5t-68 -257.5q0 -101 40 -196.5
t111.5 -168.5t163.5 -114t193 -41q136 0 252.5 71t186 191.5t69.5 257.5q0 139 -68 257.5t-184 187.5t-256 69zM666 1835l86 158l340 -207l-80 -141z" />
    <glyph glyph-name="Oacute" unicode="&#xd3;" horiz-adv-x="1720" 
d="M850 1542q213 0 394.5 -105.5t287.5 -289t106 -397.5q0 -215 -106.5 -396t-287.5 -286t-394 -105q-156 0 -301.5 60.5t-255.5 170t-171 254t-61 302.5q0 214 106 397.5t288 289t395 105.5zM850 1270q-140 0 -256 -69t-184 -187.5t-68 -257.5q0 -101 40 -196.5
t111.5 -168.5t163.5 -114t193 -41q136 0 252.5 71t186 191.5t69.5 257.5q0 139 -68 257.5t-184 187.5t-256 69zM770 1647l-74 141l344 203l80 -160z" />
    <glyph glyph-name="Ocircumflex" unicode="&#xd4;" horiz-adv-x="1720" 
d="M850 1542q213 0 394.5 -105.5t287.5 -289t106 -397.5q0 -215 -106.5 -396t-287.5 -286t-394 -105q-156 0 -301.5 60.5t-255.5 170t-171 254t-61 302.5q0 214 106 397.5t288 289t395 105.5zM850 1270q-140 0 -256 -69t-184 -187.5t-68 -257.5q0 -101 40 -196.5
t111.5 -168.5t163.5 -114t193 -41q136 0 252.5 71t186 191.5t69.5 257.5q0 139 -68 257.5t-184 187.5t-256 69zM543 1618l225 211h160l223 -211h-221l-82 98l-84 -98h-221z" />
    <glyph glyph-name="Otilde" unicode="&#xd5;" horiz-adv-x="1720" 
d="M850 1542q213 0 394.5 -105.5t287.5 -289t106 -397.5q0 -215 -106.5 -396t-287.5 -286t-394 -105q-156 0 -301.5 60.5t-255.5 170t-171 254t-61 302.5q0 214 106 397.5t288 289t395 105.5zM850 1270q-140 0 -256 -69t-184 -187.5t-68 -257.5q0 -101 40 -196.5
t111.5 -168.5t163.5 -114t193 -41q136 0 252.5 71t186 191.5t69.5 257.5q0 139 -68 257.5t-184 187.5t-256 69zM676 1651l-76 135q58 55 152 55q38 0 94.5 -21.5t75.5 -21.5q54 0 104 41l76 -129q-72 -65 -146 -65q-30 0 -60.5 9.5l-61 19t-58.5 9.5q-54 0 -100 -32z" />
    <glyph glyph-name="Odieresis" unicode="&#xd6;" horiz-adv-x="1720" 
d="M850 1542q213 0 394.5 -105.5t287.5 -289t106 -397.5q0 -215 -106.5 -396t-287.5 -286t-394 -105q-156 0 -301.5 60.5t-255.5 170t-171 254t-61 302.5q0 214 106 397.5t288 289t395 105.5zM850 1270q-140 0 -256 -69t-184 -187.5t-68 -257.5q0 -101 40 -196.5
t111.5 -168.5t163.5 -114t193 -41q136 0 252.5 71t186 191.5t69.5 257.5q0 139 -68 257.5t-184 187.5t-256 69zM502 1628v197h217v-197h-217zM954 1628v197h217v-197h-217z" />
    <glyph glyph-name="multiply" unicode="&#xd7;" horiz-adv-x="1229" 
d="M453 651l-349 348l168 168l349 -348l348 348l168 -168l-349 -348l349 -348l-168 -168l-348 348l-349 -348l-168 168z" />
    <glyph glyph-name="Oslash" unicode="&#xd8;" horiz-adv-x="1720" 
d="M1313 1665l223 -154l-131 -190q76 -74 129.5 -167.5t82 -198t28.5 -212.5q0 -151 -63.5 -295.5t-172.5 -252.5q-71 -72 -163 -125.5t-191.5 -80t-204.5 -26.5q-82 0 -152 17t-166 53l-122 -176l-226 153l123 176q-76 71 -131.5 161.5t-85 190t-29.5 205.5
q0 166 60.5 311.5t171 256t258.5 171t313 60.5q54 0 107 -7.5t101.5 -22t113.5 -39.5zM467 424l547 805q-90 39 -150 41q-227 0 -377 -162q-68 -71 -106.5 -163.5t-38.5 -188.5q0 -168 125 -332zM1243 1079l-549 -807q77 -36 146 -36q101 0 195 39.5t169 111.5
q74 70 117 165t43 191q0 93 -31 182t-90 154z" />
    <glyph glyph-name="Ugrave" unicode="&#xd9;" horiz-adv-x="1311" 
d="M139 1513h281v-944q0 -70 4.5 -113.5t24.5 -90.5q30 -59 83 -94t117 -35q57 0 110 30t81 76t34.5 97t6.5 130v944h280v-944q0 -133 -21 -229.5t-89 -179.5q-51 -61 -115 -104.5t-138 -68t-149 -24.5q-103 0 -209 51.5t-178 132.5q-50 57 -78 125.5t-36.5 135.5t-8.5 161
v944zM455 1817l86 157l340 -207l-80 -141z" />
    <glyph glyph-name="Uacute" unicode="&#xda;" horiz-adv-x="1311" 
d="M139 1513h281v-944q0 -70 4.5 -113.5t24.5 -90.5q30 -59 83 -94t117 -35q57 0 110 30t81 76t34.5 97t6.5 130v944h280v-944q0 -133 -21 -229.5t-89 -179.5q-51 -61 -115 -104.5t-138 -68t-149 -24.5q-103 0 -209 51.5t-178 132.5q-50 57 -78 125.5t-36.5 135.5t-8.5 161
v944zM610 1638l-73 142l344 202l80 -159z" />
    <glyph glyph-name="Ucircumflex" unicode="&#xdb;" horiz-adv-x="1311" 
d="M139 1513h281v-944q0 -70 4.5 -113.5t24.5 -90.5q30 -59 83 -94t117 -35q57 0 110 30t81 76t34.5 97t6.5 130v944h280v-944q0 -133 -21 -229.5t-89 -179.5q-51 -61 -115 -104.5t-138 -68t-149 -24.5q-103 0 -209 51.5t-178 132.5q-50 57 -78 125.5t-36.5 135.5t-8.5 161
v944zM369 1647l225 211h160l223 -211h-221l-82 98l-84 -98h-221z" />
    <glyph glyph-name="Udieresis" unicode="&#xdc;" horiz-adv-x="1311" 
d="M139 1513h281v-944q0 -70 4.5 -113.5t24.5 -90.5q30 -59 83 -94t117 -35q57 0 110 30t81 76t34.5 97t6.5 130v944h280v-944q0 -133 -21 -229.5t-89 -179.5q-51 -61 -115 -104.5t-138 -68t-149 -24.5q-103 0 -209 51.5t-178 132.5q-50 57 -78 125.5t-36.5 135.5t-8.5 161
v944zM348 1626v197h217v-197h-217zM801 1626v197h217v-197h-217z" />
    <glyph glyph-name="Yacute" unicode="&#xdd;" horiz-adv-x="1270" 
d="M504 0v559l-498 954h309l330 -696l330 696h307l-498 -954v-559h-280zM604 1618l-74 141l344 203l80 -160z" />
    <glyph glyph-name="Thorn" unicode="&#xde;" horiz-adv-x="1147" 
d="M420 0h-281v1513h281v-286h76h53q83 0 137 -5t108.5 -21t110.5 -54q94 -63 147.5 -165t53.5 -216q0 -74 -20 -145t-62 -134t-98 -108q-49 -39 -112 -59.5t-129 -26.5t-146 -6h-64h-55v-287zM420 559h51q150 0 217 16q63 22 100 72t37 115q0 69 -40.5 116t-104.5 64
q-62 12 -209 12h-51v-395z" />
    <glyph glyph-name="germandbls" unicode="&#xdf;" horiz-adv-x="1229" 
d="M104 0v973q0 122 19 214t76 171q63 87 158.5 135.5t201.5 48.5q122 0 224.5 -55.5t161.5 -155t59 -221.5q0 -82 -34.5 -160t-101.5 -110v-4q97 -19 172 -74t115.5 -137.5t40.5 -182.5q0 -140 -62 -248.5t-173.5 -169.5t-247.5 -61q-263 0 -355 227h-4v-190h-250zM377 389
h174q12 -68 66 -114t122 -46q82 0 133.5 56t51.5 141q0 69 -37.5 120.5t-102.5 76.5q-48 16 -106 20t-141 4h-11v242h15q87 0 138.5 58.5t51.5 146.5q0 80 -45.5 131t-126.5 51q-111 0 -146.5 -72.5t-35.5 -197.5v-617z" />
    <glyph glyph-name="agrave" unicode="&#xe0;" horiz-adv-x="1352" 
d="M1260 1135v-1135h-250v154h-4q-62 -87 -169.5 -139t-215.5 -52q-127 0 -234 50t-184 141q-142 170 -142 413q0 76 14.5 148.5t46 135t85.5 124.5q86 100 191.5 148t230.5 48q117 0 215.5 -50t165.5 -146v160h250zM1001 569q0 72 -24 133.5t-67 106.5t-104 70.5t-132 25.5
q-149 0 -244.5 -98.5t-95.5 -249.5q0 -138 99 -233t237 -95q96 0 172 44.5t117.5 122t41.5 173.5zM526 1464l86 158l340 -207l-80 -141z" />
    <glyph glyph-name="aacute" unicode="&#xe1;" horiz-adv-x="1352" 
d="M1260 1135v-1135h-250v154h-4q-62 -87 -169.5 -139t-215.5 -52q-127 0 -234 50t-184 141q-142 170 -142 413q0 76 14.5 148.5t46 135t85.5 124.5q86 100 191.5 148t230.5 48q117 0 215.5 -50t165.5 -146v160h250zM1001 569q0 72 -24 133.5t-67 106.5t-104 70.5t-132 25.5
q-149 0 -244.5 -98.5t-95.5 -249.5q0 -138 99 -233t237 -95q96 0 172 44.5t117.5 122t41.5 173.5zM662 1296l-74 142l344 202l80 -159z" />
    <glyph glyph-name="acircumflex" unicode="&#xe2;" horiz-adv-x="1352" 
d="M1260 1135v-1135h-250v154h-4q-62 -87 -169.5 -139t-215.5 -52q-127 0 -234 50t-184 141q-142 170 -142 413q0 76 14.5 148.5t46 135t85.5 124.5q86 100 191.5 148t230.5 48q117 0 215.5 -50t165.5 -146v160h250zM1001 569q0 72 -24 133.5t-67 106.5t-104 70.5t-132 25.5
q-149 0 -244.5 -98.5t-95.5 -249.5q0 -138 99 -233t237 -95q96 0 172 44.5t117.5 122t41.5 173.5zM397 1276l226 211h159l224 -211h-222l-82 98l-84 -98h-221z" />
    <glyph glyph-name="atilde" unicode="&#xe3;" horiz-adv-x="1352" 
d="M1260 1135v-1135h-250v154h-4q-62 -87 -169.5 -139t-215.5 -52q-127 0 -234 50t-184 141q-142 170 -142 413q0 76 14.5 148.5t46 135t85.5 124.5q86 100 191.5 148t230.5 48q117 0 215.5 -50t165.5 -146v160h250zM1001 569q0 72 -24 133.5t-67 106.5t-104 70.5t-132 25.5
q-149 0 -244.5 -98.5t-95.5 -249.5q0 -138 99 -233t237 -95q96 0 172 44.5t117.5 122t41.5 173.5zM485 1280l-75 135q58 55 151 55q40 0 96.5 -21.5t73.5 -21.5q55 0 105 41l75 -129q-72 -65 -145 -65q-30 0 -61 10l-61.5 19.5t-57.5 9.5q-53 0 -101 -33z" />
    <glyph glyph-name="adieresis" unicode="&#xe4;" horiz-adv-x="1352" 
d="M1260 1135v-1135h-250v154h-4q-62 -87 -169.5 -139t-215.5 -52q-127 0 -234 50t-184 141q-142 170 -142 413q0 76 14.5 148.5t46 135t85.5 124.5q86 100 191.5 148t230.5 48q117 0 215.5 -50t165.5 -146v160h250zM1001 569q0 72 -24 133.5t-67 106.5t-104 70.5t-132 25.5
q-149 0 -244.5 -98.5t-95.5 -249.5q0 -138 99 -233t237 -95q96 0 172 44.5t117.5 122t41.5 173.5zM356 1307v196h217v-196h-217zM809 1307v196h217v-196h-217z" />
    <glyph glyph-name="aring" unicode="&#xe5;" horiz-adv-x="1352" 
d="M1260 1135v-1135h-250v154h-4q-62 -87 -169.5 -139t-215.5 -52q-127 0 -234 50t-184 141q-142 170 -142 413q0 76 14.5 148.5t46 135t85.5 124.5q86 100 191.5 148t230.5 48q117 0 215.5 -50t165.5 -146v160h250zM1001 569q0 72 -24 133.5t-67 106.5t-104 70.5t-132 25.5
q-149 0 -244.5 -98.5t-95.5 -249.5q0 -138 99 -233t237 -95q96 0 172 44.5t117.5 122t41.5 173.5zM735 1614q36 0 65.5 -12.5t52.5 -35.5t35.5 -52.5t12.5 -65.5q0 -69 -48.5 -117.5t-117.5 -48.5q-68 0 -117 49t-49 117q0 69 48.5 117.5t117.5 48.5zM735 1384v2
q27 0 43.5 16.5t16.5 41.5q0 24 -16.5 41.5t-43.5 17.5q-25 0 -42 -18t-17 -41t17.5 -41.5t41.5 -18.5z" />
    <glyph glyph-name="ae" unicode="&#xe6;" horiz-adv-x="2212" 
d="M2136 446h-881q29 -96 115.5 -156.5t185.5 -60.5q73 0 143 27.5t118 71.5h297q-42 -99 -125.5 -182t-195.5 -133t-226 -50q-98 0 -186.5 37.5t-137.5 112.5v-150h-250v150q-56 -77 -147 -113.5t-197 -36.5q-117 0 -224.5 47.5t-190 132t-128 195t-45.5 225.5
q0 119 44.5 227.5t126 196t187.5 136t226 48.5q63 0 128.5 -15.5t123 -47.5t96.5 -80v143h250v-143q59 71 149 107t185 36q120 0 224.5 -47.5t184 -130t123 -190t43.5 -223.5q0 -48 -16 -134zM985 565q-2 90 -44.5 167.5t-117.5 125t-164 47.5q-93 0 -167 -46t-116 -125
t-42 -171q0 -87 43 -164.5t117 -123.5t163 -46q90 0 165 46t118.5 123.5t44.5 166.5zM1255 688h611q-25 66 -69 114.5t-103.5 75.5t-130.5 27q-102 0 -188.5 -60.5t-119.5 -156.5z" />
    <glyph glyph-name="ccedilla" unicode="&#xe7;" horiz-adv-x="1311" 
d="M924 369h307q-38 -121 -122.5 -212.5t-200.5 -142.5t-240 -51q-115 0 -228 46t-194 124q-92 89 -138.5 203t-46.5 239q0 123 47 231t131 191t194.5 128.5t232.5 45.5q125 0 242 -52t203 -146t120 -215h-307q-88 147 -262 147q-96 0 -170.5 -43.5t-116 -120.5t-41.5 -170
q0 -97 43.5 -175.5t122.5 -122.5t176 -44q49 0 96 17t86.5 48.5t65.5 74.5zM514 -31l88 -2l-33 -92q12 2 20 3t13 2t16 1q56 0 105 -45q47 -44 47 -117q0 -68 -46.5 -113.5t-115.5 -45.5q-58 0 -106 39.5t-49 93.5h82q4 -22 28.5 -36.5t48.5 -14.5q31 0 51.5 24.5t20.5 54.5
q0 18 -5 32t-17 26t-25 17t-31 5q-47 0 -67 -41l-82 21z" />
    <glyph glyph-name="egrave" unicode="&#xe8;" horiz-adv-x="1311" 
d="M1231 446h-881q32 -99 114.5 -158t184.5 -59q76 0 145.5 26.5t108.5 72.5h301q-34 -100 -117.5 -184t-197 -132.5t-230.5 -48.5q-163 0 -300 80t-217.5 218t-80.5 298q0 166 79.5 306.5t218 223t305.5 82.5q120 0 226 -47.5t185.5 -130t124.5 -191.5t45 -227
q0 -29 -14 -129zM346 688h625q-22 66 -69 115.5t-108.5 75.5t-131.5 26q-105 0 -195 -60.5t-121 -156.5zM438 1464l86 158l340 -207l-80 -141z" />
    <glyph glyph-name="eacute" unicode="&#xe9;" horiz-adv-x="1311" 
d="M1231 446h-881q32 -99 114.5 -158t184.5 -59q76 0 145.5 26.5t108.5 72.5h301q-34 -100 -117.5 -184t-197 -132.5t-230.5 -48.5q-163 0 -300 80t-217.5 218t-80.5 298q0 166 79.5 306.5t218 223t305.5 82.5q120 0 226 -47.5t185.5 -130t124.5 -191.5t45 -227
q0 -29 -14 -129zM346 688h625q-22 66 -69 115.5t-108.5 75.5t-131.5 26q-105 0 -195 -60.5t-121 -156.5zM573 1286l-73 141l344 203l80 -160z" />
    <glyph glyph-name="ecircumflex" unicode="&#xea;" horiz-adv-x="1311" 
d="M1231 446h-881q32 -99 114.5 -158t184.5 -59q76 0 145.5 26.5t108.5 72.5h301q-34 -100 -117.5 -184t-197 -132.5t-230.5 -48.5q-163 0 -300 80t-217.5 218t-80.5 298q0 166 79.5 306.5t218 223t305.5 82.5q120 0 226 -47.5t185.5 -130t124.5 -191.5t45 -227
q0 -29 -14 -129zM346 688h625q-22 66 -69 115.5t-108.5 75.5t-131.5 26q-105 0 -195 -60.5t-121 -156.5zM346 1272l225 211h160l223 -211h-221l-82 98l-84 -98h-221z" />
    <glyph glyph-name="edieresis" unicode="&#xeb;" horiz-adv-x="1311" 
d="M1231 446h-881q32 -99 114.5 -158t184.5 -59q76 0 145.5 26.5t108.5 72.5h301q-34 -100 -117.5 -184t-197 -132.5t-230.5 -48.5q-163 0 -300 80t-217.5 218t-80.5 298q0 166 79.5 306.5t218 223t305.5 82.5q120 0 226 -47.5t185.5 -130t124.5 -191.5t45 -227
q0 -29 -14 -129zM346 688h625q-22 66 -69 115.5t-108.5 75.5t-131.5 26q-105 0 -195 -60.5t-121 -156.5zM305 1262v196h217v-196h-217zM758 1262v196h217v-196h-217z" />
    <glyph glyph-name="igrave" unicode="&#xec;" horiz-adv-x="492" 
d="M111 0v1135h272v-1135h-272zM33 1479l86 157l340 -206l-80 -142z" />
    <glyph glyph-name="iacute" unicode="&#xed;" horiz-adv-x="492" 
d="M111 0v1135h272v-1135h-272zM127 1260l-74 141l344 203l80 -160z" />
    <glyph glyph-name="icircumflex" unicode="&#xee;" horiz-adv-x="492" 
d="M111 0v1135h272v-1135h-272zM-74 1268l226 211h159l224 -211h-222l-82 98l-84 -98h-221z" />
    <glyph glyph-name="idieresis" unicode="&#xef;" horiz-adv-x="492" 
d="M111 0v1135h272v-1135h-272zM-104 1278v197h217v-197h-217zM348 1278v197h217v-197h-217z" />
    <glyph glyph-name="eth" unicode="&#xf0;" horiz-adv-x="1311" 
d="M662 905q-88 0 -164.5 -47.5t-120 -126.5t-43.5 -166q0 -89 43.5 -167.5t119 -123.5t165.5 -45q95 0 171 44.5t119 122.5t43 169t-44 170t-121 124.5t-168 45.5zM229 1513h287l98 -38l201 102l168 -70l-201 -102q171 -124 277 -247t157.5 -266.5t51.5 -326.5
q0 -123 -46 -232t-131.5 -194t-196 -130.5t-232.5 -45.5q-161 0 -299.5 81.5t-220 220.5t-81.5 300q0 126 47.5 236t131.5 194t190 130t217 46q50 0 111 -20.5t94 -48.5l4 4q-43 56 -115.5 111.5t-142.5 93.5l-195 -101l-159 74l219 113q-86 51 -234 112v4z" />
    <glyph glyph-name="ntilde" unicode="&#xf1;" horiz-adv-x="1229" 
d="M111 0v1135h251v-105h5q49 68 133 104.5t176 36.5q91 0 177 -37.5t146 -103.5q20 -18 29 -33q60 -83 75 -174t15 -235v-588h-272v535q0 94 -8.5 161t-38.5 115q-27 43 -77 68.5t-104 25.5q-55 0 -108.5 -27t-81.5 -73q-31 -54 -38 -123.5t-7 -167.5v-514h-272zM446 1296
l-75 136q60 55 151 55q40 0 96.5 -21.5t73.5 -21.5q57 0 105 41l75 -129q-35 -32 -70 -49t-75 -17q-30 0 -61 10l-61.5 19.5t-57.5 9.5q-55 0 -101 -33z" />
    <glyph glyph-name="ograve" unicode="&#xf2;" horiz-adv-x="1311" 
d="M674 1171q124 0 232.5 -47.5t190.5 -131.5t126.5 -193.5t44.5 -233.5q0 -123 -46 -232t-131.5 -194t-196 -130.5t-232.5 -45.5q-161 0 -299.5 81.5t-220 220.5t-81.5 300q0 127 47.5 237.5t131.5 193t195 129t239 46.5zM662 905q-61 0 -125.5 -28t-108.5 -76
q-94 -95 -94 -236q0 -89 43.5 -167.5t119 -123.5t165.5 -45q95 0 171 44.5t119 122.5t43 169t-44 170t-121 124.5t-168 45.5zM479 1464l86 158l340 -207l-80 -141z" />
    <glyph glyph-name="oacute" unicode="&#xf3;" horiz-adv-x="1311" 
d="M674 1171q124 0 232.5 -47.5t190.5 -131.5t126.5 -193.5t44.5 -233.5q0 -123 -46 -232t-131.5 -194t-196 -130.5t-232.5 -45.5q-161 0 -299.5 81.5t-220 220.5t-81.5 300q0 127 47.5 237.5t131.5 193t195 129t239 46.5zM662 905q-61 0 -125.5 -28t-108.5 -76
q-94 -95 -94 -236q0 -89 43.5 -167.5t119 -123.5t165.5 -45q95 0 171 44.5t119 122.5t43 169t-44 170t-121 124.5t-168 45.5zM553 1266l-74 141l344 203l80 -160z" />
    <glyph glyph-name="ocircumflex" unicode="&#xf4;" horiz-adv-x="1311" 
d="M674 1171q124 0 232.5 -47.5t190.5 -131.5t126.5 -193.5t44.5 -233.5q0 -123 -46 -232t-131.5 -194t-196 -130.5t-232.5 -45.5q-161 0 -299.5 81.5t-220 220.5t-81.5 300q0 127 47.5 237.5t131.5 193t195 129t239 46.5zM662 905q-61 0 -125.5 -28t-108.5 -76
q-94 -95 -94 -236q0 -89 43.5 -167.5t119 -123.5t165.5 -45q95 0 171 44.5t119 122.5t43 169t-44 170t-121 124.5t-168 45.5zM354 1274l226 211h159l224 -211h-222l-82 98l-84 -98h-221z" />
    <glyph glyph-name="otilde" unicode="&#xf5;" horiz-adv-x="1311" 
d="M674 1171q124 0 232.5 -47.5t190.5 -131.5t126.5 -193.5t44.5 -233.5q0 -123 -46 -232t-131.5 -194t-196 -130.5t-232.5 -45.5q-161 0 -299.5 81.5t-220 220.5t-81.5 300q0 127 47.5 237.5t131.5 193t195 129t239 46.5zM662 905q-61 0 -125.5 -28t-108.5 -76
q-94 -95 -94 -236q0 -89 43.5 -167.5t119 -123.5t165.5 -45q95 0 171 44.5t119 122.5t43 169t-44 170t-121 124.5t-168 45.5zM489 1280l-75 135q58 55 151 55q40 0 96.5 -21.5t73.5 -21.5q55 0 105 41l75 -129q-72 -65 -145 -65q-30 0 -61 10l-61.5 19.5t-57.5 9.5
q-53 0 -101 -33z" />
    <glyph glyph-name="odieresis" unicode="&#xf6;" horiz-adv-x="1311" 
d="M674 1171q124 0 232.5 -47.5t190.5 -131.5t126.5 -193.5t44.5 -233.5q0 -123 -46 -232t-131.5 -194t-196 -130.5t-232.5 -45.5q-161 0 -299.5 81.5t-220 220.5t-81.5 300q0 127 47.5 237.5t131.5 193t195 129t239 46.5zM662 905q-61 0 -125.5 -28t-108.5 -76
q-94 -95 -94 -236q0 -89 43.5 -167.5t119 -123.5t165.5 -45q95 0 171 44.5t119 122.5t43 169t-44 170t-121 124.5t-168 45.5zM313 1274v196h217v-196h-217zM766 1274v196h217v-196h-217z" />
    <glyph glyph-name="divide" unicode="&#xf7;" horiz-adv-x="1229" 
d="M104 539v237h1033v-237h-1033zM502 930v237h237v-237h-237zM502 133v238h237v-238h-237z" />
    <glyph glyph-name="oslash" unicode="&#xf8;" horiz-adv-x="1352" 
d="M907 1124l78 117l203 -139l-80 -119q51 -54 87.5 -121.5t55.5 -142t19 -152.5q0 -116 -46 -226t-128.5 -195.5t-191 -134t-226.5 -48.5q-98 0 -236 45l-77 -110l-201 139l74 110q-86 83 -131.5 192t-45.5 226q0 162 81.5 302t220 222t303.5 82q108 0 241 -47zM393 373
l361 524q-48 10 -88 10q-73 0 -138.5 -31t-111.5 -88q-82 -95 -82 -231q0 -93 59 -184zM950 750l-354 -517q33 -12 70 -12q97 0 172.5 45t117 123.5t41.5 175.5q0 55 -11.5 98.5t-35.5 86.5z" />
    <glyph glyph-name="ugrave" unicode="&#xf9;" horiz-adv-x="1229" 
d="M848 1135h272v-1135h-250v121h-4q-81 -158 -288 -158q-103 0 -196 39.5t-163 118.5q-48 51 -71.5 108t-30 119.5t-6.5 145.5v641h272v-557q0 -162 35 -232q28 -55 80 -86t114 -31q140 0 188 97.5t48 251.5v557zM389 1448l86 158l340 -207l-80 -142z" />
    <glyph glyph-name="uacute" unicode="&#xfa;" horiz-adv-x="1229" 
d="M848 1135h272v-1135h-250v121h-4q-81 -158 -288 -158q-103 0 -196 39.5t-163 118.5q-48 51 -71.5 108t-30 119.5t-6.5 145.5v641h272v-557q0 -162 35 -232q28 -55 80 -86t114 -31q140 0 188 97.5t48 251.5v557zM555 1239l-74 141l344 203l80 -160z" />
    <glyph glyph-name="ucircumflex" unicode="&#xfb;" horiz-adv-x="1229" 
d="M848 1135h272v-1135h-250v121h-4q-81 -158 -288 -158q-103 0 -196 39.5t-163 118.5q-48 51 -71.5 108t-30 119.5t-6.5 145.5v641h272v-557q0 -162 35 -232q28 -55 80 -86t114 -31q140 0 188 97.5t48 251.5v557zM352 1257l226 211h159l224 -211h-222l-82 99l-84 -99h-221z
" />
    <glyph glyph-name="udieresis" unicode="&#xfc;" horiz-adv-x="1229" 
d="M848 1135h272v-1135h-250v121h-4q-81 -158 -288 -158q-103 0 -196 39.5t-163 118.5q-48 51 -71.5 108t-30 119.5t-6.5 145.5v641h272v-557q0 -162 35 -232q28 -55 80 -86t114 -31q140 0 188 97.5t48 251.5v557zM291 1257v197h217v-197h-217zM743 1257v197h218v-197h-218z
" />
    <glyph glyph-name="yacute" unicode="&#xfd;" horiz-adv-x="1188" 
d="M219 -379l209 485l-416 1029h310l260 -727l272 727h309l-651 -1514h-293zM559 1249l-74 142l344 202l80 -159z" />
    <glyph glyph-name="thorn" unicode="&#xfe;" horiz-adv-x="1352" 
d="M700 905q-94 0 -170 -45t-119.5 -123t-43.5 -170q0 -157 106 -252q46 -40 104 -63t113 -23q94 0 171.5 45.5t121 123.5t43.5 171q0 87 -42.5 165t-117.5 124.5t-166 46.5zM111 -379l272 2089h217v-197h-217v-493q68 73 149.5 112t196.5 39q81 0 156.5 -22.5t139 -63
t116.5 -98.5q49 -53 84.5 -118t54 -141t18.5 -161q0 -119 -41 -228t-119 -194.5t-183.5 -133.5t-225.5 -48q-217 0 -342 160h-4v-502h-272z" />
    <glyph glyph-name="ydieresis" unicode="&#xff;" horiz-adv-x="1188" 
d="M219 -379l209 485l-416 1029h310l260 -727l272 727h309l-651 -1514h-293zM264 1253v197h217v-197h-217zM717 1253v197h217v-197h-217z" />
    <glyph glyph-name="lslash" horiz-adv-x="655" 
d="M201 0v594l-166 -129v287l166 129v632h272v-442l166 127v-287l-166 -129v-782h-272z" />
    <glyph glyph-name="dotaccent" horiz-adv-x="573" 
d="M152 1270l272 469h217v-197h-217v-272h-272z" />
    <glyph glyph-name="hungarumlaut" horiz-adv-x="1434" 
d="M254 1270l-102 164l430 297l123 -193zM840 1270l-103 164l430 297l121 -193z" />
    <glyph glyph-name="fi" horiz-adv-x="1065" 
d="M113 0v893h-97v242h97q3 84 28 155.5t73 128.5t117.5 90t151.5 33l76 -4v-264q-94 0 -132 -25t-42 -114h160v-242h-160v-893h-272zM672 0l272 1331h217v-196h-217v-1135h-272zM944 1464l273 443h217v-197h-217v-246h-273z" />
    <glyph glyph-name="sac" unicode="&#xf008;" horiz-adv-x="860" 
d="M254 1255l-74 142l344 202l80 -159z" />
    <glyph glyph-name="huyen" unicode="&#xf00d;" horiz-adv-x="860" 
d="M152 1511l86 158l340 -207l-80 -141z" />
    <glyph glyph-name="hoi" unicode="&#xf012;" horiz-adv-x="860" 
d="M152 1511l-154 48q9 85 66.5 129.5t150.5 44.5q97 0 158 -59.5t61 -147.5q0 -49 -27.5 -81t-89.5 -77q-32 -19 -45.5 -33.5t-13.5 -40.5h-145v15q0 51 31 93t77 68q15 11 23 17.5t11 11.5t3 14q0 54 -55 54q-51 0 -51 -56z" />
    <glyph glyph-name="nga" unicode="&#xf01d;" horiz-adv-x="983" 
d="M252 1278l-76 135q58 55 152 55q38 0 95.5 -21.5t74.5 -21.5q54 0 104 41l76 -129q-72 -65 -146 -65q-30 0 -60.5 10l-61 19.5t-58.5 9.5q-52 0 -100 -33z" />
    <glyph glyph-name="nang" unicode="&#xf02a;" horiz-adv-x="492" 
d="M139 131v197h217v-197h-217z" />
    <glyph glyph-name="aa" horiz-adv-x="983" 
d="M152 1548h151q12 -28 40 -43.5t60 -15.5q33 0 61 15.5t40 43.5h151q-12 -101 -79.5 -154t-172.5 -53q-104 0 -171.5 53t-79.5 154z" />
    <glyph glyph-name="ab" horiz-adv-x="1106" 
d="M152 1270l225 211h160l223 -211h-221l-82 98l-84 -98h-221z" />
    <glyph glyph-name="dth" unicode="&#x111;" horiz-adv-x="1352" 
d="M1255 1599v-2v-172h97v-98h-97v-1329h-249v154h-5q-38 -61 -97.5 -104t-131 -65t-147.5 -22q-120 0 -226 51t-184 140q-71 81 -112.5 190t-41.5 219q0 242 154 416q51 57 119 101t144 67.5t155 23.5q64 0 128.5 -17t121 -51.5t100.5 -84.5v309h-289v102h289v172h272z
M993 569q0 71 -26.5 132t-72.5 106.5t-108 71.5t-133 26q-84 0 -160 -45.5t-121.5 -122.5t-45.5 -162q0 -92 43 -172t118.5 -127t169.5 -47q92 0 169.5 46t122 124t44.5 170z" />
    <glyph glyph-name="dth" unicode="&#x20ab;" horiz-adv-x="1352" 
d="M1255 1599v-2v-172h97v-98h-97v-1329h-249v154h-5q-38 -61 -97.5 -104t-131 -65t-147.5 -22q-120 0 -226 51t-184 140q-71 81 -112.5 190t-41.5 219q0 242 154 416q51 57 119 101t144 67.5t155 23.5q64 0 128.5 -17t121 -51.5t100.5 -84.5v309h-289v102h289v172h272z
M993 569q0 71 -26.5 132t-72.5 106.5t-108 71.5t-133 26q-84 0 -160 -45.5t-121.5 -122.5t-45.5 -162q0 -92 43 -172t118.5 -127t169.5 -47q92 0 169.5 46t122 124t44.5 170z" />
    <glyph glyph-name="dhoa" unicode="&#x110;" horiz-adv-x="1520" 
d="M549 0h-324v655h-196v217h196v641h318q91 0 179 -8t164.5 -25.5t152.5 -53t139 -89.5q122 -102 191 -262.5t69 -324.5q0 -79 -17.5 -160t-51.5 -157t-81.5 -141t-109.5 -118q-123 -105 -273.5 -139.5t-355.5 -34.5zM743 872v-217h-237v-383h35q90 0 161.5 6t142 29.5
t130.5 67.5q87 66 134.5 164.5t47.5 210.5q0 78 -23 153.5t-68.5 139t-109.5 108.5q-86 59 -186 74.5t-244 15.5h-20v-369h237z" />
    <glyph glyph-name="octh" unicode="&#x1a1;" horiz-adv-x="1331" 
d="M674 1171h2q87 0 168 -27t143 -68.5t107.5 -87.5t70.5 -91q43 8 61 33t24.5 78.5t6.5 162.5h158q0 -114 -31 -197t-77 -125t-90 -42q22 -37 36.5 -103.5t14.5 -138.5q0 -123 -46 -232t-131.5 -194t-196 -130.5t-232.5 -45.5q-161 0 -299.5 81.5t-220 220.5t-81.5 300
q0 127 47.5 237.5t131.5 193t195 129t239 46.5zM664 905q-61 0 -125.5 -28t-108.5 -76q-94 -95 -94 -236q0 -89 43.5 -167.5t119 -123.5t165.5 -45q95 0 171 44.5t119 122.5t43 169t-44 170t-121 124.5t-168 45.5z" />
    <glyph glyph-name="ochoa" unicode="&#x1a0;" horiz-adv-x="1720" 
d="M850 1542l2 -2q155 0 277 -44t206 -114t140 -153q61 0 92.5 80t31.5 229h158q0 -126 -32.5 -215.5t-84 -134.5t-106.5 -45q52 -81 79 -171t27 -222q0 -214 -106.5 -395t-289 -286.5t-392.5 -105.5q-157 0 -303.5 61t-256 170t-170.5 252t-61 302q0 217 106 399t288 288.5
t395 106.5zM1362 748q0 141 -69 261t-187.5 189.5t-255.5 69.5l2 -6q-141 0 -258 -70t-183.5 -188t-66.5 -259q0 -138 69 -255.5t186.5 -187t252.5 -69.5q136 0 254 70t187 189t69 256z" />
    <glyph glyph-name="ucth" unicode="&#x1b0;" horiz-adv-x="1270" 
d="M840 1135h272v-271q57 0 82 63.5t25 207.5h149q-3 -181 -74.5 -276t-181.5 -95v-764h-250v121h-4q-81 -158 -289 -158q-102 0 -195 39.5t-163 118.5q-37 40 -58 80t-33 87.5t-15 99.5t-3 106v641h273v-557q0 -162 35 -232q26 -54 79 -85.5t115 -31.5q140 0 188 97.5
t48 251.5v557z" />
    <glyph glyph-name="uchoa" unicode="&#x1af;" horiz-adv-x="1331" 
d="M123 1513h280v-944q0 -70 4.5 -113.5t24.5 -90.5q32 -60 84.5 -94.5t116.5 -34.5q56 0 108.5 29t81.5 77q28 46 34.5 97t6.5 130v944h281v-272q57 0 81.5 62t24.5 208h150q-3 -180 -74.5 -275t-181.5 -95v-572q0 -133 -22.5 -231t-88.5 -178q-77 -91 -182.5 -144
t-218.5 -53q-103 0 -209 51.5t-178 132.5q-53 60 -79.5 125.5t-35 134t-8.5 162.5v944z" />
    <glyph glyph-name="aath" unicode="&#x103;" horiz-adv-x="1352" 
d="M1260 1135v-1135h-250v154h-4q-62 -87 -169.5 -139t-215.5 -52q-127 0 -234 50t-184 141q-142 170 -142 413q0 76 14.5 148.5t46 135t85.5 124.5q86 100 191.5 148t230.5 48q117 0 215.5 -50t165.5 -146v160h250zM1001 569q0 72 -24 133.5t-67 106.5t-104 70.5t-132 25.5
q-149 0 -244.5 -98.5t-95.5 -249.5q0 -138 99 -233t237 -95q96 0 172 44.5t117.5 122t41.5 173.5zM489 1481h152q11 -27 39.5 -43.5t60.5 -16.5q33 0 61.5 16.5t39.5 43.5h151q-12 -102 -79.5 -154.5t-172.5 -52.5q-104 0 -171.5 52t-80.5 155z" />
    <glyph glyph-name="aahoa" unicode="&#x102;" horiz-adv-x="1516" 
d="M14 0l631 1513h219l637 -1513h-309l-164 391h-536l-168 -391h-310zM594 664h324l-162 458zM508 1800h151q13 -28 41 -43.5t60 -15.5q33 0 60.5 15.5t39.5 43.5h152q-12 -100 -80 -153.5t-172 -53.5q-103 0 -171.5 53t-80.5 154z" />
    <glyph glyph-name="abth" horiz-adv-x="1352" 
d="M1260 1135v-1135h-250v154h-4q-62 -87 -169.5 -139t-215.5 -52q-127 0 -234 50t-184 141q-142 170 -142 413q0 76 14.5 148.5t46 135t85.5 124.5q86 100 191.5 148t230.5 48q117 0 215.5 -50t165.5 -146v160h250zM1001 569q0 72 -24 133.5t-67 106.5t-104 70.5t-132 25.5
q-149 0 -244.5 -98.5t-95.5 -249.5q0 -138 99 -233t237 -95q96 0 172 44.5t117.5 122t41.5 173.5zM397 1276l226 211h159l224 -211h-222l-82 98l-84 -98h-221z" />
    <glyph glyph-name="abhoa" horiz-adv-x="1516" 
d="M14 0l631 1513h219l637 -1513h-309l-164 391h-536l-168 -391h-310zM594 664h324l-162 458zM457 1616l225 211h160l223 -211h-221l-82 98l-84 -98h-221z" />
    <glyph glyph-name="ebth" horiz-adv-x="1311" 
d="M1231 446h-881q32 -99 114.5 -158t184.5 -59q76 0 145.5 26.5t108.5 72.5h301q-34 -100 -117.5 -184t-197 -132.5t-230.5 -48.5q-163 0 -300 80t-217.5 218t-80.5 298q0 166 79.5 306.5t218 223t305.5 82.5q120 0 226 -47.5t185.5 -130t124.5 -191.5t45 -227
q0 -29 -14 -129zM346 688h625q-22 66 -69 115.5t-108.5 75.5t-131.5 26q-105 0 -195 -60.5t-121 -156.5zM346 1272l225 211h160l223 -211h-221l-82 98l-84 -98h-221z" />
    <glyph glyph-name="ebhoa" horiz-adv-x="1065" 
d="M139 0v1513h813v-272h-532v-348h510v-272h-510v-349h532v-272h-813zM231 1616l226 211h159l224 -211h-222l-81 98l-84 -98h-222z" />
    <glyph glyph-name="obth" horiz-adv-x="1311" 
d="M674 1171q124 0 232.5 -47.5t190.5 -131.5t126.5 -193.5t44.5 -233.5q0 -123 -46 -232t-131.5 -194t-196 -130.5t-232.5 -45.5q-161 0 -299.5 81.5t-220 220.5t-81.5 300q0 127 47.5 237.5t131.5 193t195 129t239 46.5zM662 905q-61 0 -125.5 -28t-108.5 -76
q-94 -95 -94 -236q0 -89 43.5 -167.5t119 -123.5t165.5 -45q95 0 171 44.5t119 122.5t43 169t-44 170t-121 124.5t-168 45.5zM354 1274l226 211h159l224 -211h-222l-82 98l-84 -98h-221z" />
    <glyph glyph-name="obhoa" horiz-adv-x="1720" 
d="M850 1542q213 0 394.5 -105.5t287.5 -289t106 -397.5q0 -215 -106.5 -396t-287.5 -286t-394 -105q-156 0 -301.5 60.5t-255.5 170t-171 254t-61 302.5q0 214 106 397.5t288 289t395 105.5zM850 1270q-140 0 -256 -69t-184 -187.5t-68 -257.5q0 -101 40 -196.5
t111.5 -168.5t163.5 -114t193 -41q136 0 252.5 71t186 191.5t69.5 257.5q0 139 -68 257.5t-184 187.5t-256 69zM543 1618l225 211h160l223 -211h-221l-82 98l-84 -98h-221z" />
    <glyph glyph-name="athsac" horiz-adv-x="1352" 
d="M1260 1135v-1135h-250v154h-4q-62 -87 -169.5 -139t-215.5 -52q-127 0 -234 50t-184 141q-142 170 -142 413q0 76 14.5 148.5t46 135t85.5 124.5q86 100 191.5 148t230.5 48q117 0 215.5 -50t165.5 -146v160h250zM1001 569q0 72 -24 133.5t-67 106.5t-104 70.5t-132 25.5
q-149 0 -244.5 -98.5t-95.5 -249.5q0 -138 99 -233t237 -95q96 0 172 44.5t117.5 122t41.5 173.5zM662 1296l-74 142l344 202l80 -159z" />
    <glyph glyph-name="athhuyen" horiz-adv-x="1352" 
d="M1260 1135v-1135h-250v154h-4q-62 -87 -169.5 -139t-215.5 -52q-127 0 -234 50t-184 141q-142 170 -142 413q0 76 14.5 148.5t46 135t85.5 124.5q86 100 191.5 148t230.5 48q117 0 215.5 -50t165.5 -146v160h250zM1001 569q0 72 -24 133.5t-67 106.5t-104 70.5t-132 25.5
q-149 0 -244.5 -98.5t-95.5 -249.5q0 -138 99 -233t237 -95q96 0 172 44.5t117.5 122t41.5 173.5zM526 1464l86 158l340 -207l-80 -141z" />
    <glyph glyph-name="athhoi" unicode="&#x1ea3;" horiz-adv-x="1352" 
d="M1260 1135v-1135h-250v154h-4q-62 -87 -169.5 -139t-215.5 -52q-127 0 -234 50t-184 141q-142 170 -142 413q0 76 14.5 148.5t46 135t85.5 124.5q86 100 191.5 148t230.5 48q117 0 215.5 -50t165.5 -146v160h250zM1001 569q0 72 -24 133.5t-67 106.5t-104 70.5t-132 25.5
q-149 0 -244.5 -98.5t-95.5 -249.5q0 -138 99 -233t237 -95q96 0 172 44.5t117.5 122t41.5 173.5zM682 1516l-154 47q10 85 68 129.5t149 44.5q67 0 116.5 -28t76.5 -74.5t27 -104.5q0 -49 -27.5 -81t-89.5 -77q-32 -19 -46 -33.5t-14 -40.5h-145v15q0 51 31.5 94.5
t77.5 67.5l20.5 15.5t12 12t3.5 15.5q0 53 -55 53q-51 0 -51 -55z" />
    <glyph glyph-name="athnga" horiz-adv-x="1352" 
d="M1260 1135v-1135h-250v154h-4q-62 -87 -169.5 -139t-215.5 -52q-127 0 -234 50t-184 141q-142 170 -142 413q0 76 14.5 148.5t46 135t85.5 124.5q86 100 191.5 148t230.5 48q117 0 215.5 -50t165.5 -146v160h250zM1001 569q0 72 -24 133.5t-67 106.5t-104 70.5t-132 25.5
q-149 0 -244.5 -98.5t-95.5 -249.5q0 -138 99 -233t237 -95q96 0 172 44.5t117.5 122t41.5 173.5zM485 1280l-75 135q58 55 151 55q40 0 96.5 -21.5t73.5 -21.5q55 0 105 41l75 -129q-72 -65 -145 -65q-30 0 -61 10l-61.5 19.5t-57.5 9.5q-53 0 -101 -33z" />
    <glyph glyph-name="athnang" unicode="&#x1ea1;" horiz-adv-x="1352" 
d="M1260 1135v-1135h-250v154h-4q-62 -87 -169.5 -139t-215.5 -52q-127 0 -234 50t-184 141q-142 170 -142 413q0 76 14.5 148.5t46 135t85.5 124.5q86 100 191.5 148t230.5 48q117 0 215.5 -50t165.5 -146v160h250zM1001 569q0 72 -24 133.5t-67 106.5t-104 70.5t-132 25.5
q-149 0 -244.5 -98.5t-95.5 -249.5q0 -138 99 -233t237 -95q96 0 172 44.5t117.5 122t41.5 173.5zM551 -377v197h217v-197h-217z" />
    <glyph glyph-name="ahoasac" horiz-adv-x="1516" 
d="M14 0l631 1513h219l637 -1513h-309l-164 391h-536l-168 -391h-310zM594 664h324l-162 458zM637 1628l-74 141l344 203l80 -160z" />
    <glyph glyph-name="ahoahuyen" horiz-adv-x="1516" 
d="M14 0l631 1513h219l637 -1513h-309l-164 391h-536l-168 -391h-310zM594 664h324l-162 458zM502 1806l86 158l340 -207l-80 -141z" />
    <glyph glyph-name="ahoahoi" unicode="&#x1ea2;" horiz-adv-x="1516" 
d="M14 0l631 1513h219l637 -1513h-309l-164 391h-536l-168 -391h-310zM594 664h324l-162 458zM709 1847l-154 47q9 85 66.5 129.5t150.5 44.5q98 0 158.5 -59t60.5 -147q0 -49 -27.5 -81t-89.5 -77q-30 -17 -44.5 -32.5t-14.5 -41.5h-145v15q0 51 31 93t77 68q15 11 23 17.5
t11 11.5t3 14q0 54 -55 54q-51 0 -51 -56z" />
    <glyph glyph-name="ahoanga" horiz-adv-x="1516" 
d="M14 0l631 1513h219l637 -1513h-309l-164 391h-536l-168 -391h-310zM594 664h324l-162 458zM584 1622l-76 135q58 55 151 55q40 0 96.5 -21.5t73.5 -21.5q55 0 105 41l76 -129q-72 -65 -146 -65q-30 0 -60.5 10l-61 19.5t-58.5 9.5q-54 0 -100 -33z" />
    <glyph glyph-name="ahoanang" unicode="&#x1ea0;" horiz-adv-x="1516" 
d="M14 0l631 1513h219l637 -1513h-309l-164 391h-536l-168 -391h-310zM594 664h324l-162 458zM649 -319v196h217v-196h-217z" />
    <glyph glyph-name="ethsac" horiz-adv-x="1311" 
d="M1231 446h-881q32 -99 114.5 -158t184.5 -59q76 0 145.5 26.5t108.5 72.5h301q-34 -100 -117.5 -184t-197 -132.5t-230.5 -48.5q-163 0 -300 80t-217.5 218t-80.5 298q0 166 79.5 306.5t218 223t305.5 82.5q120 0 226 -47.5t185.5 -130t124.5 -191.5t45 -227
q0 -29 -14 -129zM346 688h625q-22 66 -69 115.5t-108.5 75.5t-131.5 26q-105 0 -195 -60.5t-121 -156.5zM573 1286l-73 141l344 203l80 -160z" />
    <glyph glyph-name="ethhuyen" horiz-adv-x="1311" 
d="M1231 446h-881q32 -99 114.5 -158t184.5 -59q76 0 145.5 26.5t108.5 72.5h301q-34 -100 -117.5 -184t-197 -132.5t-230.5 -48.5q-163 0 -300 80t-217.5 218t-80.5 298q0 166 79.5 306.5t218 223t305.5 82.5q120 0 226 -47.5t185.5 -130t124.5 -191.5t45 -227
q0 -29 -14 -129zM346 688h625q-22 66 -69 115.5t-108.5 75.5t-131.5 26q-105 0 -195 -60.5t-121 -156.5zM438 1464l86 158l340 -207l-80 -141z" />
    <glyph glyph-name="ethhoi" unicode="&#x1ebb;" horiz-adv-x="1311" 
d="M1231 446h-881q32 -99 114.5 -158t184.5 -59q76 0 145.5 26.5t108.5 72.5h301q-34 -100 -117.5 -184t-197 -132.5t-230.5 -48.5q-163 0 -300 80t-217.5 218t-80.5 298q0 166 79.5 306.5t218 223t305.5 82.5q120 0 226 -47.5t185.5 -130t124.5 -191.5t45 -227
q0 -29 -14 -129zM346 688h625q-22 66 -69 115.5t-108.5 75.5t-131.5 26q-105 0 -195 -60.5t-121 -156.5zM635 1505l-154 47q10 85 68 129.5t149 44.5q65 0 115 -27.5t77.5 -76t27.5 -102.5q0 -49 -27.5 -81t-89.5 -77q-29 -17 -44.5 -32.5t-15.5 -41.5h-145v15q0 51 31 93.5
t78 67.5q10 9 20 16.5t13 12.5t3 14q0 54 -55 54q-51 0 -51 -56z" />
    <glyph glyph-name="ethnga" unicode="&#x1ebd;" horiz-adv-x="1311" 
d="M1231 446h-881q32 -99 114.5 -158t184.5 -59q76 0 145.5 26.5t108.5 72.5h301q-34 -100 -117.5 -184t-197 -132.5t-230.5 -48.5q-163 0 -300 80t-217.5 218t-80.5 298q0 166 79.5 306.5t218 223t305.5 82.5q120 0 226 -47.5t185.5 -130t124.5 -191.5t45 -227
q0 -29 -14 -129zM346 688h625q-22 66 -69 115.5t-108.5 75.5t-131.5 26q-105 0 -195 -60.5t-121 -156.5zM479 1280l-76 135q58 55 152 55q40 0 96.5 -21.5t73.5 -21.5q56 0 104 41l76 -129q-72 -65 -145 -65q-30 0 -61 10l-61.5 19.5t-57.5 9.5q-53 0 -101 -33z" />
    <glyph glyph-name="ethnang" unicode="&#x1eb9;" horiz-adv-x="1311" 
d="M1231 446h-881q32 -99 114.5 -158t184.5 -59q76 0 145.5 26.5t108.5 72.5h301q-34 -100 -117.5 -184t-197 -132.5t-230.5 -48.5q-163 0 -300 80t-217.5 218t-80.5 298q0 166 79.5 306.5t218 223t305.5 82.5q120 0 226 -47.5t185.5 -130t124.5 -191.5t45 -227
q0 -29 -14 -129zM346 688h625q-22 66 -69 115.5t-108.5 75.5t-131.5 26q-105 0 -195 -60.5t-121 -156.5zM545 -356v196h217v-196h-217z" />
    <glyph glyph-name="ehoasac" horiz-adv-x="1065" 
d="M139 0v1513h813v-272h-532v-348h510v-272h-510v-349h532v-272h-813zM475 1618l-74 141l344 203l80 -160z" />
    <glyph glyph-name="ehoahuyen" horiz-adv-x="1065" 
d="M139 0v1513h813v-272h-532v-348h510v-272h-510v-349h532v-272h-813zM330 1827l86 158l340 -207l-80 -142z" />
    <glyph glyph-name="ehoahoi" unicode="&#x1eba;" horiz-adv-x="1065" 
d="M139 0v1513h813v-272h-532v-348h510v-272h-510v-349h532v-272h-813zM526 1858l-153 47q9 85 66.5 129.5t150.5 44.5q65 0 115 -28t77 -74.5t27 -104.5q0 -49 -27.5 -81t-89.5 -77q-32 -19 -45.5 -34t-13.5 -40h-146v15q0 49 31 92.5t78 69.5q26 19 31.5 24t5.5 19
q0 53 -55 53q-52 0 -52 -55z" />
    <glyph glyph-name="ehoanga" unicode="&#x1ebc;" horiz-adv-x="1065" 
d="M139 0v1513h813v-272h-532v-348h510v-272h-510v-349h532v-272h-813zM371 1622l-76 135q58 55 151 55q40 0 96.5 -21.5t73.5 -21.5q55 0 105 41l76 -129q-72 -65 -146 -65q-30 0 -60.5 10l-61 19.5t-58.5 9.5q-54 0 -100 -33z" />
    <glyph glyph-name="ehoanang" unicode="&#x1eb8;" horiz-adv-x="1065" 
d="M139 0v1513h813v-272h-532v-348h510v-272h-510v-349h532v-272h-813zM436 -340v197h217v-197h-217z" />
    <glyph glyph-name="othsac" horiz-adv-x="1311" 
d="M674 1171q124 0 232.5 -47.5t190.5 -131.5t126.5 -193.5t44.5 -233.5q0 -123 -46 -232t-131.5 -194t-196 -130.5t-232.5 -45.5q-161 0 -299.5 81.5t-220 220.5t-81.5 300q0 127 47.5 237.5t131.5 193t195 129t239 46.5zM662 905q-61 0 -125.5 -28t-108.5 -76
q-94 -95 -94 -236q0 -89 43.5 -167.5t119 -123.5t165.5 -45q95 0 171 44.5t119 122.5t43 169t-44 170t-121 124.5t-168 45.5zM553 1266l-74 141l344 203l80 -160z" />
    <glyph glyph-name="othhuyen" horiz-adv-x="1311" 
d="M674 1171q124 0 232.5 -47.5t190.5 -131.5t126.5 -193.5t44.5 -233.5q0 -123 -46 -232t-131.5 -194t-196 -130.5t-232.5 -45.5q-161 0 -299.5 81.5t-220 220.5t-81.5 300q0 127 47.5 237.5t131.5 193t195 129t239 46.5zM662 905q-61 0 -125.5 -28t-108.5 -76
q-94 -95 -94 -236q0 -89 43.5 -167.5t119 -123.5t165.5 -45q95 0 171 44.5t119 122.5t43 169t-44 170t-121 124.5t-168 45.5zM479 1464l86 158l340 -207l-80 -141z" />
    <glyph glyph-name="othhoi" unicode="&#x1ecf;" horiz-adv-x="1311" 
d="M674 1171q124 0 232.5 -47.5t190.5 -131.5t126.5 -193.5t44.5 -233.5q0 -123 -46 -232t-131.5 -194t-196 -130.5t-232.5 -45.5q-161 0 -299.5 81.5t-220 220.5t-81.5 300q0 127 47.5 237.5t131.5 193t195 129t239 46.5zM662 905q-61 0 -125.5 -28t-108.5 -76
q-94 -95 -94 -236q0 -89 43.5 -167.5t119 -123.5t165.5 -45q95 0 171 44.5t119 122.5t43 169t-44 170t-121 124.5t-168 45.5zM625 1505l-154 47q9 85 66.5 129.5t150.5 44.5q98 0 158.5 -59t60.5 -147q0 -49 -27 -81t-89 -77q-29 -17 -44.5 -32.5t-15.5 -41.5h-145v15
q0 51 31 93t77 68q15 11 23 17.5t11 11.5t3 14q0 54 -55 54q-51 0 -51 -56z" />
    <glyph glyph-name="othnga" horiz-adv-x="1311" 
d="M674 1171q124 0 232.5 -47.5t190.5 -131.5t126.5 -193.5t44.5 -233.5q0 -123 -46 -232t-131.5 -194t-196 -130.5t-232.5 -45.5q-161 0 -299.5 81.5t-220 220.5t-81.5 300q0 127 47.5 237.5t131.5 193t195 129t239 46.5zM662 905q-61 0 -125.5 -28t-108.5 -76
q-94 -95 -94 -236q0 -89 43.5 -167.5t119 -123.5t165.5 -45q95 0 171 44.5t119 122.5t43 169t-44 170t-121 124.5t-168 45.5zM489 1280l-75 135q58 55 151 55q40 0 96.5 -21.5t73.5 -21.5q55 0 105 41l75 -129q-72 -65 -145 -65q-30 0 -61 10l-61.5 19.5t-57.5 9.5
q-53 0 -101 -33z" />
    <glyph glyph-name="othnang" unicode="&#x1ecd;" horiz-adv-x="1311" 
d="M674 1171q124 0 232.5 -47.5t190.5 -131.5t126.5 -193.5t44.5 -233.5q0 -123 -46 -232t-131.5 -194t-196 -130.5t-232.5 -45.5q-161 0 -299.5 81.5t-220 220.5t-81.5 300q0 127 47.5 237.5t131.5 193t195 129t239 46.5zM662 905q-61 0 -125.5 -28t-108.5 -76
q-94 -95 -94 -236q0 -89 43.5 -167.5t119 -123.5t165.5 -45q95 0 171 44.5t119 122.5t43 169t-44 170t-121 124.5t-168 45.5zM555 -356v196h217v-196h-217z" />
    <glyph glyph-name="ohoasac" horiz-adv-x="1720" 
d="M850 1542q213 0 394.5 -105.5t287.5 -289t106 -397.5q0 -215 -106.5 -396t-287.5 -286t-394 -105q-156 0 -301.5 60.5t-255.5 170t-171 254t-61 302.5q0 214 106 397.5t288 289t395 105.5zM850 1270q-140 0 -256 -69t-184 -187.5t-68 -257.5q0 -101 40 -196.5
t111.5 -168.5t163.5 -114t193 -41q136 0 252.5 71t186 191.5t69.5 257.5q0 139 -68 257.5t-184 187.5t-256 69zM770 1647l-74 141l344 203l80 -160z" />
    <glyph glyph-name="ohoahuyen" horiz-adv-x="1720" 
d="M850 1542q213 0 394.5 -105.5t287.5 -289t106 -397.5q0 -215 -106.5 -396t-287.5 -286t-394 -105q-156 0 -301.5 60.5t-255.5 170t-171 254t-61 302.5q0 214 106 397.5t288 289t395 105.5zM850 1270q-140 0 -256 -69t-184 -187.5t-68 -257.5q0 -101 40 -196.5
t111.5 -168.5t163.5 -114t193 -41q136 0 252.5 71t186 191.5t69.5 257.5q0 139 -68 257.5t-184 187.5t-256 69zM666 1835l86 158l340 -207l-80 -141z" />
    <glyph glyph-name="ohoahoi" unicode="&#x1ece;" horiz-adv-x="1720" 
d="M850 1542q213 0 394.5 -105.5t287.5 -289t106 -397.5q0 -215 -106.5 -396t-287.5 -286t-394 -105q-156 0 -301.5 60.5t-255.5 170t-171 254t-61 302.5q0 214 106 397.5t288 289t395 105.5zM850 1270q-140 0 -256 -69t-184 -187.5t-68 -257.5q0 -101 40 -196.5
t111.5 -168.5t163.5 -114t193 -41q136 0 252.5 71t186 191.5t69.5 257.5q0 139 -68 257.5t-184 187.5t-256 69zM831 1866l-153 47q9 85 66.5 129.5t150.5 44.5q65 0 115 -28t77 -74.5t27 -104.5q0 -49 -27.5 -81t-89.5 -77q-32 -19 -45.5 -33t-13.5 -40h-145v14q0 50 31 93
t77 69q26 19 31.5 24t5.5 19q0 53 -55 53q-52 0 -52 -55z" />
    <glyph glyph-name="ohoanga" horiz-adv-x="1720" 
d="M850 1542q213 0 394.5 -105.5t287.5 -289t106 -397.5q0 -215 -106.5 -396t-287.5 -286t-394 -105q-156 0 -301.5 60.5t-255.5 170t-171 254t-61 302.5q0 214 106 397.5t288 289t395 105.5zM850 1270q-140 0 -256 -69t-184 -187.5t-68 -257.5q0 -101 40 -196.5
t111.5 -168.5t163.5 -114t193 -41q136 0 252.5 71t186 191.5t69.5 257.5q0 139 -68 257.5t-184 187.5t-256 69zM676 1651l-76 135q58 55 152 55q38 0 94.5 -21.5t75.5 -21.5q54 0 104 41l76 -129q-72 -65 -146 -65q-30 0 -60.5 9.5l-61 19t-58.5 9.5q-54 0 -100 -32z" />
    <glyph glyph-name="ohoanang" unicode="&#x1ecc;" horiz-adv-x="1720" 
d="M850 1542q213 0 394.5 -105.5t287.5 -289t106 -397.5q0 -215 -106.5 -396t-287.5 -286t-394 -105q-156 0 -301.5 60.5t-255.5 170t-171 254t-61 302.5q0 214 106 397.5t288 289t395 105.5zM850 1270q-140 0 -256 -69t-184 -187.5t-68 -257.5q0 -101 40 -196.5
t111.5 -168.5t163.5 -114t193 -41q136 0 252.5 71t186 191.5t69.5 257.5q0 139 -68 257.5t-184 187.5t-256 69zM741 -356v196h217v-196h-217z" />
    <glyph glyph-name="ithsac" horiz-adv-x="492" 
d="M111 0v1135h272v-1135h-272zM127 1260l-74 141l344 203l80 -160z" />
    <glyph glyph-name="ithhuyen" horiz-adv-x="492" 
d="M111 0v1135h272v-1135h-272zM33 1479l86 157l340 -206l-80 -142z" />
    <glyph glyph-name="ithhoi" unicode="&#x1ec9;" horiz-adv-x="492" 
d="M111 0v1135h272v-1135h-272zM229 1489l-153 47q9 85 66.5 129.5t150.5 44.5q65 0 115 -28t77 -74.5t27 -104.5q0 -48 -27.5 -80t-89.5 -77q-29 -17 -44 -33t-15 -41h-146v14q0 48 30.5 91.5t78.5 70.5q26 19 31.5 24t5.5 19q0 53 -55 53q-52 0 -52 -55z" />
    <glyph glyph-name="ithnga" unicode="&#x129;" horiz-adv-x="492" 
d="M111 0v1135h272v-1135h-272zM63 1264l-75 135q58 55 151 55q40 0 96.5 -21.5t73.5 -21.5q57 0 105 41l75 -129q-35 -32 -70 -49t-75 -17q-30 0 -61 10l-61.5 19.5t-57.5 9.5q-55 0 -101 -32z" />
    <glyph glyph-name="ithnang" unicode="&#x1ecb;" horiz-adv-x="492" 
d="M111 0v1135h272v-1135h-272zM139 1266v196h217v-196h-217zM137 -330v197h217v-197h-217z" />
    <glyph glyph-name="ihoasac" horiz-adv-x="573" 
d="M139 0v1513h281v-1513h-281zM168 1638l-74 142l344 202l80 -159z" />
    <glyph glyph-name="ihoahuyen" horiz-adv-x="573" 
d="M139 0v1513h281v-1513h-281zM53 1847l86 158l340 -207l-80 -141z" />
    <glyph glyph-name="ihoahoi" unicode="&#x1ec8;" horiz-adv-x="573" 
d="M139 0v1513h281v-1513h-281zM260 1858l-154 47q10 85 68 129.5t150 44.5q65 0 115 -28t77 -74.5t27 -104.5q0 -49 -27.5 -81t-89.5 -77q-32 -19 -45.5 -34t-13.5 -40h-146v15q0 51 31.5 94.5t77.5 67.5q12 9 21.5 15.5t12.5 12t3 15.5q0 53 -56 53q-51 0 -51 -55z" />
    <glyph glyph-name="ihoanga" unicode="&#x128;" horiz-adv-x="573" 
d="M139 0v1513h281v-1513h-281zM104 1653l-75 135q58 55 151 55q40 0 96.5 -21.5t73.5 -21.5q55 0 105 41l75 -129q-72 -65 -145 -65q-30 0 -61 10l-61.5 19.5t-57.5 9.5q-53 0 -101 -33z" />
    <glyph glyph-name="ihoanang" unicode="&#x1eca;" horiz-adv-x="573" 
d="M139 0v1513h281v-1513h-281zM170 -340v197h217v-197h-217z" />
    <glyph glyph-name="uthsac" horiz-adv-x="1229" 
d="M848 1135h272v-1135h-250v121h-4q-81 -158 -288 -158q-103 0 -196 39.5t-163 118.5q-48 51 -71.5 108t-30 119.5t-6.5 145.5v641h272v-557q0 -162 35 -232q28 -55 80 -86t114 -31q140 0 188 97.5t48 251.5v557zM555 1239l-74 141l344 203l80 -160z" />
    <glyph glyph-name="uthhuyen" horiz-adv-x="1229" 
d="M848 1135h272v-1135h-250v121h-4q-81 -158 -288 -158q-103 0 -196 39.5t-163 118.5q-48 51 -71.5 108t-30 119.5t-6.5 145.5v641h272v-557q0 -162 35 -232q28 -55 80 -86t114 -31q140 0 188 97.5t48 251.5v557zM389 1448l86 158l340 -207l-80 -142z" />
    <glyph glyph-name="uthhoi" unicode="&#x1ee7;" horiz-adv-x="1229" 
d="M848 1135h272v-1135h-250v121h-4q-81 -158 -288 -158q-103 0 -196 39.5t-163 118.5q-48 51 -71.5 108t-30 119.5t-6.5 145.5v641h272v-557q0 -162 35 -232q28 -55 80 -86t114 -31q140 0 188 97.5t48 251.5v557zM596 1489l-154 47q10 85 68 129.5t149 44.5q66 0 116 -28
t77 -74.5t27 -104.5q0 -48 -27.5 -80t-89.5 -77q-29 -17 -44.5 -32.5t-15.5 -41.5h-145v14q0 50 31 93.5t78 68.5l20.5 15.5t12 12t3.5 15.5q0 53 -55 53q-51 0 -51 -55z" />
    <glyph glyph-name="uthnga" unicode="&#x169;" horiz-adv-x="1229" 
d="M848 1135h272v-1135h-250v121h-4q-81 -158 -288 -158q-103 0 -196 39.5t-163 118.5q-48 51 -71.5 108t-30 119.5t-6.5 145.5v641h272v-557q0 -162 35 -232q28 -55 80 -86t114 -31q140 0 188 97.5t48 251.5v557zM440 1243l-75 135q58 56 151 56q40 0 96.5 -21.5
t73.5 -21.5q57 0 105 41l75 -129q-35 -32 -70 -49t-75 -17q-30 0 -61 10l-61.5 19.5t-57.5 9.5q-55 0 -101 -33z" />
    <glyph glyph-name="uthnang" unicode="&#x1ee5;" horiz-adv-x="1229" 
d="M848 1135h272v-1135h-250v121h-4q-81 -158 -288 -158q-103 0 -196 39.5t-163 118.5q-48 51 -71.5 108t-30 119.5t-6.5 145.5v641h272v-557q0 -162 35 -232q28 -55 80 -86t114 -31q140 0 188 97.5t48 251.5v557zM506 -367v197h217v-197h-217z" />
    <glyph glyph-name="uhoasac" horiz-adv-x="1311" 
d="M139 1513h281v-944q0 -70 4.5 -113.5t24.5 -90.5q30 -59 83 -94t117 -35q57 0 110 30t81 76t34.5 97t6.5 130v944h280v-944q0 -133 -21 -229.5t-89 -179.5q-51 -61 -115 -104.5t-138 -68t-149 -24.5q-103 0 -209 51.5t-178 132.5q-50 57 -78 125.5t-36.5 135.5t-8.5 161
v944zM610 1638l-73 142l344 202l80 -159z" />
    <glyph glyph-name="uhoahuyen" horiz-adv-x="1311" 
d="M139 1513h281v-944q0 -70 4.5 -113.5t24.5 -90.5q30 -59 83 -94t117 -35q57 0 110 30t81 76t34.5 97t6.5 130v944h280v-944q0 -133 -21 -229.5t-89 -179.5q-51 -61 -115 -104.5t-138 -68t-149 -24.5q-103 0 -209 51.5t-178 132.5q-50 57 -78 125.5t-36.5 135.5t-8.5 161
v944zM455 1817l86 157l340 -207l-80 -141z" />
    <glyph glyph-name="uhoahoi" unicode="&#x1ee6;" horiz-adv-x="1311" 
d="M139 1513h281v-944q0 -70 4.5 -113.5t24.5 -90.5q30 -59 83 -94t117 -35q57 0 110 30t81 76t34.5 97t6.5 130v944h280v-944q0 -133 -21 -229.5t-89 -179.5q-51 -61 -115 -104.5t-138 -68t-149 -24.5q-103 0 -209 51.5t-178 132.5q-50 57 -78 125.5t-36.5 135.5t-8.5 161
v944zM621 1868l-154 47q9 85 66.5 129.5t150.5 44.5q65 0 115 -28t77 -74.5t27 -104.5q0 -48 -28.5 -81t-88.5 -77q-32 -19 -45.5 -33t-13.5 -40h-145v14q0 50 31 93t77 69q26 19 31.5 24t5.5 19q0 53 -55 53q-51 0 -51 -55z" />
    <glyph glyph-name="uhoanga" unicode="&#x168;" horiz-adv-x="1311" 
d="M139 1513h281v-944q0 -70 4.5 -113.5t24.5 -90.5q30 -59 83 -94t117 -35q57 0 110 30t81 76t34.5 97t6.5 130v944h280v-944q0 -133 -21 -229.5t-89 -179.5q-51 -61 -115 -104.5t-138 -68t-149 -24.5q-103 0 -209 51.5t-178 132.5q-50 57 -78 125.5t-36.5 135.5t-8.5 161
v944zM475 1642l-76 136q58 55 152 55q40 0 96.5 -21.5t73.5 -21.5q58 0 104 41l76 -129q-35 -32 -70 -49t-75 -17q-30 0 -61 10l-61.5 19.5t-58.5 9.5q-54 0 -100 -33z" />
    <glyph glyph-name="uhoanang" unicode="&#x1ee4;" horiz-adv-x="1311" 
d="M139 1513h281v-944q0 -70 4.5 -113.5t24.5 -90.5q30 -59 83 -94t117 -35q57 0 110 30t81 76t34.5 97t6.5 130v944h280v-944q0 -133 -21 -229.5t-89 -179.5q-51 -61 -115 -104.5t-138 -68t-149 -24.5q-103 0 -209 51.5t-178 132.5q-50 57 -78 125.5t-36.5 135.5t-8.5 161
v944zM541 -367v197h217v-197h-217z" />
    <glyph glyph-name="ythsac" horiz-adv-x="1188" 
d="M219 -379l209 485l-416 1029h310l260 -727l272 727h309l-651 -1514h-293zM559 1249l-74 142l344 202l80 -159z" />
    <glyph glyph-name="ythhuyen" unicode="&#x1ef3;" horiz-adv-x="1188" 
d="M219 -379l209 485l-416 1029h310l260 -727l272 727h309l-651 -1514h-293zM362 1438l87 157l339 -206l-79 -142z" />
    <glyph glyph-name="ythhoi" unicode="&#x1ef7;" horiz-adv-x="1188" 
d="M219 -379l209 485l-416 1029h310l260 -727l272 727h309l-651 -1514h-293zM539 1468l-154 48q9 85 66.5 129.5t150.5 44.5q97 0 158 -59.5t61 -147.5q0 -49 -27 -81t-89 -77q-32 -19 -46 -33.5t-14 -40.5h-145v15q0 51 31 93t77 68q15 11 23 17.5t11 11.5t3 14
q0 54 -55 54q-51 0 -51 -56z" />
    <glyph glyph-name="ythnga" unicode="&#x1ef9;" horiz-adv-x="1188" 
d="M219 -379l209 485l-416 1029h310l260 -727l272 727h309l-651 -1514h-293zM414 1264l-76 135q58 55 151 55q40 0 96.5 -21.5t73.5 -21.5q57 0 105 41l76 -129q-22 -21 -45 -35.5t-48 -22.5t-53 -8q-30 0 -60.5 10l-61 19.5t-58.5 9.5q-55 0 -100 -32z" />
    <glyph glyph-name="ythnang" unicode="&#x1ef5;" horiz-adv-x="1188" 
d="M219 -379l209 485l-416 1029h310l260 -727l272 727h309l-651 -1514h-293zM807 -381v197h217v-197h-217z" />
    <glyph glyph-name="yhoasac" horiz-adv-x="1270" 
d="M504 0v559l-498 954h309l330 -696l330 696h307l-498 -954v-559h-280zM604 1618l-74 141l344 203l80 -160z" />
    <glyph glyph-name="yhoahuyen" unicode="&#x1ef2;" horiz-adv-x="1270" 
d="M504 0v559l-498 954h309l330 -696l330 696h307l-498 -954v-559h-280zM418 1817l86 157l340 -207l-80 -141z" />
    <glyph glyph-name="yhoahoi" unicode="&#x1ef6;" horiz-adv-x="1270" 
d="M504 0v559l-498 954h309l330 -696l330 696h307l-498 -954v-559h-280zM594 1868l-154 47q10 85 68 129.5t149 44.5q66 0 116 -28t77 -74.5t27 -104.5q0 -48 -28.5 -81t-88.5 -77q-32 -19 -46 -33t-14 -40h-145v14q0 50 31 93.5t78 68.5l20.5 15.5t12 12t3.5 15.5
q0 53 -55 53q-51 0 -51 -55z" />
    <glyph glyph-name="yhoanga" unicode="&#x1ef8;" horiz-adv-x="1270" 
d="M504 0v559l-498 954h309l330 -696l330 696h307l-498 -954v-559h-280zM469 1622l-76 135q58 55 152 55q38 0 95.5 -21.5t74.5 -21.5q56 0 104 41l76 -129q-72 -65 -145 -65q-30 0 -61 10l-61.5 19.5t-58.5 9.5q-52 0 -100 -33z" />
    <glyph glyph-name="yhoanang" unicode="&#x1ef4;" horiz-adv-x="1270" 
d="M504 0v559l-498 954h309l330 -696l330 696h307l-498 -954v-559h-280zM535 -330v197h217v-197h-217z" />
    <glyph glyph-name="octhsac" unicode="&#x1edb;" horiz-adv-x="1331" 
d="M674 1171h2q87 0 168 -27t143 -68.5t107.5 -87.5t70.5 -91q43 8 61 33t24.5 78.5t6.5 162.5h158q0 -114 -31 -197t-77 -125t-90 -42q22 -37 36.5 -103.5t14.5 -138.5q0 -123 -46 -232t-131.5 -194t-196 -130.5t-232.5 -45.5q-161 0 -299.5 81.5t-220 220.5t-81.5 300
q0 127 47.5 237.5t131.5 193t195 129t239 46.5zM664 905q-61 0 -125.5 -28t-108.5 -76q-94 -95 -94 -236q0 -89 43.5 -167.5t119 -123.5t165.5 -45q95 0 171 44.5t119 122.5t43 169t-44 170t-121 124.5t-168 45.5zM555 1266l-74 141l344 203l80 -160z" />
    <glyph glyph-name="octhhuyen" unicode="&#x1edd;" horiz-adv-x="1331" 
d="M674 1171h2q87 0 168 -27t143 -68.5t107.5 -87.5t70.5 -91q43 8 61 33t24.5 78.5t6.5 162.5h158q0 -114 -31 -197t-77 -125t-90 -42q22 -37 36.5 -103.5t14.5 -138.5q0 -123 -46 -232t-131.5 -194t-196 -130.5t-232.5 -45.5q-161 0 -299.5 81.5t-220 220.5t-81.5 300
q0 127 47.5 237.5t131.5 193t195 129t239 46.5zM664 905q-61 0 -125.5 -28t-108.5 -76q-94 -95 -94 -236q0 -89 43.5 -167.5t119 -123.5t165.5 -45q95 0 171 44.5t119 122.5t43 169t-44 170t-121 124.5t-168 45.5zM481 1464l86 158l340 -207l-80 -141z" />
    <glyph glyph-name="octhhoi" unicode="&#x1edf;" horiz-adv-x="1331" 
d="M674 1171h2q87 0 168 -27t143 -68.5t107.5 -87.5t70.5 -91q43 8 61 33t24.5 78.5t6.5 162.5h158q0 -114 -31 -197t-77 -125t-90 -42q22 -37 36.5 -103.5t14.5 -138.5q0 -123 -46 -232t-131.5 -194t-196 -130.5t-232.5 -45.5q-161 0 -299.5 81.5t-220 220.5t-81.5 300
q0 127 47.5 237.5t131.5 193t195 129t239 46.5zM664 905q-61 0 -125.5 -28t-108.5 -76q-94 -95 -94 -236q0 -89 43.5 -167.5t119 -123.5t165.5 -45q95 0 171 44.5t119 122.5t43 169t-44 170t-121 124.5t-168 45.5zM627 1505l-154 47q9 85 66.5 129.5t150.5 44.5
q98 0 158.5 -59t60.5 -147q0 -49 -27 -81t-89 -77q-29 -17 -44.5 -32.5t-15.5 -41.5h-145v15q0 51 31 93t77 68q15 11 23 17.5t11 11.5t3 14q0 54 -55 54q-51 0 -51 -56z" />
    <glyph glyph-name="octhnga" unicode="&#x1ee1;" horiz-adv-x="1331" 
d="M674 1171h2q87 0 168 -27t143 -68.5t107.5 -87.5t70.5 -91q43 8 61 33t24.5 78.5t6.5 162.5h158q0 -114 -31 -197t-77 -125t-90 -42q22 -37 36.5 -103.5t14.5 -138.5q0 -123 -46 -232t-131.5 -194t-196 -130.5t-232.5 -45.5q-161 0 -299.5 81.5t-220 220.5t-81.5 300
q0 127 47.5 237.5t131.5 193t195 129t239 46.5zM664 905q-61 0 -125.5 -28t-108.5 -76q-94 -95 -94 -236q0 -89 43.5 -167.5t119 -123.5t165.5 -45q95 0 171 44.5t119 122.5t43 169t-44 170t-121 124.5t-168 45.5zM492 1280l-76 135q58 55 151 55q40 0 96.5 -21.5
t73.5 -21.5q55 0 105 41l76 -129q-73 -65 -146 -65q-16 0 -43 6.5t-52 14.5t-43 13t-42 5q-54 0 -100 -33z" />
    <glyph glyph-name="octhnang" unicode="&#x1ee3;" horiz-adv-x="1331" 
d="M674 1171h2q87 0 168 -27t143 -68.5t107.5 -87.5t70.5 -91q43 8 61 33t24.5 78.5t6.5 162.5h158q0 -114 -31 -197t-77 -125t-90 -42q22 -37 36.5 -103.5t14.5 -138.5q0 -123 -46 -232t-131.5 -194t-196 -130.5t-232.5 -45.5q-161 0 -299.5 81.5t-220 220.5t-81.5 300
q0 127 47.5 237.5t131.5 193t195 129t239 46.5zM664 905q-61 0 -125.5 -28t-108.5 -76q-94 -95 -94 -236q0 -89 43.5 -167.5t119 -123.5t165.5 -45q95 0 171 44.5t119 122.5t43 169t-44 170t-121 124.5t-168 45.5zM557 -356v196h217v-196h-217z" />
    <glyph glyph-name="ochoasac" unicode="&#x1eda;" horiz-adv-x="1720" 
d="M850 1542l2 -2q155 0 277 -44t206 -114t140 -153q61 0 92.5 80t31.5 229h158q0 -126 -32.5 -215.5t-84 -134.5t-106.5 -45q52 -81 79 -171t27 -222q0 -214 -106.5 -395t-289 -286.5t-392.5 -105.5q-157 0 -303.5 61t-256 170t-170.5 252t-61 302q0 217 106 399t288 288.5
t395 106.5zM1362 748q0 141 -69 261t-187.5 189.5t-255.5 69.5l2 -6q-141 0 -258 -70t-183.5 -188t-66.5 -259q0 -138 69 -255.5t186.5 -187t252.5 -69.5q136 0 254 70t187 189t69 256zM791 1647l-74 141l344 203l80 -160z" />
    <glyph glyph-name="ochoahuyen" unicode="&#x1edc;" horiz-adv-x="1720" 
d="M850 1542l2 -2q155 0 277 -44t206 -114t140 -153q61 0 92.5 80t31.5 229h158q0 -126 -32.5 -215.5t-84 -134.5t-106.5 -45q52 -81 79 -171t27 -222q0 -214 -106.5 -395t-289 -286.5t-392.5 -105.5q-157 0 -303.5 61t-256 170t-170.5 252t-61 302q0 217 106 399t288 288.5
t395 106.5zM1362 748q0 141 -69 261t-187.5 189.5t-255.5 69.5l2 -6q-141 0 -258 -70t-183.5 -188t-66.5 -259q0 -138 69 -255.5t186.5 -187t252.5 -69.5q136 0 254 70t187 189t69 256zM686 1845l86 158l340 -207l-80 -141z" />
    <glyph glyph-name="ochoahoi" unicode="&#x1ede;" horiz-adv-x="1720" 
d="M850 1542l2 -2q155 0 277 -44t206 -114t140 -153q61 0 92.5 80t31.5 229h158q0 -126 -32.5 -215.5t-84 -134.5t-106.5 -45q52 -81 79 -171t27 -222q0 -214 -106.5 -395t-289 -286.5t-392.5 -105.5q-157 0 -303.5 61t-256 170t-170.5 252t-61 302q0 217 106 399t288 288.5
t395 106.5zM1362 748q0 141 -69 261t-187.5 189.5t-255.5 69.5l2 -6q-141 0 -258 -70t-183.5 -188t-66.5 -259q0 -138 69 -255.5t186.5 -187t252.5 -69.5q136 0 254 70t187 189t69 256zM811 1855l-154 48q10 85 68 129.5t149 44.5q67 0 116.5 -28t76.5 -74.5t27 -104.5
q0 -49 -27.5 -81t-89.5 -77q-32 -19 -45.5 -34t-13.5 -40h-146v15q0 51 31.5 94.5t77.5 67.5q12 9 21.5 15.5t12.5 12t3 15.5q0 53 -56 53q-51 0 -51 -56z" />
    <glyph glyph-name="ochoanga" unicode="&#x1ee0;" horiz-adv-x="1720" 
d="M850 1542l2 -2q155 0 277 -44t206 -114t140 -153q61 0 92.5 80t31.5 229h158q0 -126 -32.5 -215.5t-84 -134.5t-106.5 -45q52 -81 79 -171t27 -222q0 -214 -106.5 -395t-289 -286.5t-392.5 -105.5q-157 0 -303.5 61t-256 170t-170.5 252t-61 302q0 217 106 399t288 288.5
t395 106.5zM1362 748q0 141 -69 261t-187.5 189.5t-255.5 69.5l2 -6q-141 0 -258 -70t-183.5 -188t-66.5 -259q0 -138 69 -255.5t186.5 -187t252.5 -69.5q136 0 254 70t187 189t69 256zM686 1651l-76 135q58 55 152 55q40 0 96.5 -21.5t73.5 -21.5q56 0 104 41l76 -129
q-72 -65 -145 -65q-30 0 -61 9.5l-61.5 19t-58.5 9.5q-54 0 -100 -32z" />
    <glyph glyph-name="ochoanang" unicode="&#x1ee2;" horiz-adv-x="1720" 
d="M850 1542l2 -2q155 0 277 -44t206 -114t140 -153q61 0 92.5 80t31.5 229h158q0 -126 -32.5 -215.5t-84 -134.5t-106.5 -45q52 -81 79 -171t27 -222q0 -214 -106.5 -395t-289 -286.5t-392.5 -105.5q-157 0 -303.5 61t-256 170t-170.5 252t-61 302q0 217 106 399t288 288.5
t395 106.5zM1362 748q0 141 -69 261t-187.5 189.5t-255.5 69.5l2 -6q-141 0 -258 -70t-183.5 -188t-66.5 -259q0 -138 69 -255.5t186.5 -187t252.5 -69.5q136 0 254 70t187 189t69 256zM731 -356v196h217v-196h-217z" />
    <glyph glyph-name="ucthsac" unicode="&#x1ee9;" horiz-adv-x="1270" 
d="M840 1135h272v-271q57 0 82 63.5t25 207.5h149q-3 -181 -74.5 -276t-181.5 -95v-764h-250v121h-4q-81 -158 -289 -158q-102 0 -195 39.5t-163 118.5q-37 40 -58 80t-33 87.5t-15 99.5t-3 106v641h273v-557q0 -162 35 -232q26 -54 79 -85.5t115 -31.5q140 0 188 97.5
t48 251.5v557zM547 1239l-74 141l344 203l80 -160z" />
    <glyph glyph-name="ucthhuyen" unicode="&#x1eeb;" horiz-adv-x="1270" 
d="M840 1135h272v-271q57 0 82 63.5t25 207.5h149q-3 -181 -74.5 -276t-181.5 -95v-764h-250v121h-4q-81 -158 -289 -158q-102 0 -195 39.5t-163 118.5q-37 40 -58 80t-33 87.5t-15 99.5t-3 106v641h273v-557q0 -162 35 -232q26 -54 79 -85.5t115 -31.5q140 0 188 97.5
t48 251.5v557zM381 1448l86 158l340 -207l-80 -142z" />
    <glyph glyph-name="ucthhoi" unicode="&#x1eed;" horiz-adv-x="1270" 
d="M840 1135h272v-271q57 0 82 63.5t25 207.5h149q-3 -181 -74.5 -276t-181.5 -95v-764h-250v121h-4q-81 -158 -289 -158q-102 0 -195 39.5t-163 118.5q-37 40 -58 80t-33 87.5t-15 99.5t-3 106v641h273v-557q0 -162 35 -232q26 -54 79 -85.5t115 -31.5q140 0 188 97.5
t48 251.5v557zM588 1489l-154 47q9 85 66.5 129.5t150.5 44.5q65 0 115 -28t77 -74.5t27 -104.5q0 -48 -27 -80t-89 -77q-29 -17 -44.5 -32.5t-15.5 -41.5h-145v14q0 50 31 93t77 69q26 19 31.5 24t5.5 19q0 53 -55 53q-51 0 -51 -55z" />
    <glyph glyph-name="ucthnga" unicode="&#x1eef;" horiz-adv-x="1270" 
d="M840 1135h272v-271q57 0 82 63.5t25 207.5h149q-3 -181 -74.5 -276t-181.5 -95v-764h-250v121h-4q-81 -158 -289 -158q-102 0 -195 39.5t-163 118.5q-37 40 -58 80t-33 87.5t-15 99.5t-3 106v641h273v-557q0 -162 35 -232q26 -54 79 -85.5t115 -31.5q140 0 188 97.5
t48 251.5v557zM432 1243l-76 135q59 56 152 56q40 0 96.5 -21.5t73.5 -21.5q58 0 104 41l76 -129q-35 -32 -70 -49t-75 -17q-30 0 -61 10l-61.5 19.5t-58.5 9.5q-54 0 -100 -33z" />
    <glyph glyph-name="ucthnang" unicode="&#x1ef1;" horiz-adv-x="1270" 
d="M840 1135h272v-271q57 0 82 63.5t25 207.5h149q-3 -181 -74.5 -276t-181.5 -95v-764h-250v121h-4q-81 -158 -289 -158q-102 0 -195 39.5t-163 118.5q-37 40 -58 80t-33 87.5t-15 99.5t-3 106v641h273v-557q0 -162 35 -232q26 -54 79 -85.5t115 -31.5q140 0 188 97.5
t48 251.5v557zM498 -367v197h217v-197h-217z" />
    <glyph glyph-name="uchoasac" unicode="&#x1ee8;" horiz-adv-x="1331" 
d="M123 1513h280v-944q0 -70 4.5 -113.5t24.5 -90.5q32 -60 84.5 -94.5t116.5 -34.5q56 0 108.5 29t81.5 77q28 46 34.5 97t6.5 130v944h281v-272q57 0 81.5 62t24.5 208h150q-3 -180 -74.5 -275t-181.5 -95v-572q0 -133 -22.5 -231t-88.5 -178q-77 -91 -182.5 -144
t-218.5 -53q-103 0 -209 51.5t-178 132.5q-53 60 -79.5 125.5t-35 134t-8.5 162.5v944zM594 1638l-74 142l344 202l80 -159z" />
    <glyph glyph-name="uchoahuyen" unicode="&#x1eea;" horiz-adv-x="1331" 
d="M123 1513h280v-944q0 -70 4.5 -113.5t24.5 -90.5q32 -60 84.5 -94.5t116.5 -34.5q56 0 108.5 29t81.5 77q28 46 34.5 97t6.5 130v944h281v-272q57 0 81.5 62t24.5 208h150q-3 -180 -74.5 -275t-181.5 -95v-572q0 -133 -22.5 -231t-88.5 -178q-77 -91 -182.5 -144
t-218.5 -53q-103 0 -209 51.5t-178 132.5q-53 60 -79.5 125.5t-35 134t-8.5 162.5v944zM438 1817l86 157l340 -207l-80 -141z" />
    <glyph glyph-name="uchoahoi" unicode="&#x1eec;" horiz-adv-x="1331" 
d="M123 1513h280v-944q0 -70 4.5 -113.5t24.5 -90.5q32 -60 84.5 -94.5t116.5 -34.5q56 0 108.5 29t81.5 77q28 46 34.5 97t6.5 130v944h281v-272q57 0 81.5 62t24.5 208h150q-3 -180 -74.5 -275t-181.5 -95v-572q0 -133 -22.5 -231t-88.5 -178q-77 -91 -182.5 -144
t-218.5 -53q-103 0 -209 51.5t-178 132.5q-53 60 -79.5 125.5t-35 134t-8.5 162.5v944zM604 1868l-153 47q9 85 66.5 129.5t150.5 44.5q65 0 115 -28t77 -74.5t27 -104.5q0 -48 -28.5 -81t-88.5 -77q-32 -19 -45.5 -33.5t-13.5 -39.5h-146v14q0 50 31 93.5t78 68.5
q12 9 21.5 15.5t12.5 12t3 15.5q0 53 -56 53q-51 0 -51 -55z" />
    <glyph glyph-name="uchoanga" unicode="&#x1eee;" horiz-adv-x="1331" 
d="M123 1513h280v-944q0 -70 4.5 -113.5t24.5 -90.5q32 -60 84.5 -94.5t116.5 -34.5q56 0 108.5 29t81.5 77q28 46 34.5 97t6.5 130v944h281v-272q57 0 81.5 62t24.5 208h150q-3 -180 -74.5 -275t-181.5 -95v-572q0 -133 -22.5 -231t-88.5 -178q-77 -91 -182.5 -144
t-218.5 -53q-103 0 -209 51.5t-178 132.5q-53 60 -79.5 125.5t-35 134t-8.5 162.5v944zM459 1642l-76 136q58 55 152 55q38 0 94.5 -21.5t75.5 -21.5q56 0 104 41l76 -129q-22 -21 -45 -35.5t-48 -22.5t-53 -8q-30 0 -60.5 10l-61 19.5t-58.5 9.5q-56 0 -100 -33z" />
    <glyph glyph-name="uchoanang" unicode="&#x1ef0;" horiz-adv-x="1331" 
d="M123 1513h280v-944q0 -70 4.5 -113.5t24.5 -90.5q32 -60 84.5 -94.5t116.5 -34.5q56 0 108.5 29t81.5 77q28 46 34.5 97t6.5 130v944h281v-272q57 0 81.5 62t24.5 208h150q-3 -180 -74.5 -275t-181.5 -95v-572q0 -133 -22.5 -231t-88.5 -178q-77 -91 -182.5 -144
t-218.5 -53q-103 0 -209 51.5t-178 132.5q-53 60 -79.5 125.5t-35 134t-8.5 162.5v944zM524 -367v197h217v-197h-217z" />
    <glyph glyph-name="aathsac" unicode="&#x1eaf;" horiz-adv-x="1352" 
d="M1260 1135v-1135h-250v154h-4q-62 -87 -169.5 -139t-215.5 -52q-127 0 -234 50t-184 141q-142 170 -142 413q0 76 14.5 148.5t46 135t85.5 124.5q86 100 191.5 148t230.5 48q117 0 215.5 -50t165.5 -146v160h250zM1001 569q0 72 -24 133.5t-67 106.5t-104 70.5t-132 25.5
q-149 0 -244.5 -98.5t-95.5 -249.5q0 -138 99 -233t237 -95q96 0 172 44.5t117.5 122t41.5 173.5zM489 1481h152q11 -27 39.5 -43.5t60.5 -16.5q33 0 61.5 16.5t39.5 43.5h151q-12 -102 -79.5 -154.5t-172.5 -52.5q-104 0 -171.5 52t-80.5 155zM702 1554l-73 142l344 202
l80 -159z" />
    <glyph glyph-name="aathhuyen" unicode="&#x1eb1;" horiz-adv-x="1352" 
d="M1260 1135v-1135h-250v154h-4q-62 -87 -169.5 -139t-215.5 -52q-127 0 -234 50t-184 141q-142 170 -142 413q0 76 14.5 148.5t46 135t85.5 124.5q86 100 191.5 148t230.5 48q117 0 215.5 -50t165.5 -146v160h250zM1001 569q0 72 -24 133.5t-67 106.5t-104 70.5t-132 25.5
q-149 0 -244.5 -98.5t-95.5 -249.5q0 -138 99 -233t237 -95q96 0 172 44.5t117.5 122t41.5 173.5zM489 1481h152q11 -27 39.5 -43.5t60.5 -16.5q33 0 61.5 16.5t39.5 43.5h151q-12 -102 -79.5 -154.5t-172.5 -52.5q-104 0 -171.5 52t-80.5 155zM424 1763l86 158l340 -207
l-80 -141z" />
    <glyph glyph-name="aathhoi" unicode="&#x1eb3;" horiz-adv-x="1352" 
d="M1260 1135v-1135h-250v154h-4q-62 -87 -169.5 -139t-215.5 -52q-127 0 -234 50t-184 141q-142 170 -142 413q0 76 14.5 148.5t46 135t85.5 124.5q86 100 191.5 148t230.5 48q117 0 215.5 -50t165.5 -146v160h250zM1001 569q0 72 -24 133.5t-67 106.5t-104 70.5t-132 25.5
q-149 0 -244.5 -98.5t-95.5 -249.5q0 -138 99 -233t237 -95q96 0 172 44.5t117.5 122t41.5 173.5zM489 1481h152q11 -27 39.5 -43.5t60.5 -16.5q33 0 61.5 16.5t39.5 43.5h151q-12 -102 -79.5 -154.5t-172.5 -52.5q-104 0 -171.5 52t-80.5 155zM692 1794l-153 47
q9 85 66.5 129.5t150.5 44.5q65 0 115 -28t77 -74.5t27 -104.5q0 -48 -27.5 -80t-89.5 -77q-29 -17 -44 -33t-15 -41h-146v14q0 50 31 93.5t78 68.5q15 11 23 17.5t11 11.5t3 14q0 53 -56 53q-51 0 -51 -55z" />
    <glyph glyph-name="aathnga" unicode="&#x1eb5;" horiz-adv-x="1352" 
d="M1260 1135v-1135h-250v154h-4q-62 -87 -169.5 -139t-215.5 -52q-127 0 -234 50t-184 141q-142 170 -142 413q0 76 14.5 148.5t46 135t85.5 124.5q86 100 191.5 148t230.5 48q117 0 215.5 -50t165.5 -146v160h250zM1001 569q0 72 -24 133.5t-67 106.5t-104 70.5t-132 25.5
q-149 0 -244.5 -98.5t-95.5 -249.5q0 -138 99 -233t237 -95q96 0 172 44.5t117.5 122t41.5 173.5zM489 1481h152q11 -27 39.5 -43.5t60.5 -16.5q33 0 61.5 16.5t39.5 43.5h151q-12 -102 -79.5 -154.5t-172.5 -52.5q-104 0 -171.5 52t-80.5 155zM547 1589l-76 135
q59 56 152 56q38 0 94.5 -21.5t75.5 -21.5q56 0 104 41l76 -129q-22 -21 -45 -35.5t-48 -22.5t-53 -8q-30 0 -60.5 10l-61 19.5t-58.5 9.5q-56 0 -100 -33z" />
    <glyph glyph-name="aathnang" unicode="&#x1eb7;" horiz-adv-x="1352" 
d="M1260 1135v-1135h-250v154h-4q-62 -87 -169.5 -139t-215.5 -52q-127 0 -234 50t-184 141q-142 170 -142 413q0 76 14.5 148.5t46 135t85.5 124.5q86 100 191.5 148t230.5 48q117 0 215.5 -50t165.5 -146v160h250zM1001 569q0 72 -24 133.5t-67 106.5t-104 70.5t-132 25.5
q-149 0 -244.5 -98.5t-95.5 -249.5q0 -138 99 -233t237 -95q96 0 172 44.5t117.5 122t41.5 173.5zM489 1481h152q11 -27 39.5 -43.5t60.5 -16.5q33 0 61.5 16.5t39.5 43.5h151q-12 -102 -79.5 -154.5t-172.5 -52.5q-104 0 -171.5 52t-80.5 155zM551 -356v196h217v-196h-217z
" />
    <glyph glyph-name="aahoasac" unicode="&#x1eae;" horiz-adv-x="1516" 
d="M14 0l631 1513h219l637 -1513h-309l-164 391h-536l-168 -391h-310zM594 664h324l-162 458zM508 1800h151q13 -28 41 -43.5t60 -15.5q33 0 60.5 15.5t39.5 43.5h152q-12 -100 -80 -153.5t-172 -53.5q-103 0 -171.5 53t-80.5 154zM721 1874l-74 141l344 203l80 -160z" />
    <glyph glyph-name="aahoahuyen" unicode="&#x1eb0;" horiz-adv-x="1516" 
d="M14 0l631 1513h219l637 -1513h-309l-164 391h-536l-168 -391h-310zM594 664h324l-162 458zM508 1800h151q13 -28 41 -43.5t60 -15.5q33 0 60.5 15.5t39.5 43.5h152q-12 -100 -80 -153.5t-172 -53.5q-103 0 -171.5 53t-80.5 154zM432 2073l86 157l340 -207l-80 -141z" />
    <glyph glyph-name="aahoahoi" unicode="&#x1eb2;" horiz-adv-x="1516" 
d="M14 0l631 1513h219l637 -1513h-309l-164 391h-536l-168 -391h-310zM594 664h324l-162 458zM508 1800h151q13 -28 41 -43.5t60 -15.5q33 0 60.5 15.5t39.5 43.5h152q-12 -100 -80 -153.5t-172 -53.5q-103 0 -171.5 53t-80.5 154zM721 2093l-154 47q10 85 68 129.5
t149 44.5q66 0 116 -28t77 -74.5t27 -104.5q0 -48 -27.5 -80t-89.5 -77q-29 -17 -44.5 -32.5t-15.5 -41.5h-145v14q0 50 31 93.5t78 68.5q10 9 20 16.5t13 12.5t3 14q0 53 -55 53q-51 0 -51 -55z" />
    <glyph glyph-name="aahoanga" unicode="&#x1eb4;" horiz-adv-x="1516" 
d="M14 0l631 1513h219l637 -1513h-309l-164 391h-536l-168 -391h-310zM594 664h324l-162 458zM508 1800h151q13 -28 41 -43.5t60 -15.5q33 0 60.5 15.5t39.5 43.5h152q-12 -100 -80 -153.5t-172 -53.5q-103 0 -171.5 53t-80.5 154zM565 1909l-76 135q58 55 152 55
q40 0 96.5 -21.5t73.5 -21.5q56 0 104 41l76 -129q-72 -65 -145 -65q-30 0 -61 10l-61.5 19.5t-57.5 9.5q-53 0 -101 -33z" />
    <glyph glyph-name="aahoanang" unicode="&#x1eb6;" horiz-adv-x="1516" 
d="M14 0l631 1513h219l637 -1513h-309l-164 391h-536l-168 -391h-310zM594 664h324l-162 458zM508 1800h151q13 -28 41 -43.5t60 -15.5q33 0 60.5 15.5t39.5 43.5h152q-12 -100 -80 -153.5t-172 -53.5q-103 0 -171.5 53t-80.5 154zM662 -324v197h217v-197h-217z" />
    <glyph glyph-name="abthsac" unicode="&#x1ea5;" horiz-adv-x="1352" 
d="M1260 1135v-1135h-250v154h-4q-62 -87 -169.5 -139t-215.5 -52q-127 0 -234 50t-184 141q-142 170 -142 413q0 76 14.5 148.5t46 135t85.5 124.5q86 100 191.5 148t230.5 48q117 0 215.5 -50t165.5 -146v160h250zM1001 569q0 72 -24 133.5t-67 106.5t-104 70.5t-132 25.5
q-149 0 -244.5 -98.5t-95.5 -249.5q0 -138 99 -233t237 -95q96 0 172 44.5t117.5 122t41.5 173.5zM397 1276l226 211h159l224 -211h-222l-82 98l-84 -98h-221zM969 1448l-74 141l344 203l80 -160z" />
    <glyph glyph-name="abthhuyen" unicode="&#x1ea7;" horiz-adv-x="1352" 
d="M1260 1135v-1135h-250v154h-4q-62 -87 -169.5 -139t-215.5 -52q-127 0 -234 50t-184 141q-142 170 -142 413q0 76 14.5 148.5t46 135t85.5 124.5q86 100 191.5 148t230.5 48q117 0 215.5 -50t165.5 -146v160h250zM1001 569q0 72 -24 133.5t-67 106.5t-104 70.5t-132 25.5
q-149 0 -244.5 -98.5t-95.5 -249.5q0 -138 99 -233t237 -95q96 0 172 44.5t117.5 122t41.5 173.5zM397 1276l226 211h159l224 -211h-222l-82 98l-84 -98h-221zM639 1677l86 158l340 -207l-80 -141z" />
    <glyph glyph-name="abthhoi" unicode="&#x1ea9;" horiz-adv-x="1352" 
d="M1260 1135v-1135h-250v154h-4q-62 -87 -169.5 -139t-215.5 -52q-127 0 -234 50t-184 141q-142 170 -142 413q0 76 14.5 148.5t46 135t85.5 124.5q86 100 191.5 148t230.5 48q117 0 215.5 -50t165.5 -146v160h250zM1001 569q0 72 -24 133.5t-67 106.5t-104 70.5t-132 25.5
q-149 0 -244.5 -98.5t-95.5 -249.5q0 -138 99 -233t237 -95q96 0 172 44.5t117.5 122t41.5 173.5zM397 1276l226 211h159l224 -211h-222l-82 98l-84 -98h-221zM979 1657l-154 47q10 85 68 129.5t149 44.5q66 0 116 -28t77 -74.5t27 -104.5q0 -48 -28.5 -81t-88.5 -77
q-32 -19 -46 -33t-14 -40h-145v14q0 50 31 93.5t78 68.5l20.5 15.5t12 12t3.5 15.5q0 53 -55 53q-51 0 -51 -55z" />
    <glyph glyph-name="abthnga" unicode="&#x1eab;" horiz-adv-x="1352" 
d="M1260 1135v-1135h-250v154h-4q-62 -87 -169.5 -139t-215.5 -52q-127 0 -234 50t-184 141q-142 170 -142 413q0 76 14.5 148.5t46 135t85.5 124.5q86 100 191.5 148t230.5 48q117 0 215.5 -50t165.5 -146v160h250zM1001 569q0 72 -24 133.5t-67 106.5t-104 70.5t-132 25.5
q-149 0 -244.5 -98.5t-95.5 -249.5q0 -138 99 -233t237 -95q96 0 172 44.5t117.5 122t41.5 173.5zM397 1276l226 211h159l224 -211h-222l-82 98l-84 -98h-221zM516 1595l-76 136q60 55 152 55q40 0 96.5 -21.5t73.5 -21.5q58 0 104 41l76 -129q-35 -32 -70 -49t-75 -17
q-30 0 -61 10l-61.5 19.5t-58.5 9.5q-54 0 -100 -33z" />
    <glyph glyph-name="abthnang" unicode="&#x1ead;" horiz-adv-x="1352" 
d="M1260 1135v-1135h-250v154h-4q-62 -87 -169.5 -139t-215.5 -52q-127 0 -234 50t-184 141q-142 170 -142 413q0 76 14.5 148.5t46 135t85.5 124.5q86 100 191.5 148t230.5 48q117 0 215.5 -50t165.5 -146v160h250zM1001 569q0 72 -24 133.5t-67 106.5t-104 70.5t-132 25.5
q-149 0 -244.5 -98.5t-95.5 -249.5q0 -138 99 -233t237 -95q96 0 172 44.5t117.5 122t41.5 173.5zM397 1276l226 211h159l224 -211h-222l-82 98l-84 -98h-221zM551 -356v196h217v-196h-217z" />
    <glyph glyph-name="abhoasac" unicode="&#x1ea4;" horiz-adv-x="1516" 
d="M14 0l631 1513h219l637 -1513h-309l-164 391h-536l-168 -391h-310zM594 664h324l-162 458zM457 1616l225 211h160l223 -211h-221l-82 98l-84 -98h-221zM1028 1788l-74 141l344 203l80 -160z" />
    <glyph glyph-name="abhoahuyen" unicode="&#x1ea6;" horiz-adv-x="1516" 
d="M14 0l631 1513h219l637 -1513h-309l-164 391h-536l-168 -391h-310zM594 664h324l-162 458zM457 1616l225 211h160l223 -211h-221l-82 98l-84 -98h-221zM698 2017l86 158l340 -207l-80 -141z" />
    <glyph glyph-name="abhoahoi" unicode="&#x1ea8;" horiz-adv-x="1516" 
d="M14 0l631 1513h219l637 -1513h-309l-164 391h-536l-168 -391h-310zM594 664h324l-162 458zM457 1616l225 211h160l223 -211h-221l-82 98l-84 -98h-221zM1038 1997l-153 47q9 85 66.5 129.5t150.5 44.5q65 0 115 -28t77 -74.5t27 -104.5q0 -48 -28.5 -81t-88.5 -77
q-32 -19 -45.5 -33.5t-13.5 -39.5h-146v14q0 48 30.5 91.5t78.5 70.5q26 19 31.5 24t5.5 19q0 53 -55 53q-52 0 -52 -55z" />
    <glyph glyph-name="abhoanga" unicode="&#x1eaa;" horiz-adv-x="1516" 
d="M14 0l631 1513h219l637 -1513h-309l-164 391h-536l-168 -391h-310zM594 664h324l-162 458zM457 1616l225 211h160l223 -211h-221l-82 98l-84 -98h-221zM575 1935l-75 136q60 55 151 55q40 0 96.5 -21.5t73.5 -21.5q57 0 105 41l75 -129q-35 -32 -70 -49t-75 -17
q-30 0 -61 10l-61.5 19.5t-57.5 9.5q-55 0 -101 -33z" />
    <glyph glyph-name="abhoanang" unicode="&#x1eac;" horiz-adv-x="1516" 
d="M14 0l631 1513h219l637 -1513h-309l-164 391h-536l-168 -391h-310zM594 664h324l-162 458zM457 1616l225 211h160l223 -211h-221l-82 98l-84 -98h-221zM662 -324v197h217v-197h-217z" />
    <glyph glyph-name="ebthsac" unicode="&#x1ebf;" horiz-adv-x="1311" 
d="M1231 446h-881q32 -99 114.5 -158t184.5 -59q76 0 145.5 26.5t108.5 72.5h301q-34 -100 -117.5 -184t-197 -132.5t-230.5 -48.5q-163 0 -300 80t-217.5 218t-80.5 298q0 166 79.5 306.5t218 223t305.5 82.5q120 0 226 -47.5t185.5 -130t124.5 -191.5t45 -227
q0 -29 -14 -129zM346 688h625q-22 66 -69 115.5t-108.5 75.5t-131.5 26q-105 0 -195 -60.5t-121 -156.5zM346 1272l225 211h160l223 -211h-221l-82 98l-84 -98h-221zM918 1444l-74 141l344 203l80 -160z" />
    <glyph glyph-name="ebthhuyen" unicode="&#x1ec1;" horiz-adv-x="1311" 
d="M1231 446h-881q32 -99 114.5 -158t184.5 -59q76 0 145.5 26.5t108.5 72.5h301q-34 -100 -117.5 -184t-197 -132.5t-230.5 -48.5q-163 0 -300 80t-217.5 218t-80.5 298q0 166 79.5 306.5t218 223t305.5 82.5q120 0 226 -47.5t185.5 -130t124.5 -191.5t45 -227
q0 -29 -14 -129zM346 688h625q-22 66 -69 115.5t-108.5 75.5t-131.5 26q-105 0 -195 -60.5t-121 -156.5zM346 1272l225 211h160l223 -211h-221l-82 98l-84 -98h-221zM588 1673l86 158l340 -207l-80 -141z" />
    <glyph glyph-name="ebthhoi" unicode="&#x1ec3;" horiz-adv-x="1311" 
d="M1231 446h-881q32 -99 114.5 -158t184.5 -59q76 0 145.5 26.5t108.5 72.5h301q-34 -100 -117.5 -184t-197 -132.5t-230.5 -48.5q-163 0 -300 80t-217.5 218t-80.5 298q0 166 79.5 306.5t218 223t305.5 82.5q120 0 226 -47.5t185.5 -130t124.5 -191.5t45 -227
q0 -29 -14 -129zM346 688h625q-22 66 -69 115.5t-108.5 75.5t-131.5 26q-105 0 -195 -60.5t-121 -156.5zM346 1272l225 211h160l223 -211h-221l-82 98l-84 -98h-221zM928 1653l-154 47q9 85 66.5 129.5t150.5 44.5q65 0 115 -28t77 -74.5t27 -104.5q0 -49 -27 -81t-89 -77
q-32 -19 -46 -33t-14 -40h-145v14q0 50 31 93t77 69q26 19 31.5 24t5.5 19q0 53 -55 53q-51 0 -51 -55z" />
    <glyph glyph-name="ebthnga" unicode="&#x1ec5;" horiz-adv-x="1311" 
d="M1231 446h-881q32 -99 114.5 -158t184.5 -59q76 0 145.5 26.5t108.5 72.5h301q-34 -100 -117.5 -184t-197 -132.5t-230.5 -48.5q-163 0 -300 80t-217.5 218t-80.5 298q0 166 79.5 306.5t218 223t305.5 82.5q120 0 226 -47.5t185.5 -130t124.5 -191.5t45 -227
q0 -29 -14 -129zM346 688h625q-22 66 -69 115.5t-108.5 75.5t-131.5 26q-105 0 -195 -60.5t-121 -156.5zM346 1272l225 211h160l223 -211h-221l-82 98l-84 -98h-221zM465 1591l-76 135q59 56 152 56q38 0 95.5 -21.5t74.5 -21.5q56 0 104 41l76 -129q-22 -21 -45 -35.5
t-48 -22.5t-53 -8q-30 0 -60.5 10l-61 19.5t-58.5 9.5q-54 0 -100 -33z" />
    <glyph glyph-name="ebthnang" unicode="&#x1ec7;" horiz-adv-x="1311" 
d="M1231 446h-881q32 -99 114.5 -158t184.5 -59q76 0 145.5 26.5t108.5 72.5h301q-34 -100 -117.5 -184t-197 -132.5t-230.5 -48.5q-163 0 -300 80t-217.5 218t-80.5 298q0 166 79.5 306.5t218 223t305.5 82.5q120 0 226 -47.5t185.5 -130t124.5 -191.5t45 -227
q0 -29 -14 -129zM346 688h625q-22 66 -69 115.5t-108.5 75.5t-131.5 26q-105 0 -195 -60.5t-121 -156.5zM346 1272l225 211h160l223 -211h-221l-82 98l-84 -98h-221zM500 -360v196h217v-196h-217z" />
    <glyph glyph-name="ebhoasac" unicode="&#x1ebe;" horiz-adv-x="1065" 
d="M139 0v1513h813v-272h-532v-348h510v-272h-510v-349h532v-272h-813zM231 1616l226 211h159l224 -211h-222l-81 98l-84 -98h-222zM803 1788l-74 141l344 203l80 -160z" />
    <glyph glyph-name="ebhoahuyen" unicode="&#x1ec0;" horiz-adv-x="1065" 
d="M139 0v1513h813v-272h-532v-348h510v-272h-510v-349h532v-272h-813zM231 1616l226 211h159l224 -211h-222l-81 98l-84 -98h-222zM473 2017l86 158l340 -207l-80 -141z" />
    <glyph glyph-name="ebhoahoi" unicode="&#x1ec2;" horiz-adv-x="1065" 
d="M139 0v1513h813v-272h-532v-348h510v-272h-510v-349h532v-272h-813zM231 1616l226 211h159l224 -211h-222l-81 98l-84 -98h-222zM813 1997l-154 47q10 85 68 129.5t150 44.5q65 0 115 -28t77 -74.5t27 -104.5q0 -48 -28.5 -81t-88.5 -77q-32 -19 -45.5 -33.5t-13.5 -39.5
h-146v14q0 50 31 93.5t78 68.5q12 9 21.5 15.5t12.5 12t3 15.5q0 53 -56 53q-51 0 -51 -55z" />
    <glyph glyph-name="ebhoanga" unicode="&#x1ec4;" horiz-adv-x="1065" 
d="M139 0v1513h813v-272h-532v-348h510v-272h-510v-349h532v-272h-813zM231 1616l226 211h159l224 -211h-222l-81 98l-84 -98h-222zM350 1935l-76 136q60 55 152 55q40 0 96.5 -21.5t73.5 -21.5q58 0 104 41l76 -129q-35 -32 -70 -49t-75 -17q-30 0 -61 10l-61.5 19.5
t-57.5 9.5q-55 0 -101 -33z" />
    <glyph glyph-name="ebhoanang" unicode="&#x1ec6;" horiz-adv-x="1065" 
d="M139 0v1513h813v-272h-532v-348h510v-272h-510v-349h532v-272h-813zM231 1616l226 211h159l224 -211h-222l-81 98l-84 -98h-222zM395 -324v197h217v-197h-217z" />
    <glyph glyph-name="obthsac" unicode="&#x1ed1;" horiz-adv-x="1311" 
d="M674 1171q124 0 232.5 -47.5t190.5 -131.5t126.5 -193.5t44.5 -233.5q0 -123 -46 -232t-131.5 -194t-196 -130.5t-232.5 -45.5q-161 0 -299.5 81.5t-220 220.5t-81.5 300q0 127 47.5 237.5t131.5 193t195 129t239 46.5zM662 905q-61 0 -125.5 -28t-108.5 -76
q-94 -95 -94 -236q0 -89 43.5 -167.5t119 -123.5t165.5 -45q95 0 171 44.5t119 122.5t43 169t-44 170t-121 124.5t-168 45.5zM354 1274l226 211h159l224 -211h-222l-82 98l-84 -98h-221zM926 1446l-74 141l344 203l80 -160z" />
    <glyph glyph-name="obthhuyen" unicode="&#x1ed3;" horiz-adv-x="1311" 
d="M674 1171q124 0 232.5 -47.5t190.5 -131.5t126.5 -193.5t44.5 -233.5q0 -123 -46 -232t-131.5 -194t-196 -130.5t-232.5 -45.5q-161 0 -299.5 81.5t-220 220.5t-81.5 300q0 127 47.5 237.5t131.5 193t195 129t239 46.5zM662 905q-61 0 -125.5 -28t-108.5 -76
q-94 -95 -94 -236q0 -89 43.5 -167.5t119 -123.5t165.5 -45q95 0 171 44.5t119 122.5t43 169t-44 170t-121 124.5t-168 45.5zM354 1274l226 211h159l224 -211h-222l-82 98l-84 -98h-221zM596 1675l86 158l340 -207l-80 -141z" />
    <glyph glyph-name="obthhoi" unicode="&#x1ed5;" horiz-adv-x="1311" 
d="M674 1171q124 0 232.5 -47.5t190.5 -131.5t126.5 -193.5t44.5 -233.5q0 -123 -46 -232t-131.5 -194t-196 -130.5t-232.5 -45.5q-161 0 -299.5 81.5t-220 220.5t-81.5 300q0 127 47.5 237.5t131.5 193t195 129t239 46.5zM662 905q-61 0 -125.5 -28t-108.5 -76
q-94 -95 -94 -236q0 -89 43.5 -167.5t119 -123.5t165.5 -45q95 0 171 44.5t119 122.5t43 169t-44 170t-121 124.5t-168 45.5zM354 1274l226 211h159l224 -211h-222l-82 98l-84 -98h-221zM936 1655l-154 47q10 85 68 129.5t149 44.5q66 0 116 -28t77 -74.5t27 -104.5
q0 -48 -28.5 -81t-88.5 -77q-32 -19 -46 -33t-14 -40h-145v14q0 50 31 93.5t78 68.5l20.5 15.5t12 12t3.5 15.5q0 53 -55 53q-51 0 -51 -55z" />
    <glyph glyph-name="obthnga" unicode="&#x1ed7;" horiz-adv-x="1311" 
d="M674 1171q124 0 232.5 -47.5t190.5 -131.5t126.5 -193.5t44.5 -233.5q0 -123 -46 -232t-131.5 -194t-196 -130.5t-232.5 -45.5q-161 0 -299.5 81.5t-220 220.5t-81.5 300q0 127 47.5 237.5t131.5 193t195 129t239 46.5zM662 905q-61 0 -125.5 -28t-108.5 -76
q-94 -95 -94 -236q0 -89 43.5 -167.5t119 -123.5t165.5 -45q95 0 171 44.5t119 122.5t43 169t-44 170t-121 124.5t-168 45.5zM354 1274l226 211h159l224 -211h-222l-82 98l-84 -98h-221zM473 1593l-76 136q60 55 152 55q40 0 96.5 -21.5t73.5 -21.5q58 0 104 41l76 -129
q-35 -32 -70 -49t-75 -17q-30 0 -61 10l-61.5 19.5t-58.5 9.5q-54 0 -100 -33z" />
    <glyph glyph-name="obthnang" unicode="&#x1ed9;" horiz-adv-x="1311" 
d="M674 1171q124 0 232.5 -47.5t190.5 -131.5t126.5 -193.5t44.5 -233.5q0 -123 -46 -232t-131.5 -194t-196 -130.5t-232.5 -45.5q-161 0 -299.5 81.5t-220 220.5t-81.5 300q0 127 47.5 237.5t131.5 193t195 129t239 46.5zM662 905q-61 0 -125.5 -28t-108.5 -76
q-94 -95 -94 -236q0 -89 43.5 -167.5t119 -123.5t165.5 -45q95 0 171 44.5t119 122.5t43 169t-44 170t-121 124.5t-168 45.5zM354 1274l226 211h159l224 -211h-222l-82 98l-84 -98h-221zM508 -358v196h217v-196h-217z" />
    <glyph glyph-name="obhoasac" unicode="&#x1ed0;" horiz-adv-x="1720" 
d="M850 1542q213 0 394.5 -105.5t287.5 -289t106 -397.5q0 -215 -106.5 -396t-287.5 -286t-394 -105q-156 0 -301.5 60.5t-255.5 170t-171 254t-61 302.5q0 214 106 397.5t288 289t395 105.5zM850 1270q-140 0 -256 -69t-184 -187.5t-68 -257.5q0 -101 40 -196.5
t111.5 -168.5t163.5 -114t193 -41q136 0 252.5 71t186 191.5t69.5 257.5q0 139 -68 257.5t-184 187.5t-256 69zM543 1618l225 211h160l223 -211h-221l-82 98l-84 -98h-221zM1114 1790l-74 141l344 203l80 -160z" />
    <glyph glyph-name="obhoahuyen" unicode="&#x1ed2;" horiz-adv-x="1720" 
d="M850 1542q213 0 394.5 -105.5t287.5 -289t106 -397.5q0 -215 -106.5 -396t-287.5 -286t-394 -105q-156 0 -301.5 60.5t-255.5 170t-171 254t-61 302.5q0 214 106 397.5t288 289t395 105.5zM850 1270q-140 0 -256 -69t-184 -187.5t-68 -257.5q0 -101 40 -196.5
t111.5 -168.5t163.5 -114t193 -41q136 0 252.5 71t186 191.5t69.5 257.5q0 139 -68 257.5t-184 187.5t-256 69zM543 1618l225 211h160l223 -211h-221l-82 98l-84 -98h-221zM784 2019l86 158l340 -207l-80 -141z" />
    <glyph glyph-name="obhoahoi" unicode="&#x1ed4;" horiz-adv-x="1720" 
d="M850 1542q213 0 394.5 -105.5t287.5 -289t106 -397.5q0 -215 -106.5 -396t-287.5 -286t-394 -105q-156 0 -301.5 60.5t-255.5 170t-171 254t-61 302.5q0 214 106 397.5t288 289t395 105.5zM850 1270q-140 0 -256 -69t-184 -187.5t-68 -257.5q0 -101 40 -196.5
t111.5 -168.5t163.5 -114t193 -41q136 0 252.5 71t186 191.5t69.5 257.5q0 139 -68 257.5t-184 187.5t-256 69zM543 1618l225 211h160l223 -211h-221l-82 98l-84 -98h-221zM1124 1999l-153 47q9 85 66.5 129.5t150.5 44.5q65 0 115 -28t77 -74.5t27 -104.5q0 -48 -28.5 -81
t-88.5 -77q-32 -19 -45.5 -33.5t-13.5 -39.5h-146v14q0 48 30.5 91.5t78.5 70.5q26 19 31.5 24t5.5 19q0 53 -55 53q-52 0 -52 -55z" />
    <glyph glyph-name="obhoanga" unicode="&#x1ed6;" horiz-adv-x="1720" 
d="M850 1542q213 0 394.5 -105.5t287.5 -289t106 -397.5q0 -215 -106.5 -396t-287.5 -286t-394 -105q-156 0 -301.5 60.5t-255.5 170t-171 254t-61 302.5q0 214 106 397.5t288 289t395 105.5zM850 1270q-140 0 -256 -69t-184 -187.5t-68 -257.5q0 -101 40 -196.5
t111.5 -168.5t163.5 -114t193 -41q136 0 252.5 71t186 191.5t69.5 257.5q0 139 -68 257.5t-184 187.5t-256 69zM543 1618l225 211h160l223 -211h-221l-82 98l-84 -98h-221zM662 1937l-76 136q60 55 151 55q40 0 96.5 -21.5t73.5 -21.5q57 0 105 41l75 -129q-35 -32 -70 -49
t-75 -17q-30 0 -61 10l-61.5 19.5t-57.5 9.5q-56 0 -100 -33z" />
    <glyph glyph-name="obhoanang" unicode="&#x1ed8;" horiz-adv-x="1720" 
d="M850 1542q213 0 394.5 -105.5t287.5 -289t106 -397.5q0 -215 -106.5 -396t-287.5 -286t-394 -105q-156 0 -301.5 60.5t-255.5 170t-171 254t-61 302.5q0 214 106 397.5t288 289t395 105.5zM850 1270q-140 0 -256 -69t-184 -187.5t-68 -257.5q0 -101 40 -196.5
t111.5 -168.5t163.5 -114t193 -41q136 0 252.5 71t186 191.5t69.5 257.5q0 139 -68 257.5t-184 187.5t-256 69zM543 1618l225 211h160l223 -211h-221l-82 98l-84 -98h-221zM707 -342v197h217v-197h-217z" />
    <glyph glyph-name="asacth" unicode="&#xf00a;" 
d="M-737 1276l-74 141l344 203l80 -160z" />
    <glyph glyph-name="ahuyenth" unicode="&#xf00f;" 
d="M-883 1464l86 158l340 -207l-80 -141z" />
    <glyph glyph-name="ahoith" unicode="&#xf014;" 
d="M-707 1526l-153 47q9 85 66.5 129.5t150.5 44.5q65 0 115 -28t77 -74.5t27 -104.5q0 -48 -28.5 -81t-88.5 -77q-32 -19 -45.5 -33t-13.5 -40h-145v14q0 50 31 93t77 69q26 19 31.5 24t5.5 19q0 53 -55 53q-52 0 -52 -55z" />
    <glyph glyph-name="angath" unicode="&#xf019;" 
d="M-821 1280l-76 135q58 55 152 55q38 0 94.5 -21.5t75.5 -21.5q54 0 104 41l76 -129q-72 -65 -146 -65q-30 0 -60.5 10l-61 19.5t-58.5 9.5q-54 0 -100 -33z" />
    <glyph glyph-name="angath" unicode="&#xf01b;" 
d="M-821 1280l-76 135q58 55 152 55q38 0 94.5 -21.5t75.5 -21.5q54 0 104 41l76 -129q-72 -65 -146 -65q-30 0 -60.5 10l-61 19.5t-58.5 9.5q-54 0 -100 -33z" />
    <glyph glyph-name="angath" unicode="&#xf01a;" 
d="M-821 1280l-76 135q58 55 152 55q38 0 94.5 -21.5t75.5 -21.5q54 0 104 41l76 -129q-72 -65 -146 -65q-30 0 -60.5 10l-61 19.5t-58.5 9.5q-54 0 -100 -33z" />
    <glyph glyph-name="anangth" unicode="&#xf023;" 
d="M-756 -356v196h217v-196h-217z" />
    <glyph glyph-name="anangth" unicode="&#xf02c;" 
d="M-756 -356v196h217v-196h-217z" />
    <glyph glyph-name="anangth" unicode="&#xf028;" 
d="M-756 -356v196h217v-196h-217z" />
    <glyph glyph-name="anangth" unicode="&#xf027;" 
d="M-756 -356v196h217v-196h-217z" />
    <glyph glyph-name="anangth" unicode="&#xf026;" 
d="M-756 -356v196h217v-196h-217z" />
    <glyph glyph-name="anangth" unicode="&#xf025;" 
d="M-756 -356v196h217v-196h-217z" />
    <glyph glyph-name="anangth" unicode="&#xf024;" 
d="M-756 -356v196h217v-196h-217z" />
    <glyph glyph-name="aasacth" unicode="&#xf009;" 
d="M-633 1563l-74 141l345 203l79 -160z" />
    <glyph glyph-name="aahuyenth" unicode="&#xf00e;" 
d="M-922 1741l86 157l340 -206l-79 -142z" />
    <glyph glyph-name="aahoith" unicode="&#xf013;" 
d="M-653 1792l-154 47q9 85 66.5 129.5t150.5 44.5q65 0 115 -28t77 -74.5t27 -104.5q0 -48 -27 -80t-89 -77q-29 -17 -44.5 -32.5t-15.5 -41.5h-145v14q0 50 31 93t77 69q15 11 23 17.5t11 11.5t3 14q0 53 -55 53q-51 0 -51 -55z" />
    <glyph glyph-name="aangath" unicode="&#xf018;" 
d="M-788 1587l-76 135q59 56 151 56q40 0 96.5 -21.5t73.5 -21.5q57 0 105 41l76 -129q-74 -66 -146 -66q-16 0 -43 6.5t-52 14.5t-43 13t-42 5q-56 0 -100 -33z" />
    <glyph glyph-name="absacth" unicode="&#x301;" 
d="M-403 1427l-74 142l344 203l80 -160z" />
    <glyph glyph-name="absacth" unicode="&#x302;" 
d="M-403 1427l-74 142l344 203l80 -160z" />
    <glyph glyph-name="abhuyenth" unicode="&#x300;" 
d="M-743 1708l86 158l340 -207l-80 -141z" />
    <glyph glyph-name="abhoith" unicode="&#x309;" 
d="M-362 1657l-154 47q9 85 66.5 129.5t150.5 44.5q65 0 115 -28t77 -74.5t27 -104.5q0 -48 -28.5 -81t-88.5 -77q-32 -19 -45.5 -33t-13.5 -40h-145v14q0 50 31 93t77 69q26 19 31.5 24t5.5 19q0 53 -55 53q-51 0 -51 -55z" />
    <glyph glyph-name="abngath" unicode="&#x303;" 
d="M-836 1595l-75 136q60 55 151 55q40 0 96.5 -21.5t73.5 -21.5q57 0 105 41l75 -129q-35 -32 -70 -49t-75 -17q-30 0 -61 10l-61.5 19.5t-57.5 9.5q-55 0 -101 -33z" />
    <glyph glyph-name="asachoa" unicode="&#x341;" 
d="M-993 1624l-74 141l344 203l80 -160z" />
    <glyph glyph-name="asachoa" unicode="&#xf007;" 
d="M-993 1624l-74 141l344 203l80 -160z" />
    <glyph glyph-name="ahuyenhoa" unicode="&#x340;" 
d="M-1118 1812l86 158l340 -207l-80 -141z" />
    <glyph glyph-name="ahuyenhoa" unicode="&#xf00c;" 
d="M-1118 1812l86 158l340 -207l-80 -141z" />
    <glyph glyph-name="ahoihoa" unicode="&#xf011;" 
d="M-911 1874l-154 47q9 85 66.5 129.5t150.5 44.5q65 0 115 -28t77 -74.5t27 -104.5q0 -48 -27 -80t-89 -77q-29 -17 -44.5 -32.5t-15.5 -41.5h-145v14q0 50 31 93t77 69q26 19 31.5 24t5.5 19q0 53 -55 53q-51 0 -51 -55z" />
    <glyph glyph-name="angahoa" unicode="&#x342;" 
d="M-1047 1638l-75 136q60 55 151 55q40 0 96.5 -21.5t73.5 -21.5q57 0 105 41l75 -129q-35 -32 -70 -49t-75 -17q-30 0 -61 10l-61.5 19.5t-57.5 9.5q-55 0 -101 -33z" />
    <glyph glyph-name="angahoa" unicode="&#xf030;" 
d="M-1047 1638l-75 136q60 55 151 55q40 0 96.5 -21.5t73.5 -21.5q57 0 105 41l75 -129q-35 -32 -70 -49t-75 -17q-30 0 -61 10l-61.5 19.5t-57.5 9.5q-55 0 -101 -33z" />
    <glyph glyph-name="angahoa" unicode="&#xf02e;" 
d="M-1047 1638l-75 136q60 55 151 55q40 0 96.5 -21.5t73.5 -21.5q57 0 105 41l75 -129q-35 -32 -70 -49t-75 -17q-30 0 -61 10l-61.5 19.5t-57.5 9.5q-55 0 -101 -33z" />
    <glyph glyph-name="angahoa" unicode="&#xf01c;" 
d="M-1047 1638l-75 136q60 55 151 55q40 0 96.5 -21.5t73.5 -21.5q57 0 105 41l75 -129q-35 -32 -70 -49t-75 -17q-30 0 -61 10l-61.5 19.5t-57.5 9.5q-55 0 -101 -33z" />
    <glyph glyph-name="angahoa" unicode="&#xf017;" 
d="M-1047 1638l-75 136q60 55 151 55q40 0 96.5 -21.5t73.5 -21.5q57 0 105 41l75 -129q-35 -32 -70 -49t-75 -17q-30 0 -61 10l-61.5 19.5t-57.5 9.5q-55 0 -101 -33z" />
    <glyph glyph-name="angahoa" unicode="&#xf016;" 
d="M-1047 1638l-75 136q60 55 151 55q40 0 96.5 -21.5t73.5 -21.5q57 0 105 41l75 -129q-35 -32 -70 -49t-75 -17q-30 0 -61 10l-61.5 19.5t-57.5 9.5q-55 0 -101 -33z" />
    <glyph glyph-name="ananghoa" unicode="&#x323;" 
d="M-1012 -336v197h217v-197h-217z" />
    <glyph glyph-name="ananghoa" unicode="&#xf02b;" 
d="M-1012 -336v197h217v-197h-217z" />
    <glyph glyph-name="ananghoa" unicode="&#xf029;" 
d="M-1012 -336v197h217v-197h-217z" />
    <glyph glyph-name="ananghoa" unicode="&#xf022;" 
d="M-1012 -336v197h217v-197h-217z" />
    <glyph glyph-name="ananghoa" unicode="&#xf021;" 
d="M-1012 -336v197h217v-197h-217z" />
    <glyph glyph-name="ananghoa" unicode="&#xf020;" 
d="M-1012 -336v197h217v-197h-217z" />
    <glyph glyph-name="ananghoa" unicode="&#xf01f;" 
d="M-1012 -336v197h217v-197h-217z" />
    <glyph glyph-name="ananghoa" unicode="&#xf01e;" 
d="M-1012 -336v197h217v-197h-217z" />
    <glyph glyph-name="aasachoa" 
d="M-776 1860l-74 141l344 203l80 -160z" />
    <glyph glyph-name="aahuyenhoa" 
d="M-1096 2068l86 158l340 -207l-80 -141z" />
    <glyph glyph-name="aahoihoa" 
d="M-807 2089l-154 47q10 85 68 129.5t150 44.5q65 0 115 -28t77 -74.5t27 -104.5q0 -48 -27.5 -80t-89.5 -77q-29 -17 -44 -33t-15 -41h-146v14q0 50 31 93.5t78 68.5q10 9 20.5 16.5t13.5 12.5t3 14q0 53 -56 53q-51 0 -51 -55z" />
    <glyph glyph-name="aangahoa" 
d="M-952 1905l-76 135q58 55 151 55q40 0 96.5 -21.5t73.5 -21.5q57 0 105 41l76 -129q-22 -21 -45 -35.5t-48 -22.5t-53 -8q-30 0 -60.5 10l-61 19.5t-58.5 9.5q-55 0 -100 -32z" />
    <glyph glyph-name="absachoa" unicode="&#xf006;" 
d="M-598 1765l-74 142l344 202l80 -159z" />
    <glyph glyph-name="abhuyenhoa" unicode="&#xf00b;" 
d="M-958 2036l86 157l340 -206l-80 -142z" />
    <glyph glyph-name="abhoihoa" unicode="&#xf010;" 
d="M-588 2005l-153 47q9 85 66.5 129.5t150.5 44.5q65 0 115 -28t77 -74.5t27 -104.5q0 -48 -27.5 -80t-89.5 -77q-29 -17 -44 -33t-15 -41h-146v14q0 50 31 93.5t78 68.5q15 11 23 17.5t11 11.5t3 14q0 53 -56 53q-51 0 -51 -55z" />
    <glyph glyph-name="abngahoa" unicode="&#xf015;" 
d="M-1061 1913l-76 135q58 55 152 55q40 0 96.5 -21.5t73.5 -21.5q56 0 104 41l76 -129q-72 -65 -145 -65q-30 0 -61 10l-61.5 19.5t-58.5 9.5q-52 0 -100 -33z" />
    <glyph glyph-name="abngahoa" unicode="&#xf02f;" 
d="M-1061 1913l-76 135q58 55 152 55q40 0 96.5 -21.5t73.5 -21.5q56 0 104 41l76 -129q-72 -65 -145 -65q-30 0 -61 10l-61.5 19.5t-58.5 9.5q-52 0 -100 -33z" />
    <glyph glyph-name="abngahoa" unicode="&#xf02d;" 
d="M-1061 1913l-76 135q58 55 152 55q40 0 96.5 -21.5t73.5 -21.5q56 0 104 41l76 -129q-72 -65 -145 -65q-30 0 -61 10l-61.5 19.5t-58.5 9.5q-52 0 -100 -33z" />
    <glyph glyph-name="cth" 
d="M-870 1477h151q13 -27 41 -43.5t60 -16.5t60.5 16.5t39.5 43.5h151q-12 -102 -79.5 -154.5t-171.5 -52.5q-105 0 -172.5 52.5t-79.5 154.5z" />
    <glyph glyph-name="csacth" 
d="M-870 1477h151q13 -27 41 -43.5t60 -16.5t60.5 16.5t39.5 43.5h151q-12 -102 -79.5 -154.5t-171.5 -52.5q-105 0 -172.5 52.5t-79.5 154.5zM-657 1550l-74 142l344 202l80 -159z" />
    <glyph glyph-name="chuyenth" 
d="M-870 1477h151q13 -27 41 -43.5t60 -16.5t60.5 16.5t39.5 43.5h151q-12 -102 -79.5 -154.5t-171.5 -52.5q-105 0 -172.5 52.5t-79.5 154.5zM-956 1769l86 158l340 -207l-80 -141z" />
    <glyph glyph-name="choith" 
d="M-870 1477h151q13 -27 41 -43.5t60 -16.5t60.5 16.5t39.5 43.5h151q-12 -102 -79.5 -154.5t-171.5 -52.5q-105 0 -172.5 52.5t-79.5 154.5zM-668 1790l-153 47q9 85 66.5 129.5t150.5 44.5q65 0 115 -28t77 -74.5t27 -104.5q0 -48 -27.5 -80t-89.5 -77q-29 -17 -44 -33
t-15 -41h-146v14q0 48 30.5 91.5t78.5 70.5q15 11 23 17.5t11 11.5t3 14q0 53 -55 53q-52 0 -52 -55z" />
    <glyph glyph-name="cngath" 
d="M-870 1477h151q13 -27 41 -43.5t60 -16.5t60.5 16.5t39.5 43.5h151q-12 -102 -79.5 -154.5t-171.5 -52.5q-105 0 -172.5 52.5t-79.5 154.5zM-813 1585l-76 135q59 56 152 56q38 0 95.5 -21.5t74.5 -21.5q56 0 104 41l76 -129q-35 -32 -70 -49t-75 -17q-30 0 -61 10
l-61.5 19.5t-58.5 9.5q-54 0 -100 -33z" />
    <glyph glyph-name="cnangth" 
d="M-870 1477h151q13 -27 41 -43.5t60 -16.5t60.5 16.5t39.5 43.5h151q-12 -102 -79.5 -154.5t-171.5 -52.5q-105 0 -172.5 52.5t-79.5 154.5zM-809 -360v196h217v-196h-217z" />
    <glyph glyph-name="choa" 
d="M-1024 1804h152q12 -28 40 -43.5t60 -15.5q33 0 60.5 15.5t39.5 43.5h152q-12 -100 -80 -153.5t-172 -53.5q-103 0 -171.5 53t-80.5 154z" />
    <glyph glyph-name="csachoa" 
d="M-1024 1804h152q12 -28 40 -43.5t60 -15.5q33 0 60.5 15.5t39.5 43.5h152q-12 -100 -80 -153.5t-172 -53.5q-103 0 -171.5 53t-80.5 154zM-811 1878l-74 141l344 203l80 -160z" />
    <glyph glyph-name="chuyenhoa" 
d="M-1024 1804h152q12 -28 40 -43.5t60 -15.5q33 0 60.5 15.5t39.5 43.5h152q-12 -100 -80 -153.5t-172 -53.5q-103 0 -171.5 53t-80.5 154zM-1110 2097l86 158l340 -207l-80 -141z" />
    <glyph glyph-name="choihoa" 
d="M-1024 1804h152q12 -28 40 -43.5t60 -15.5q33 0 60.5 15.5t39.5 43.5h152q-12 -100 -80 -153.5t-172 -53.5q-103 0 -171.5 53t-80.5 154zM-821 2118l-154 47q9 85 66.5 129.5t150.5 44.5q65 0 115 -28t77 -74.5t27 -104.5q0 -49 -27 -81t-89 -77q-32 -19 -46 -33.5
t-14 -39.5h-145v14q0 50 31 93t77 69q26 19 31.5 24t5.5 19q0 53 -55 53q-51 0 -51 -55z" />
    <glyph glyph-name="cngahoa" 
d="M-1024 1804h152q12 -28 40 -43.5t60 -15.5q33 0 60.5 15.5t39.5 43.5h152q-12 -100 -80 -153.5t-172 -53.5q-103 0 -171.5 53t-80.5 154zM-967 1913l-75 135q56 55 151 55q40 0 96.5 -21.5t73.5 -21.5q55 0 105 41l75 -129q-72 -65 -145 -65q-30 0 -61 10l-61.5 19.5
t-57.5 9.5q-53 0 -101 -33z" />
    <glyph glyph-name="cnanghoa" 
d="M-1024 1804h152q12 -28 40 -43.5t60 -15.5q33 0 60.5 15.5t39.5 43.5h152q-12 -100 -80 -153.5t-172 -53.5q-103 0 -171.5 53t-80.5 154zM-870 -340v197h217v-197h-217z" />
    <glyph glyph-name="bth" 
d="M-963 1270l226 211h159l224 -211h-221l-82 98l-84 -98h-222z" />
    <glyph glyph-name="bsacth" 
d="M-963 1270l226 211h159l224 -211h-221l-82 98l-84 -98h-222zM-391 1442l-74 141l344 203l80 -160z" />
    <glyph glyph-name="bhuyenth" 
d="M-963 1270l226 211h159l224 -211h-221l-82 98l-84 -98h-222zM-721 1671l86 158l340 -207l-80 -141z" />
    <glyph glyph-name="bhoith" 
d="M-963 1270l226 211h159l224 -211h-221l-82 98l-84 -98h-222zM-381 1651l-154 47q10 85 68 129.5t150 44.5q65 0 115 -28t77 -74.5t27 -104.5q0 -49 -27.5 -81t-89.5 -77q-32 -19 -45.5 -34t-13.5 -39h-146v14q0 50 31 93.5t78 68.5q12 9 21.5 15.5t12.5 12t3 15.5
q0 53 -56 53q-51 0 -51 -55z" />
    <glyph glyph-name="bngath" 
d="M-963 1270l226 211h159l224 -211h-221l-82 98l-84 -98h-222zM-844 1589l-76 135q59 56 152 56q40 0 96.5 -21.5t73.5 -21.5q58 0 104 41l76 -129q-35 -32 -70 -49t-75 -17q-30 0 -61 10l-61.5 19.5t-57.5 9.5q-55 0 -101 -33z" />
    <glyph glyph-name="bnangth" 
d="M-963 1270l226 211h159l224 -211h-221l-82 98l-84 -98h-222zM-809 -362v196h217v-196h-217z" />
    <glyph glyph-name="bhoa" 
d="M-1178 1618l226 211h159l224 -211h-222l-81 98l-84 -98h-222z" />
    <glyph glyph-name="bsachoa" 
d="M-1178 1618l226 211h159l224 -211h-222l-81 98l-84 -98h-222zM-606 1790l-74 141l344 203l80 -160z" />
    <glyph glyph-name="bhuyenhoa" 
d="M-1178 1618l226 211h159l224 -211h-222l-81 98l-84 -98h-222zM-936 2019l86 158l340 -207l-80 -141z" />
    <glyph glyph-name="bhoihoa" 
d="M-1178 1618l226 211h159l224 -211h-222l-81 98l-84 -98h-222zM-596 1999l-154 47q10 85 68 129.5t150 44.5q65 0 115 -28t77 -74.5t27 -104.5q0 -48 -28.5 -81t-88.5 -77q-32 -19 -45.5 -33.5t-13.5 -39.5h-146v14q0 50 31 93.5t78 68.5q12 9 21.5 15.5t12.5 12t3 15.5
q0 53 -56 53q-51 0 -51 -55z" />
    <glyph glyph-name="bngahoa" 
d="M-1178 1618l226 211h159l224 -211h-222l-81 98l-84 -98h-222zM-1059 1937l-76 136q60 55 152 55q40 0 96.5 -21.5t73.5 -21.5q58 0 104 41l76 -129q-35 -32 -70 -49t-75 -17q-30 0 -61 10l-61.5 19.5t-57.5 9.5q-55 0 -101 -33z" />
    <glyph glyph-name="bnanghoa" 
d="M-1178 1618l226 211h159l224 -211h-222l-81 98l-84 -98h-222zM-1014 -332v197h217v-197h-217z" />
    <glyph glyph-name="nonbreakingspace" horiz-adv-x="1516" 
 />
  </font>
</defs>
</svg>
